<?xml version="1.0" encoding="utf-8"?>
<!-- Generator: Adobe Illustrator 19.0.0, SVG Export Plug-In . SVG Version: 6.00 Build 0)  -->
<svg version="1.1" id="レイヤー_1" xmlns="http://www.w3.org/2000/svg" xmlns:xlink="http://www.w3.org/1999/xlink" x="0px"
	 y="0px" viewBox="0 0 266 306.8" style="enable-background:new 0 0 266 306.8;" xml:space="preserve">
<style type="text/css">
	.st0{fill:#B97777;}
	.st1{fill:#B97777;stroke:#FFFFFF;stroke-width:2;stroke-miterlimit:10;}
	.st2{fill:none;stroke:#B97777;stroke-width:8;stroke-miterlimit:10;}
	.st3{fill:none;stroke:#8C6239;stroke-width:8;stroke-miterlimit:10;}
	.st4{fill:none;stroke:#FFFFFF;stroke-width:4;stroke-linejoin:round;stroke-miterlimit:10;}
	.st5{fill:#8C6239;}
</style>
<g id="XMLID_1_">
	<g id="XMLID_68_">
		<path id="XMLID_104_" class="st0" d="M139.1,1.1c-3.8,19.1-3.8,38.6-0.2,57.8c0.4,1.9,3.3,1.1,2.9-0.8
			c-3.6-18.6-3.5-37.6,0.2-56.2C142.4,0,139.5-0.8,139.1,1.1L139.1,1.1z"/>
	</g>
</g>
<g id="XMLID_2_">
	<g id="XMLID_56_">
		<path id="XMLID_98_" class="st0" d="M102.8,32.9c3.3,11.1,7.6,21.8,12.8,32.1c0.9,1.7,3.5,0.2,2.6-1.5
			c-5.1-10.1-9.2-20.5-12.5-31.4C105.2,30.3,102.3,31.1,102.8,32.9L102.8,32.9z"/>
	</g>
</g>
<g id="XMLID_14_">
	<g id="XMLID_50_">
		<path id="XMLID_75_" class="st0" d="M67.4,24.8c6.3,18.5,16,35.4,28.7,50.1c1.3,1.5,3.4-0.7,2.1-2.1C85.9,58.5,76.4,42,70.3,24
			C69.7,22.2,66.8,23,67.4,24.8L67.4,24.8z"/>
	</g>
</g>
<g id="XMLID_5_">
	<g id="XMLID_37_">
		<path id="XMLID_64_" class="st0" d="M45.8,64.1c7.9,8.5,16.4,16.1,25.7,23.1c1.5,1.2,3-1.4,1.5-2.6c-9-6.8-17.4-14.3-25.1-22.6
			C46.6,60.5,44.5,62.6,45.8,64.1L45.8,64.1z"/>
	</g>
</g>
<g id="XMLID_4_">
	<g id="XMLID_35_">
		<path id="XMLID_54_" class="st0" d="M171.1,33.1c-3.2,10.8-7.4,21.3-12.5,31.4c-0.9,1.7,1.7,3.2,2.6,1.5
			c5.2-10.3,9.5-21,12.8-32.1C174.5,32.1,171.6,31.3,171.1,33.1L171.1,33.1z"/>
	</g>
</g>
<g id="XMLID_40_">
	<g id="XMLID_38_">
		<path id="XMLID_13_" class="st0" d="M207.6,23.2c-12.7,14.8-22.3,31.8-28.5,50.3c-0.6,1.8,2.3,2.6,2.9,0.8
			c6-18,15.3-34.5,27.7-48.9C211,23.8,208.9,21.7,207.6,23.2L207.6,23.2z"/>
	</g>
</g>
<g id="XMLID_8_">
	<g id="XMLID_55_">
		<path class="st0" d="M218.5,60.5c-6.8,9-14.3,17.4-22.6,25.1c-1.4,1.3,0.7,3.4,2.1,2.1c8.5-7.9,16.1-16.5,23-25.7
			C222.2,60.5,219.6,59,218.5,60.5L218.5,60.5z"/>
	</g>
</g>
<ellipse id="XMLID_15_" class="st0" cx="133" cy="234.7" rx="133" ry="22.8"/>
<g id="XMLID_7_">
	<path id="XMLID_9_" class="st1" d="M53.5,146.5c0,43,35.6,79.5,79.5,79.5s79.5-36.5,79.5-79.5H53.5z"/>
</g>
<ellipse id="XMLID_12_" transform="matrix(0.8618 -0.5073 0.5073 0.8618 -63.6522 133.3009)" class="st2" cx="212.8" cy="183.5" rx="27.7" ry="25"/>
<ellipse id="XMLID_28_" cx="179" cy="245.5" rx="1.5" ry="0"/>
<g id="XMLID_61_">
	<g id="XMLID_34_">
		<g id="XMLID_10_">
			<path id="XMLID_11_" class="st0" d="M130.8,106.6c3,4.3,6.1,8.7,7.8,14.1c0.9,2.7,1.3,5.8,0.7,8.8c-0.5,3-2,5.5-3.5,7.1
				c-3.2,3.3-6.2,4.3-8.3,4.8c-2.1,0.5-3.5,0.2-3.8-0.5c-0.4-0.8,0.2-1.9,1.4-3.5c0.6-0.7,1.2-1.6,2-2.6c0.7-1,1.4-2.1,1.9-3.2
				c0.5-1.1,0.6-2.2,0.5-3.2c-0.1-1.1-0.5-2.3-1.2-3.9c-1.5-3.1-4.3-6.8-7.3-11.1c-1.5-2.2-3-4.4-4.4-6.8c-1.3-2.4-2.5-5-3.3-7.8
				c-0.7-2.8-0.9-6.1,0-9c0.8-2.9,2.4-5.1,4-6.7c1.6-1.6,3.2-2.5,4.6-3.2c1.4-0.7,2.7-1.1,3.7-1.3c2.1-0.4,3.4-0.2,3.8,0.5
				c0.4,0.8-0.2,1.9-1.4,3.5c-1.1,1.5-3,3.5-4.1,5.8c-0.5,1.1-0.9,2.3-0.9,3.4c0,1.1,0.3,2.3,0.9,3.8
				C125.1,98.6,127.8,102.3,130.8,106.6z"/>
		</g>
	</g>
</g>
<g id="XMLID_63_">
	<g id="XMLID_99_">
		<g id="XMLID_3_">
			<path id="XMLID_6_" class="st0" d="M96.7,114.8c1.1,1.5,2.2,3.1,3.2,4.8c1,1.7,1.9,3.6,2.6,5.7c0.7,2.1,0.9,4.6,0.5,7
				c-0.2,1.2-0.7,2.3-1.2,3.3c-0.2,0.5-0.6,0.9-0.9,1.3c-0.3,0.4-0.6,0.8-0.9,1.1c-0.3,0.3-0.6,0.6-1,0.9c-0.3,0.3-0.6,0.5-0.9,0.7
				c-0.6,0.4-1.2,0.7-1.8,1c-1.1,0.4-2.1,0.7-2.9,0.8c-1.7,0.1-2.7-0.2-3.1-0.9s-0.1-1.8,0.6-3c0.4-0.6,0.7-1.4,1.2-2
				c0.2-0.4,0.3-0.8,0.5-1.1c0.1-0.2,0.2-0.4,0.2-0.6c0.1-0.2,0.1-0.4,0.2-0.5c0.1-0.2,0.1-0.4,0.1-0.5c0-0.2,0.1-0.3,0-0.5
				c-0.1-0.3,0-0.5-0.2-0.8c-0.2-0.5-0.4-1.1-0.9-2.1c-0.5-0.9-1.3-2.1-2.1-3.3c-1-1.4-2-2.8-3-4.2c-1.1-1.5-2.2-3.2-3.2-5
				c-1-1.8-1.9-3.8-2.4-6c-0.5-2.2-0.7-4.8,0.1-7.1c0.1-0.6,0.4-1.1,0.6-1.6c0.3-0.5,0.5-1,0.8-1.4c0.6-0.8,1.2-1.6,1.9-2.2
				c2.6-2.3,4.9-2.9,6.6-3.1c1.7-0.1,2.7,0.2,3.1,0.9c0.4,0.7,0.1,1.8-0.7,3c-0.4,0.6-0.7,1.4-1.2,2.1c-0.4,0.8-0.9,1.5-1.1,2.3
				c-0.2,0.4-0.2,0.7-0.2,1.1c-0.1,0.2,0,0.3,0,0.5c0,0.1,0,0.3,0,0.4c0.1,0.5,0.3,1.1,0.7,2c0.4,0.9,1,2,1.9,3.2
				C94.7,112,95.6,113.3,96.7,114.8z"/>
		</g>
	</g>
</g>
<g id="XMLID_16_">
	<g id="XMLID_18_">
		<path id="XMLID_223_" class="st3" d="M28.9,298.5c-0.2,1.1-0.4,2.2-0.5,3.4c-2.9,0.6-5.5,0.9-7.9,0.9c-2.1,0-4.2-0.3-6.2-1
			c-2-0.6-3.7-1.7-5.2-3c-1.5-1.4-2.5-3-3.2-4.8c-0.7-1.8-1-3.8-1-5.9c0-2.2,0.4-4.4,1.1-6.5c0.7-2.1,1.9-3.9,3.4-5.3
			c1.5-1.5,3.3-2.5,5.5-3.3c2.1-0.7,4.4-1.1,6.7-1.1c2.5,0,5,0.3,7.5,0.8c0,0.7,0.1,1.9,0.2,3.4c-1.6-0.5-3-0.8-4.1-1
			c-1.1-0.2-2.2-0.3-3.2-0.3c-1.7,0-3.4,0.3-5,0.8c-1.6,0.5-3,1.4-4.2,2.6c-1.2,1.2-2.2,2.6-2.8,4.3c-0.6,1.7-1,3.5-1,5.3
			c0,1.7,0.3,3.3,0.8,4.9c0.5,1.5,1.3,2.8,2.4,3.9s2.3,1.9,3.8,2.4c1.5,0.6,3.1,0.8,5,0.8C23.2,299.8,25.9,299.4,28.9,298.5z"/>
		<path id="XMLID_221_" class="st4" d="M28.9,298.5c-0.2,1.1-0.4,2.2-0.5,3.4c-2.9,0.6-5.5,0.9-7.9,0.9c-2.1,0-4.2-0.3-6.2-1
			c-2-0.6-3.7-1.7-5.2-3c-1.5-1.4-2.5-3-3.2-4.8c-0.7-1.8-1-3.8-1-5.9c0-2.2,0.4-4.4,1.1-6.5c0.7-2.1,1.9-3.9,3.4-5.3
			c1.5-1.5,3.3-2.5,5.5-3.3c2.1-0.7,4.4-1.1,6.7-1.1c2.5,0,5,0.3,7.5,0.8c0,0.7,0.1,1.9,0.2,3.4c-1.6-0.5-3-0.8-4.1-1
			c-1.1-0.2-2.2-0.3-3.2-0.3c-1.7,0-3.4,0.3-5,0.8c-1.6,0.5-3,1.4-4.2,2.6c-1.2,1.2-2.2,2.6-2.8,4.3c-0.6,1.7-1,3.5-1,5.3
			c0,1.7,0.3,3.3,0.8,4.9c0.5,1.5,1.3,2.8,2.4,3.9s2.3,1.9,3.8,2.4c1.5,0.6,3.1,0.8,5,0.8C23.2,299.8,25.9,299.4,28.9,298.5z"/>
		<path id="XMLID_219_" class="st5" d="M28.9,298.5c-0.2,1.1-0.4,2.2-0.5,3.4c-2.9,0.6-5.5,0.9-7.9,0.9c-2.1,0-4.2-0.3-6.2-1
			c-2-0.6-3.7-1.7-5.2-3c-1.5-1.4-2.5-3-3.2-4.8c-0.7-1.8-1-3.8-1-5.9c0-2.2,0.4-4.4,1.1-6.5c0.7-2.1,1.9-3.9,3.4-5.3
			c1.5-1.5,3.3-2.5,5.5-3.3c2.1-0.7,4.4-1.1,6.7-1.1c2.5,0,5,0.3,7.5,0.8c0,0.7,0.1,1.9,0.2,3.4c-1.6-0.5-3-0.8-4.1-1
			c-1.1-0.2-2.2-0.3-3.2-0.3c-1.7,0-3.4,0.3-5,0.8c-1.6,0.5-3,1.4-4.2,2.6c-1.2,1.2-2.2,2.6-2.8,4.3c-0.6,1.7-1,3.5-1,5.3
			c0,1.7,0.3,3.3,0.8,4.9c0.5,1.5,1.3,2.8,2.4,3.9s2.3,1.9,3.8,2.4c1.5,0.6,3.1,0.8,5,0.8C23.2,299.8,25.9,299.4,28.9,298.5z"/>
	</g>
	<g id="XMLID_31_">
		<path id="XMLID_216_" class="st3" d="M34.9,283.6c0.1-0.6,0.3-1.6,0.4-2.8c1.8-0.5,3.3-0.8,4.6-0.9c1.3-0.2,2.6-0.3,3.8-0.3
			c1.3,0,2.5,0.1,3.7,0.4s2.1,0.6,2.9,1.2s1.3,1.2,1.5,1.9c0.2,0.7,0.4,1.5,0.4,2.3c0,1-0.1,2.7-0.2,5.1s-0.3,4.6-0.3,6.6
			c-0.1,2-0.1,3.8-0.1,5.4c-0.8,0-1.4,0-1.9,0c-0.5,0-1.1,0-2,0l0.5-6l0.3-7.1c-0.5,0.4-0.9,0.7-1.2,0.8c-0.3,0.2-0.5,0.3-0.9,0.4
			s-0.7,0.3-1.1,0.4s-1.1,0.3-2.3,0.6s-1.9,0.5-2.4,0.7c-1,0.3-1.8,0.6-2.4,1s-1.1,0.7-1.5,1.1c-0.4,0.4-0.7,0.8-0.8,1.1
			c-0.2,0.5-0.3,1-0.3,1.5c0,0.8,0.2,1.5,0.7,2.1c0.5,0.6,1.1,1,1.8,1.2c0.7,0.2,1.6,0.3,2.6,0.3c0.6,0,1.3,0,1.9-0.1
			c0.7-0.1,1.6-0.3,2.7-0.7c-0.2,0.6-0.4,1.4-0.7,2.6c-1.1,0.2-1.9,0.3-2.6,0.4c-0.7,0.1-1.3,0.1-1.9,0.1c-2,0-3.6-0.2-4.7-0.7
			c-1.1-0.5-2-1.2-2.5-2.1c-0.6-1-0.8-2-0.8-3.1c0-0.7,0.1-1.3,0.3-1.8c0.2-0.6,0.5-1.1,0.8-1.5c0.3-0.5,0.8-0.9,1.4-1.4
			c0.6-0.5,1.3-0.8,1.9-1.1s1.5-0.6,2.4-0.9c0.9-0.3,2.4-0.7,4.4-1.1c0.6-0.1,1.2-0.3,1.6-0.4c0.5-0.2,0.9-0.3,1.2-0.4
			c0.4-0.1,0.7-0.3,0.9-0.5c0.3-0.2,0.5-0.4,0.7-0.7c0.2-0.3,0.4-0.6,0.5-0.9s0.2-0.6,0.2-0.9c0-0.7-0.2-1.3-0.7-1.8
			c-0.5-0.5-1.1-0.9-1.8-1.1s-1.6-0.3-2.7-0.3c-0.9,0-1.9,0.1-2.9,0.2s-1.9,0.3-2.6,0.5C36.8,282.9,35.9,283.2,34.9,283.6z"/>
		<path id="XMLID_214_" class="st4" d="M34.9,283.6c0.1-0.6,0.3-1.6,0.4-2.8c1.8-0.5,3.3-0.8,4.6-0.9c1.3-0.2,2.6-0.3,3.8-0.3
			c1.3,0,2.5,0.1,3.7,0.4s2.1,0.6,2.9,1.2s1.3,1.2,1.5,1.9c0.2,0.7,0.4,1.5,0.4,2.3c0,1-0.1,2.7-0.2,5.1s-0.3,4.6-0.3,6.6
			c-0.1,2-0.1,3.8-0.1,5.4c-0.8,0-1.4,0-1.9,0c-0.5,0-1.1,0-2,0l0.5-6l0.3-7.1c-0.5,0.4-0.9,0.7-1.2,0.8c-0.3,0.2-0.5,0.3-0.9,0.4
			s-0.7,0.3-1.1,0.4s-1.1,0.3-2.3,0.6s-1.9,0.5-2.4,0.7c-1,0.3-1.8,0.6-2.4,1s-1.1,0.7-1.5,1.1c-0.4,0.4-0.7,0.8-0.8,1.1
			c-0.2,0.5-0.3,1-0.3,1.5c0,0.8,0.2,1.5,0.7,2.1c0.5,0.6,1.1,1,1.8,1.2c0.7,0.2,1.6,0.3,2.6,0.3c0.6,0,1.3,0,1.9-0.1
			c0.7-0.1,1.6-0.3,2.7-0.7c-0.2,0.6-0.4,1.4-0.7,2.6c-1.1,0.2-1.9,0.3-2.6,0.4c-0.7,0.1-1.3,0.1-1.9,0.1c-2,0-3.6-0.2-4.7-0.7
			c-1.1-0.5-2-1.2-2.5-2.1c-0.6-1-0.8-2-0.8-3.1c0-0.7,0.1-1.3,0.3-1.8c0.2-0.6,0.5-1.1,0.8-1.5c0.3-0.5,0.8-0.9,1.4-1.4
			c0.6-0.5,1.3-0.8,1.9-1.1s1.5-0.6,2.4-0.9c0.9-0.3,2.4-0.7,4.4-1.1c0.6-0.1,1.2-0.3,1.6-0.4c0.5-0.2,0.9-0.3,1.2-0.4
			c0.4-0.1,0.7-0.3,0.9-0.5c0.3-0.2,0.5-0.4,0.7-0.7c0.2-0.3,0.4-0.6,0.5-0.9s0.2-0.6,0.2-0.9c0-0.7-0.2-1.3-0.7-1.8
			c-0.5-0.5-1.1-0.9-1.8-1.1s-1.6-0.3-2.7-0.3c-0.9,0-1.9,0.1-2.9,0.2s-1.9,0.3-2.6,0.5C36.8,282.9,35.9,283.2,34.9,283.6z"/>
		<path id="XMLID_212_" class="st5" d="M34.9,283.6c0.1-0.6,0.3-1.6,0.4-2.8c1.8-0.5,3.3-0.8,4.6-0.9c1.3-0.2,2.6-0.3,3.8-0.3
			c1.3,0,2.5,0.1,3.7,0.4s2.1,0.6,2.9,1.2s1.3,1.2,1.5,1.9c0.2,0.7,0.4,1.5,0.4,2.3c0,1-0.1,2.7-0.2,5.1s-0.3,4.6-0.3,6.6
			c-0.1,2-0.1,3.8-0.1,5.4c-0.8,0-1.4,0-1.9,0c-0.5,0-1.1,0-2,0l0.5-6l0.3-7.1c-0.5,0.4-0.9,0.7-1.2,0.8c-0.3,0.2-0.5,0.3-0.9,0.4
			s-0.7,0.3-1.1,0.4s-1.1,0.3-2.3,0.6s-1.9,0.5-2.4,0.7c-1,0.3-1.8,0.6-2.4,1s-1.1,0.7-1.5,1.1c-0.4,0.4-0.7,0.8-0.8,1.1
			c-0.2,0.5-0.3,1-0.3,1.5c0,0.8,0.2,1.5,0.7,2.1c0.5,0.6,1.1,1,1.8,1.2c0.7,0.2,1.6,0.3,2.6,0.3c0.6,0,1.3,0,1.9-0.1
			c0.7-0.1,1.6-0.3,2.7-0.7c-0.2,0.6-0.4,1.4-0.7,2.6c-1.1,0.2-1.9,0.3-2.6,0.4c-0.7,0.1-1.3,0.1-1.9,0.1c-2,0-3.6-0.2-4.7-0.7
			c-1.1-0.5-2-1.2-2.5-2.1c-0.6-1-0.8-2-0.8-3.1c0-0.7,0.1-1.3,0.3-1.8c0.2-0.6,0.5-1.1,0.8-1.5c0.3-0.5,0.8-0.9,1.4-1.4
			c0.6-0.5,1.3-0.8,1.9-1.1s1.5-0.6,2.4-0.9c0.9-0.3,2.4-0.7,4.4-1.1c0.6-0.1,1.2-0.3,1.6-0.4c0.5-0.2,0.9-0.3,1.2-0.4
			c0.4-0.1,0.7-0.3,0.9-0.5c0.3-0.2,0.5-0.4,0.7-0.7c0.2-0.3,0.4-0.6,0.5-0.9s0.2-0.6,0.2-0.9c0-0.7-0.2-1.3-0.7-1.8
			c-0.5-0.5-1.1-0.9-1.8-1.1s-1.6-0.3-2.7-0.3c-0.9,0-1.9,0.1-2.9,0.2s-1.9,0.3-2.6,0.5C36.8,282.9,35.9,283.2,34.9,283.6z"/>
	</g>
	<g id="XMLID_33_">
		<path id="XMLID_209_" class="st3" d="M57.9,302.3l0.2-4l0.6-15.4H56c0.1-0.7,0.1-1.6,0.2-2.7H59c0-1.4,0.1-2.4,0.1-3.1
			c0-0.7,0.1-1.4,0.3-1.9c0.2-0.6,0.4-1.1,0.7-1.5c0.3-0.4,0.7-0.8,1.2-1.1s1.2-0.6,1.9-0.7c0.7-0.2,1.5-0.2,2.4-0.2
			c1.2,0,2.6,0.2,4.2,0.5c0,0.9,0.1,1.8,0.2,2.8c-1.4-0.5-2.7-0.7-3.8-0.7c-0.6,0-1.1,0.1-1.5,0.2c-0.5,0.1-0.8,0.3-1.1,0.6
			c-0.3,0.2-0.5,0.6-0.7,1c-0.2,0.4-0.3,0.9-0.4,1.4c-0.1,0.5-0.1,1.2-0.1,1.9l0,0.9h6.1c-0.1,0.6-0.1,1.5-0.2,2.7h-5.9L62,294
			l-0.2,8.2c-0.9,0-1.6,0-2,0C59.4,302.3,58.8,302.3,57.9,302.3z"/>
		<path id="XMLID_177_" class="st4" d="M57.9,302.3l0.2-4l0.6-15.4H56c0.1-0.7,0.1-1.6,0.2-2.7H59c0-1.4,0.1-2.4,0.1-3.1
			c0-0.7,0.1-1.4,0.3-1.9c0.2-0.6,0.4-1.1,0.7-1.5c0.3-0.4,0.7-0.8,1.2-1.1s1.2-0.6,1.9-0.7c0.7-0.2,1.5-0.2,2.4-0.2
			c1.2,0,2.6,0.2,4.2,0.5c0,0.9,0.1,1.8,0.2,2.8c-1.4-0.5-2.7-0.7-3.8-0.7c-0.6,0-1.1,0.1-1.5,0.2c-0.5,0.1-0.8,0.3-1.1,0.6
			c-0.3,0.2-0.5,0.6-0.7,1c-0.2,0.4-0.3,0.9-0.4,1.4c-0.1,0.5-0.1,1.2-0.1,1.9l0,0.9h6.1c-0.1,0.6-0.1,1.5-0.2,2.7h-5.9L62,294
			l-0.2,8.2c-0.9,0-1.6,0-2,0C59.4,302.3,58.8,302.3,57.9,302.3z"/>
		<path id="XMLID_175_" class="st5" d="M57.9,302.3l0.2-4l0.6-15.4H56c0.1-0.7,0.1-1.6,0.2-2.7H59c0-1.4,0.1-2.4,0.1-3.1
			c0-0.7,0.1-1.4,0.3-1.9c0.2-0.6,0.4-1.1,0.7-1.5c0.3-0.4,0.7-0.8,1.2-1.1s1.2-0.6,1.9-0.7c0.7-0.2,1.5-0.2,2.4-0.2
			c1.2,0,2.6,0.2,4.2,0.5c0,0.9,0.1,1.8,0.2,2.8c-1.4-0.5-2.7-0.7-3.8-0.7c-0.6,0-1.1,0.1-1.5,0.2c-0.5,0.1-0.8,0.3-1.1,0.6
			c-0.3,0.2-0.5,0.6-0.7,1c-0.2,0.4-0.3,0.9-0.4,1.4c-0.1,0.5-0.1,1.2-0.1,1.9l0,0.9h6.1c-0.1,0.6-0.1,1.5-0.2,2.7h-5.9L62,294
			l-0.2,8.2c-0.9,0-1.6,0-2,0C59.4,302.3,58.8,302.3,57.9,302.3z"/>
	</g>
	<g id="XMLID_93_">
		<path id="XMLID_206_" class="st3" d="M88.7,298.8c-0.2,0.8-0.4,1.8-0.5,3.1c-1.4,0.4-2.6,0.6-3.6,0.7c-1,0.1-2.1,0.2-3.1,0.2
			c-1.8,0-3.5-0.2-4.9-0.7c-1.5-0.4-2.7-1.2-3.7-2.3c-1-1.1-1.8-2.3-2.2-3.7c-0.5-1.4-0.7-2.9-0.7-4.4c0-2.2,0.4-4.2,1.2-6.1
			c0.8-1.9,2.1-3.3,3.8-4.4c1.7-1.1,3.8-1.6,6.4-1.6c1.3,0,2.6,0.2,3.8,0.6c1.2,0.4,2.2,1,3,1.8c0.8,0.8,1.4,1.8,1.9,2.9
			c0.4,1.2,0.7,2.4,0.7,3.8c0,0.5,0,1-0.1,1.5H73.7c-0.1,0.8-0.1,1.4-0.1,1.8c0,1.5,0.3,2.9,1,4.2c0.6,1.3,1.6,2.3,2.8,2.9
			c1.3,0.7,2.7,1,4.3,1C83.7,300.2,86,299.7,88.7,298.8z M73.9,288.4H87c0-0.9-0.1-1.6-0.2-2.1c-0.1-0.5-0.3-1-0.6-1.6
			c-0.3-0.5-0.7-1-1.1-1.4c-0.5-0.4-1-0.7-1.7-0.9c-0.7-0.2-1.4-0.3-2.2-0.3c-0.8,0-1.6,0.1-2.4,0.3c-0.8,0.2-1.4,0.6-2,1
			c-0.6,0.4-1.1,0.9-1.5,1.4c-0.4,0.5-0.7,1.1-0.9,1.6C74.3,286.8,74.1,287.5,73.9,288.4z"/>
		<path id="XMLID_203_" class="st4" d="M88.7,298.8c-0.2,0.8-0.4,1.8-0.5,3.1c-1.4,0.4-2.6,0.6-3.6,0.7c-1,0.1-2.1,0.2-3.1,0.2
			c-1.8,0-3.5-0.2-4.9-0.7c-1.5-0.4-2.7-1.2-3.7-2.3c-1-1.1-1.8-2.3-2.2-3.7c-0.5-1.4-0.7-2.9-0.7-4.4c0-2.2,0.4-4.2,1.2-6.1
			c0.8-1.9,2.1-3.3,3.8-4.4c1.7-1.1,3.8-1.6,6.4-1.6c1.3,0,2.6,0.2,3.8,0.6c1.2,0.4,2.2,1,3,1.8c0.8,0.8,1.4,1.8,1.9,2.9
			c0.4,1.2,0.7,2.4,0.7,3.8c0,0.5,0,1-0.1,1.5H73.7c-0.1,0.8-0.1,1.4-0.1,1.8c0,1.5,0.3,2.9,1,4.2c0.6,1.3,1.6,2.3,2.8,2.9
			c1.3,0.7,2.7,1,4.3,1C83.7,300.2,86,299.7,88.7,298.8z M73.9,288.4H87c0-0.9-0.1-1.6-0.2-2.1c-0.1-0.5-0.3-1-0.6-1.6
			c-0.3-0.5-0.7-1-1.1-1.4c-0.5-0.4-1-0.7-1.7-0.9c-0.7-0.2-1.4-0.3-2.2-0.3c-0.8,0-1.6,0.1-2.4,0.3c-0.8,0.2-1.4,0.6-2,1
			c-0.6,0.4-1.1,0.9-1.5,1.4c-0.4,0.5-0.7,1.1-0.9,1.6C74.3,286.8,74.1,287.5,73.9,288.4z"/>
		<path id="XMLID_200_" class="st5" d="M88.7,298.8c-0.2,0.8-0.4,1.8-0.5,3.1c-1.4,0.4-2.6,0.6-3.6,0.7c-1,0.1-2.1,0.2-3.1,0.2
			c-1.8,0-3.5-0.2-4.9-0.7c-1.5-0.4-2.7-1.2-3.7-2.3c-1-1.1-1.8-2.3-2.2-3.7c-0.5-1.4-0.7-2.9-0.7-4.4c0-2.2,0.4-4.2,1.2-6.1
			c0.8-1.9,2.1-3.3,3.8-4.4c1.7-1.1,3.8-1.6,6.4-1.6c1.3,0,2.6,0.2,3.8,0.6c1.2,0.4,2.2,1,3,1.8c0.8,0.8,1.4,1.8,1.9,2.9
			c0.4,1.2,0.7,2.4,0.7,3.8c0,0.5,0,1-0.1,1.5H73.7c-0.1,0.8-0.1,1.4-0.1,1.8c0,1.5,0.3,2.9,1,4.2c0.6,1.3,1.6,2.3,2.8,2.9
			c1.3,0.7,2.7,1,4.3,1C83.7,300.2,86,299.7,88.7,298.8z M73.9,288.4H87c0-0.9-0.1-1.6-0.2-2.1c-0.1-0.5-0.3-1-0.6-1.6
			c-0.3-0.5-0.7-1-1.1-1.4c-0.5-0.4-1-0.7-1.7-0.9c-0.7-0.2-1.4-0.3-2.2-0.3c-0.8,0-1.6,0.1-2.4,0.3c-0.8,0.2-1.4,0.6-2,1
			c-0.6,0.4-1.1,0.9-1.5,1.4c-0.4,0.5-0.7,1.1-0.9,1.6C74.3,286.8,74.1,287.5,73.9,288.4z"/>
	</g>
	<g id="XMLID_108_">
		<path id="XMLID_196_" class="st3" d="M126.3,302.3c-0.9,0-1.5,0-1.8,0c-0.4,0-1,0-1.9,0l0.3-4.7c-0.5,0.8-0.9,1.5-1.2,1.9
			c-0.3,0.4-0.7,0.9-1.2,1.3s-1,0.7-1.6,1.1c-0.6,0.3-1.3,0.6-2,0.7c-0.7,0.2-1.5,0.3-2.4,0.3c-1.4,0-2.7-0.3-4-0.8
			c-1.2-0.5-2.3-1.2-3.1-2.2c-0.9-0.9-1.5-2.1-1.9-3.3c-0.4-1.3-0.6-2.6-0.6-4c0-1.8,0.4-3.7,1.1-5.4c0.7-1.8,1.7-3.3,3-4.4
			c1.3-1.2,2.8-2,4.4-2.4c1.6-0.5,3.4-0.7,5.3-0.7c1.3,0,2.8,0.1,4.6,0.4c0.1-1.6,0.1-2.9,0.1-4c0-1.5,0-2.7,0-3.7l2,0
			c0.5,0,1.2,0,2,0l-0.6,12.4l-0.4,14.2V302.3z M123.1,282.8c-0.9-0.3-1.6-0.4-2.2-0.5s-1.2-0.1-1.8-0.1c-1.4,0-2.7,0.2-4,0.6
			c-1.3,0.4-2.4,1.1-3.4,2c-1,0.9-1.7,2.1-2.2,3.5c-0.5,1.4-0.8,2.8-0.8,4.2s0.2,2.6,0.7,3.8c0.5,1.2,1.3,2.1,2.3,2.8
			c1,0.7,2.3,1,3.6,1c0.8,0,1.6-0.1,2.3-0.3c0.7-0.2,1.3-0.6,1.9-1c0.6-0.4,1.1-1,1.6-1.8c0.5-0.7,0.9-1.6,1.2-2.6
			c0.2-0.9,0.4-2,0.5-3.5c0.1-0.7,0.1-2.1,0.2-4.1L123.1,282.8z"/>
		<path id="XMLID_193_" class="st4" d="M126.3,302.3c-0.9,0-1.5,0-1.8,0c-0.4,0-1,0-1.9,0l0.3-4.7c-0.5,0.8-0.9,1.5-1.2,1.9
			c-0.3,0.4-0.7,0.9-1.2,1.3s-1,0.7-1.6,1.1c-0.6,0.3-1.3,0.6-2,0.7c-0.7,0.2-1.5,0.3-2.4,0.3c-1.4,0-2.7-0.3-4-0.8
			c-1.2-0.5-2.3-1.2-3.1-2.2c-0.9-0.9-1.5-2.1-1.9-3.3c-0.4-1.3-0.6-2.6-0.6-4c0-1.8,0.4-3.7,1.1-5.4c0.7-1.8,1.7-3.3,3-4.4
			c1.3-1.2,2.8-2,4.4-2.4c1.6-0.5,3.4-0.7,5.3-0.7c1.3,0,2.8,0.1,4.6,0.4c0.1-1.6,0.1-2.9,0.1-4c0-1.5,0-2.7,0-3.7l2,0
			c0.5,0,1.2,0,2,0l-0.6,12.4l-0.4,14.2V302.3z M123.1,282.8c-0.9-0.3-1.6-0.4-2.2-0.5s-1.2-0.1-1.8-0.1c-1.4,0-2.7,0.2-4,0.6
			c-1.3,0.4-2.4,1.1-3.4,2c-1,0.9-1.7,2.1-2.2,3.5c-0.5,1.4-0.8,2.8-0.8,4.2s0.2,2.6,0.7,3.8c0.5,1.2,1.3,2.1,2.3,2.8
			c1,0.7,2.3,1,3.6,1c0.8,0,1.6-0.1,2.3-0.3c0.7-0.2,1.3-0.6,1.9-1c0.6-0.4,1.1-1,1.6-1.8c0.5-0.7,0.9-1.6,1.2-2.6
			c0.2-0.9,0.4-2,0.5-3.5c0.1-0.7,0.1-2.1,0.2-4.1L123.1,282.8z"/>
		<path id="XMLID_190_" class="st5" d="M126.3,302.3c-0.9,0-1.5,0-1.8,0c-0.4,0-1,0-1.9,0l0.3-4.7c-0.5,0.8-0.9,1.5-1.2,1.9
			c-0.3,0.4-0.7,0.9-1.2,1.3s-1,0.7-1.6,1.1c-0.6,0.3-1.3,0.6-2,0.7c-0.7,0.2-1.5,0.3-2.4,0.3c-1.4,0-2.7-0.3-4-0.8
			c-1.2-0.5-2.3-1.2-3.1-2.2c-0.9-0.9-1.5-2.1-1.9-3.3c-0.4-1.3-0.6-2.6-0.6-4c0-1.8,0.4-3.7,1.1-5.4c0.7-1.8,1.7-3.3,3-4.4
			c1.3-1.2,2.8-2,4.4-2.4c1.6-0.5,3.4-0.7,5.3-0.7c1.3,0,2.8,0.1,4.6,0.4c0.1-1.6,0.1-2.9,0.1-4c0-1.5,0-2.7,0-3.7l2,0
			c0.5,0,1.2,0,2,0l-0.6,12.4l-0.4,14.2V302.3z M123.1,282.8c-0.9-0.3-1.6-0.4-2.2-0.5s-1.2-0.1-1.8-0.1c-1.4,0-2.7,0.2-4,0.6
			c-1.3,0.4-2.4,1.1-3.4,2c-1,0.9-1.7,2.1-2.2,3.5c-0.5,1.4-0.8,2.8-0.8,4.2s0.2,2.6,0.7,3.8c0.5,1.2,1.3,2.1,2.3,2.8
			c1,0.7,2.3,1,3.6,1c0.8,0,1.6-0.1,2.3-0.3c0.7-0.2,1.3-0.6,1.9-1c0.6-0.4,1.1-1,1.6-1.8c0.5-0.7,0.9-1.6,1.2-2.6
			c0.2-0.9,0.4-2,0.5-3.5c0.1-0.7,0.1-2.1,0.2-4.1L123.1,282.8z"/>
	</g>
	<g id="XMLID_111_">
		<path id="XMLID_186_" class="st3" d="M150.3,298.8c-0.2,0.8-0.4,1.8-0.5,3.1c-1.4,0.4-2.6,0.6-3.6,0.7c-1,0.1-2.1,0.2-3.1,0.2
			c-1.8,0-3.5-0.2-4.9-0.7c-1.5-0.4-2.7-1.2-3.7-2.3c-1-1.1-1.8-2.3-2.2-3.7c-0.5-1.4-0.7-2.9-0.7-4.4c0-2.2,0.4-4.2,1.2-6.1
			c0.8-1.9,2.1-3.3,3.8-4.4c1.7-1.1,3.8-1.6,6.4-1.6c1.3,0,2.6,0.2,3.8,0.6c1.2,0.4,2.2,1,3,1.8c0.8,0.8,1.4,1.8,1.9,2.9
			c0.4,1.2,0.7,2.4,0.7,3.8c0,0.5,0,1-0.1,1.5h-16.7c-0.1,0.8-0.1,1.4-0.1,1.8c0,1.5,0.3,2.9,1,4.2c0.6,1.3,1.6,2.3,2.8,2.9
			c1.3,0.7,2.7,1,4.3,1C145.3,300.2,147.6,299.7,150.3,298.8z M135.5,288.4h13.1c0-0.9-0.1-1.6-0.2-2.1c-0.1-0.5-0.3-1-0.6-1.6
			c-0.3-0.5-0.7-1-1.1-1.4c-0.5-0.4-1-0.7-1.7-0.9c-0.7-0.2-1.4-0.3-2.2-0.3c-0.8,0-1.6,0.1-2.4,0.3c-0.8,0.2-1.4,0.6-2,1
			c-0.6,0.4-1.1,0.9-1.5,1.4c-0.4,0.5-0.7,1.1-0.9,1.6C135.9,286.8,135.7,287.5,135.5,288.4z"/>
		<path id="XMLID_183_" class="st4" d="M150.3,298.8c-0.2,0.8-0.4,1.8-0.5,3.1c-1.4,0.4-2.6,0.6-3.6,0.7c-1,0.1-2.1,0.2-3.1,0.2
			c-1.8,0-3.5-0.2-4.9-0.7c-1.5-0.4-2.7-1.2-3.7-2.3c-1-1.1-1.8-2.3-2.2-3.7c-0.5-1.4-0.7-2.9-0.7-4.4c0-2.2,0.4-4.2,1.2-6.1
			c0.8-1.9,2.1-3.3,3.8-4.4c1.7-1.1,3.8-1.6,6.4-1.6c1.3,0,2.6,0.2,3.8,0.6c1.2,0.4,2.2,1,3,1.8c0.8,0.8,1.4,1.8,1.9,2.9
			c0.4,1.2,0.7,2.4,0.7,3.8c0,0.5,0,1-0.1,1.5h-16.7c-0.1,0.8-0.1,1.4-0.1,1.8c0,1.5,0.3,2.9,1,4.2c0.6,1.3,1.6,2.3,2.8,2.9
			c1.3,0.7,2.7,1,4.3,1C145.3,300.2,147.6,299.7,150.3,298.8z M135.5,288.4h13.1c0-0.9-0.1-1.6-0.2-2.1c-0.1-0.5-0.3-1-0.6-1.6
			c-0.3-0.5-0.7-1-1.1-1.4c-0.5-0.4-1-0.7-1.7-0.9c-0.7-0.2-1.4-0.3-2.2-0.3c-0.8,0-1.6,0.1-2.4,0.3c-0.8,0.2-1.4,0.6-2,1
			c-0.6,0.4-1.1,0.9-1.5,1.4c-0.4,0.5-0.7,1.1-0.9,1.6C135.9,286.8,135.7,287.5,135.5,288.4z"/>
		<path id="XMLID_180_" class="st5" d="M150.3,298.8c-0.2,0.8-0.4,1.8-0.5,3.1c-1.4,0.4-2.6,0.6-3.6,0.7c-1,0.1-2.1,0.2-3.1,0.2
			c-1.8,0-3.5-0.2-4.9-0.7c-1.5-0.4-2.7-1.2-3.7-2.3c-1-1.1-1.8-2.3-2.2-3.7c-0.5-1.4-0.7-2.9-0.7-4.4c0-2.2,0.4-4.2,1.2-6.1
			c0.8-1.9,2.1-3.3,3.8-4.4c1.7-1.1,3.8-1.6,6.4-1.6c1.3,0,2.6,0.2,3.8,0.6c1.2,0.4,2.2,1,3,1.8c0.8,0.8,1.4,1.8,1.9,2.9
			c0.4,1.2,0.7,2.4,0.7,3.8c0,0.5,0,1-0.1,1.5h-16.7c-0.1,0.8-0.1,1.4-0.1,1.8c0,1.5,0.3,2.9,1,4.2c0.6,1.3,1.6,2.3,2.8,2.9
			c1.3,0.7,2.7,1,4.3,1C145.3,300.2,147.6,299.7,150.3,298.8z M135.5,288.4h13.1c0-0.9-0.1-1.6-0.2-2.1c-0.1-0.5-0.3-1-0.6-1.6
			c-0.3-0.5-0.7-1-1.1-1.4c-0.5-0.4-1-0.7-1.7-0.9c-0.7-0.2-1.4-0.3-2.2-0.3c-0.8,0-1.6,0.1-2.4,0.3c-0.8,0.2-1.4,0.6-2,1
			c-0.6,0.4-1.1,0.9-1.5,1.4c-0.4,0.5-0.7,1.1-0.9,1.6C135.9,286.8,135.7,287.5,135.5,288.4z"/>
	</g>
	<g id="XMLID_114_">
		<path id="XMLID_172_" class="st3" d="M167.5,302.3c0.3-3.8,0.6-8.4,0.9-13.8s0.4-10.8,0.4-16.1c1,0,1.8,0,2.3,0l2,0l-0.7,13.9
			l-0.5,13.1l4.2,0c3.1,0,5.3,0,6.5,0c1.3,0,2.5-0.1,3.7-0.1c-0.1,0.9-0.2,2-0.2,3.1c-3.3,0-6.2,0-8.8,0L167.5,302.3z"/>
		<path id="XMLID_170_" class="st4" d="M167.5,302.3c0.3-3.8,0.6-8.4,0.9-13.8s0.4-10.8,0.4-16.1c1,0,1.8,0,2.3,0l2,0l-0.7,13.9
			l-0.5,13.1l4.2,0c3.1,0,5.3,0,6.5,0c1.3,0,2.5-0.1,3.7-0.1c-0.1,0.9-0.2,2-0.2,3.1c-3.3,0-6.2,0-8.8,0L167.5,302.3z"/>
		<path id="XMLID_168_" class="st5" d="M167.5,302.3c0.3-3.8,0.6-8.4,0.9-13.8s0.4-10.8,0.4-16.1c1,0,1.8,0,2.3,0l2,0l-0.7,13.9
			l-0.5,13.1l4.2,0c3.1,0,5.3,0,6.5,0c1.3,0,2.5-0.1,3.7-0.1c-0.1,0.9-0.2,2-0.2,3.1c-3.3,0-6.2,0-8.8,0L167.5,302.3z"/>
	</g>
	<g id="XMLID_116_">
		<path id="XMLID_165_" class="st3" d="M190.6,283.6c0.1-0.6,0.3-1.6,0.4-2.8c1.8-0.5,3.3-0.8,4.6-0.9c1.3-0.2,2.6-0.3,3.8-0.3
			c1.3,0,2.5,0.1,3.7,0.4c1.1,0.2,2.1,0.6,2.9,1.2c0.8,0.5,1.3,1.2,1.5,1.9c0.2,0.7,0.4,1.5,0.4,2.3c0,1-0.1,2.7-0.2,5.1
			s-0.3,4.6-0.3,6.6c-0.1,2-0.1,3.8-0.1,5.4c-0.8,0-1.4,0-1.9,0c-0.5,0-1.1,0-2,0l0.5-6l0.3-7.1c-0.5,0.4-0.9,0.7-1.2,0.8
			c-0.3,0.2-0.5,0.3-0.9,0.4s-0.7,0.3-1.1,0.4c-0.4,0.1-1.1,0.3-2.3,0.6s-1.9,0.5-2.4,0.7c-1,0.3-1.8,0.6-2.4,1s-1.1,0.7-1.5,1.1
			c-0.4,0.4-0.7,0.8-0.8,1.1c-0.2,0.5-0.3,1-0.3,1.5c0,0.8,0.2,1.5,0.7,2.1c0.5,0.6,1.1,1,1.8,1.2c0.7,0.2,1.6,0.3,2.6,0.3
			c0.6,0,1.3,0,1.9-0.1c0.7-0.1,1.6-0.3,2.7-0.7c-0.2,0.6-0.4,1.4-0.7,2.6c-1.1,0.2-1.9,0.3-2.6,0.4c-0.7,0.1-1.3,0.1-1.9,0.1
			c-2,0-3.6-0.2-4.7-0.7c-1.1-0.5-2-1.2-2.5-2.1c-0.6-1-0.8-2-0.8-3.1c0-0.7,0.1-1.3,0.3-1.8c0.2-0.6,0.5-1.1,0.8-1.5
			c0.3-0.5,0.8-0.9,1.4-1.4c0.6-0.5,1.3-0.8,1.9-1.1s1.5-0.6,2.4-0.9c0.9-0.3,2.4-0.7,4.4-1.1c0.6-0.1,1.2-0.3,1.6-0.4
			s0.9-0.3,1.2-0.4c0.4-0.1,0.7-0.3,0.9-0.5s0.5-0.4,0.7-0.7c0.2-0.3,0.4-0.6,0.5-0.9c0.1-0.3,0.2-0.6,0.2-0.9
			c0-0.7-0.2-1.3-0.7-1.8c-0.5-0.5-1.1-0.9-1.8-1.1c-0.8-0.2-1.6-0.3-2.7-0.3c-0.9,0-1.9,0.1-2.9,0.2s-1.9,0.3-2.6,0.5
			C192.6,282.9,191.7,283.2,190.6,283.6z"/>
		<path id="XMLID_163_" class="st4" d="M190.6,283.6c0.1-0.6,0.3-1.6,0.4-2.8c1.8-0.5,3.3-0.8,4.6-0.9c1.3-0.2,2.6-0.3,3.8-0.3
			c1.3,0,2.5,0.1,3.7,0.4c1.1,0.2,2.1,0.6,2.9,1.2c0.8,0.5,1.3,1.2,1.5,1.9c0.2,0.7,0.4,1.5,0.4,2.3c0,1-0.1,2.7-0.2,5.1
			s-0.3,4.6-0.3,6.6c-0.1,2-0.1,3.8-0.1,5.4c-0.8,0-1.4,0-1.9,0c-0.5,0-1.1,0-2,0l0.5-6l0.3-7.1c-0.5,0.4-0.9,0.7-1.2,0.8
			c-0.3,0.2-0.5,0.3-0.9,0.4s-0.7,0.3-1.1,0.4c-0.4,0.1-1.1,0.3-2.3,0.6s-1.9,0.5-2.4,0.7c-1,0.3-1.8,0.6-2.4,1s-1.1,0.7-1.5,1.1
			c-0.4,0.4-0.7,0.8-0.8,1.1c-0.2,0.5-0.3,1-0.3,1.5c0,0.8,0.2,1.5,0.7,2.1c0.5,0.6,1.1,1,1.8,1.2c0.7,0.2,1.6,0.3,2.6,0.3
			c0.6,0,1.3,0,1.9-0.1c0.7-0.1,1.6-0.3,2.7-0.7c-0.2,0.6-0.4,1.4-0.7,2.6c-1.1,0.2-1.9,0.3-2.6,0.4c-0.7,0.1-1.3,0.1-1.9,0.1
			c-2,0-3.6-0.2-4.7-0.7c-1.1-0.5-2-1.2-2.5-2.1c-0.6-1-0.8-2-0.8-3.1c0-0.7,0.1-1.3,0.3-1.8c0.2-0.6,0.5-1.1,0.8-1.5
			c0.3-0.5,0.8-0.9,1.4-1.4c0.6-0.5,1.3-0.8,1.9-1.1s1.5-0.6,2.4-0.9c0.9-0.3,2.4-0.7,4.4-1.1c0.6-0.1,1.2-0.3,1.6-0.4
			s0.9-0.3,1.2-0.4c0.4-0.1,0.7-0.3,0.9-0.5s0.5-0.4,0.7-0.7c0.2-0.3,0.4-0.6,0.5-0.9c0.1-0.3,0.2-0.6,0.2-0.9
			c0-0.7-0.2-1.3-0.7-1.8c-0.5-0.5-1.1-0.9-1.8-1.1c-0.8-0.2-1.6-0.3-2.7-0.3c-0.9,0-1.9,0.1-2.9,0.2s-1.9,0.3-2.6,0.5
			C192.6,282.9,191.7,283.2,190.6,283.6z"/>
		<path id="XMLID_161_" class="st5" d="M190.6,283.6c0.1-0.6,0.3-1.6,0.4-2.8c1.8-0.5,3.3-0.8,4.6-0.9c1.3-0.2,2.6-0.3,3.8-0.3
			c1.3,0,2.5,0.1,3.7,0.4c1.1,0.2,2.1,0.6,2.9,1.2c0.8,0.5,1.3,1.2,1.5,1.9c0.2,0.7,0.4,1.5,0.4,2.3c0,1-0.1,2.7-0.2,5.1
			s-0.3,4.6-0.3,6.6c-0.1,2-0.1,3.8-0.1,5.4c-0.8,0-1.4,0-1.9,0c-0.5,0-1.1,0-2,0l0.5-6l0.3-7.1c-0.5,0.4-0.9,0.7-1.2,0.8
			c-0.3,0.2-0.5,0.3-0.9,0.4s-0.7,0.3-1.1,0.4c-0.4,0.1-1.1,0.3-2.3,0.6s-1.9,0.5-2.4,0.7c-1,0.3-1.8,0.6-2.4,1s-1.1,0.7-1.5,1.1
			c-0.4,0.4-0.7,0.8-0.8,1.1c-0.2,0.5-0.3,1-0.3,1.5c0,0.8,0.2,1.5,0.7,2.1c0.5,0.6,1.1,1,1.8,1.2c0.7,0.2,1.6,0.3,2.6,0.3
			c0.6,0,1.3,0,1.9-0.1c0.7-0.1,1.6-0.3,2.7-0.7c-0.2,0.6-0.4,1.4-0.7,2.6c-1.1,0.2-1.9,0.3-2.6,0.4c-0.7,0.1-1.3,0.1-1.9,0.1
			c-2,0-3.6-0.2-4.7-0.7c-1.1-0.5-2-1.2-2.5-2.1c-0.6-1-0.8-2-0.8-3.1c0-0.7,0.1-1.3,0.3-1.8c0.2-0.6,0.5-1.1,0.8-1.5
			c0.3-0.5,0.8-0.9,1.4-1.4c0.6-0.5,1.3-0.8,1.9-1.1s1.5-0.6,2.4-0.9c0.9-0.3,2.4-0.7,4.4-1.1c0.6-0.1,1.2-0.3,1.6-0.4
			s0.9-0.3,1.2-0.4c0.4-0.1,0.7-0.3,0.9-0.5s0.5-0.4,0.7-0.7c0.2-0.3,0.4-0.6,0.5-0.9c0.1-0.3,0.2-0.6,0.2-0.9
			c0-0.7-0.2-1.3-0.7-1.8c-0.5-0.5-1.1-0.9-1.8-1.1c-0.8-0.2-1.6-0.3-2.7-0.3c-0.9,0-1.9,0.1-2.9,0.2s-1.9,0.3-2.6,0.5
			C192.6,282.9,191.7,283.2,190.6,283.6z"/>
	</g>
	<g id="XMLID_118_">
		<path id="XMLID_158_" class="st3" d="M224.3,299.4c-0.2,0.7-0.3,1.7-0.5,2.8c-1,0.2-1.8,0.4-2.4,0.4c-0.6,0.1-1.1,0.1-1.7,0.1
			c-1.3,0-2.3-0.2-3.1-0.5c-0.8-0.3-1.4-0.9-1.8-1.6s-0.6-1.7-0.6-2.9c0-0.2,0-0.4,0-0.9c0-0.4,0.1-1.8,0.2-4.3l0.5-9.8H212
			c0.1-0.6,0.1-1.5,0.2-2.6h3c0.1-0.8,0.1-2.2,0.2-4.2c1.4-0.3,2.5-0.5,3.5-0.7c-0.1,2.2-0.2,3.8-0.2,4.9h6.1
			c-0.1,0.9-0.1,1.8-0.1,2.6h-6.1l-0.6,12.3l0,0.9c0,1.1,0.1,1.9,0.4,2.4c0.2,0.5,0.6,0.9,1.1,1.1s1,0.4,1.5,0.4
			c0.4,0,0.8,0,1.2-0.1C222.5,299.9,223.2,299.7,224.3,299.4z"/>
		<path id="XMLID_156_" class="st4" d="M224.3,299.4c-0.2,0.7-0.3,1.7-0.5,2.8c-1,0.2-1.8,0.4-2.4,0.4c-0.6,0.1-1.1,0.1-1.7,0.1
			c-1.3,0-2.3-0.2-3.1-0.5c-0.8-0.3-1.4-0.9-1.8-1.6s-0.6-1.7-0.6-2.9c0-0.2,0-0.4,0-0.9c0-0.4,0.1-1.8,0.2-4.3l0.5-9.8H212
			c0.1-0.6,0.1-1.5,0.2-2.6h3c0.1-0.8,0.1-2.2,0.2-4.2c1.4-0.3,2.5-0.5,3.5-0.7c-0.1,2.2-0.2,3.8-0.2,4.9h6.1
			c-0.1,0.9-0.1,1.8-0.1,2.6h-6.1l-0.6,12.3l0,0.9c0,1.1,0.1,1.9,0.4,2.4c0.2,0.5,0.6,0.9,1.1,1.1s1,0.4,1.5,0.4
			c0.4,0,0.8,0,1.2-0.1C222.5,299.9,223.2,299.7,224.3,299.4z"/>
		<path id="XMLID_154_" class="st5" d="M224.3,299.4c-0.2,0.7-0.3,1.7-0.5,2.8c-1,0.2-1.8,0.4-2.4,0.4c-0.6,0.1-1.1,0.1-1.7,0.1
			c-1.3,0-2.3-0.2-3.1-0.5c-0.8-0.3-1.4-0.9-1.8-1.6s-0.6-1.7-0.6-2.9c0-0.2,0-0.4,0-0.9c0-0.4,0.1-1.8,0.2-4.3l0.5-9.8H212
			c0.1-0.6,0.1-1.5,0.2-2.6h3c0.1-0.8,0.1-2.2,0.2-4.2c1.4-0.3,2.5-0.5,3.5-0.7c-0.1,2.2-0.2,3.8-0.2,4.9h6.1
			c-0.1,0.9-0.1,1.8-0.1,2.6h-6.1l-0.6,12.3l0,0.9c0,1.1,0.1,1.9,0.4,2.4c0.2,0.5,0.6,0.9,1.1,1.1s1,0.4,1.5,0.4
			c0.4,0,0.8,0,1.2-0.1C222.5,299.9,223.2,299.7,224.3,299.4z"/>
	</g>
	<g id="XMLID_120_">
		<path id="XMLID_151_" class="st3" d="M238.7,299.4c-0.2,0.7-0.3,1.7-0.5,2.8c-1,0.2-1.8,0.4-2.4,0.4c-0.6,0.1-1.1,0.1-1.7,0.1
			c-1.3,0-2.3-0.2-3.1-0.5c-0.8-0.3-1.4-0.9-1.8-1.6s-0.6-1.7-0.6-2.9c0-0.2,0-0.4,0-0.9c0-0.4,0.1-1.8,0.2-4.3l0.5-9.8h-2.9
			c0.1-0.6,0.1-1.5,0.2-2.6h3c0.1-0.8,0.1-2.2,0.2-4.2c1.4-0.3,2.5-0.5,3.5-0.7c-0.1,2.2-0.2,3.8-0.2,4.9h6.1
			c-0.1,0.9-0.1,1.8-0.1,2.6h-6.1l-0.6,12.3l0,0.9c0,1.1,0.1,1.9,0.4,2.4c0.2,0.5,0.6,0.9,1.1,1.1s1,0.4,1.5,0.4
			c0.4,0,0.8,0,1.2-0.1C236.9,299.9,237.6,299.7,238.7,299.4z"/>
		<path id="XMLID_139_" class="st4" d="M238.7,299.4c-0.2,0.7-0.3,1.7-0.5,2.8c-1,0.2-1.8,0.4-2.4,0.4c-0.6,0.1-1.1,0.1-1.7,0.1
			c-1.3,0-2.3-0.2-3.1-0.5c-0.8-0.3-1.4-0.9-1.8-1.6s-0.6-1.7-0.6-2.9c0-0.2,0-0.4,0-0.9c0-0.4,0.1-1.8,0.2-4.3l0.5-9.8h-2.9
			c0.1-0.6,0.1-1.5,0.2-2.6h3c0.1-0.8,0.1-2.2,0.2-4.2c1.4-0.3,2.5-0.5,3.5-0.7c-0.1,2.2-0.2,3.8-0.2,4.9h6.1
			c-0.1,0.9-0.1,1.8-0.1,2.6h-6.1l-0.6,12.3l0,0.9c0,1.1,0.1,1.9,0.4,2.4c0.2,0.5,0.6,0.9,1.1,1.1s1,0.4,1.5,0.4
			c0.4,0,0.8,0,1.2-0.1C236.9,299.9,237.6,299.7,238.7,299.4z"/>
		<path id="XMLID_137_" class="st5" d="M238.7,299.4c-0.2,0.7-0.3,1.7-0.5,2.8c-1,0.2-1.8,0.4-2.4,0.4c-0.6,0.1-1.1,0.1-1.7,0.1
			c-1.3,0-2.3-0.2-3.1-0.5c-0.8-0.3-1.4-0.9-1.8-1.6s-0.6-1.7-0.6-2.9c0-0.2,0-0.4,0-0.9c0-0.4,0.1-1.8,0.2-4.3l0.5-9.8h-2.9
			c0.1-0.6,0.1-1.5,0.2-2.6h3c0.1-0.8,0.1-2.2,0.2-4.2c1.4-0.3,2.5-0.5,3.5-0.7c-0.1,2.2-0.2,3.8-0.2,4.9h6.1
			c-0.1,0.9-0.1,1.8-0.1,2.6h-6.1l-0.6,12.3l0,0.9c0,1.1,0.1,1.9,0.4,2.4c0.2,0.5,0.6,0.9,1.1,1.1s1,0.4,1.5,0.4
			c0.4,0,0.8,0,1.2-0.1C236.9,299.9,237.6,299.7,238.7,299.4z"/>
	</g>
	<g id="XMLID_122_">
		<path id="XMLID_148_" class="st3" d="M260.1,298.8c-0.2,0.8-0.4,1.8-0.5,3.1c-1.4,0.4-2.6,0.6-3.6,0.7s-2.1,0.2-3.1,0.2
			c-1.8,0-3.5-0.2-4.9-0.7c-1.5-0.4-2.7-1.2-3.7-2.3c-1-1.1-1.8-2.3-2.2-3.7c-0.5-1.4-0.7-2.9-0.7-4.4c0-2.2,0.4-4.2,1.2-6.1
			c0.8-1.9,2.1-3.3,3.8-4.4c1.7-1.1,3.8-1.6,6.4-1.6c1.3,0,2.6,0.2,3.8,0.6c1.2,0.4,2.2,1,3,1.8c0.8,0.8,1.4,1.8,1.9,2.9
			c0.4,1.2,0.7,2.4,0.7,3.8c0,0.5,0,1-0.1,1.5h-16.7c-0.1,0.8-0.1,1.4-0.1,1.8c0,1.5,0.3,2.9,1,4.2c0.6,1.3,1.6,2.3,2.8,2.9
			s2.7,1,4.3,1C255.1,300.2,257.4,299.7,260.1,298.8z M245.3,288.4h13.1c0-0.9-0.1-1.6-0.2-2.1c-0.1-0.5-0.3-1-0.6-1.6
			c-0.3-0.5-0.7-1-1.1-1.4c-0.5-0.4-1-0.7-1.7-0.9c-0.7-0.2-1.4-0.3-2.2-0.3c-0.8,0-1.6,0.1-2.4,0.3c-0.8,0.2-1.4,0.6-2,1
			c-0.6,0.4-1.1,0.9-1.5,1.4c-0.4,0.5-0.7,1.1-0.9,1.6C245.7,286.8,245.5,287.5,245.3,288.4z"/>
		<path id="XMLID_145_" class="st4" d="M260.1,298.8c-0.2,0.8-0.4,1.8-0.5,3.1c-1.4,0.4-2.6,0.6-3.6,0.7s-2.1,0.2-3.1,0.2
			c-1.8,0-3.5-0.2-4.9-0.7c-1.5-0.4-2.7-1.2-3.7-2.3c-1-1.1-1.8-2.3-2.2-3.7c-0.5-1.4-0.7-2.9-0.7-4.4c0-2.2,0.4-4.2,1.2-6.1
			c0.8-1.9,2.1-3.3,3.8-4.4c1.7-1.1,3.8-1.6,6.4-1.6c1.3,0,2.6,0.2,3.8,0.6c1.2,0.4,2.2,1,3,1.8c0.8,0.8,1.4,1.8,1.9,2.9
			c0.4,1.2,0.7,2.4,0.7,3.8c0,0.5,0,1-0.1,1.5h-16.7c-0.1,0.8-0.1,1.4-0.1,1.8c0,1.5,0.3,2.9,1,4.2c0.6,1.3,1.6,2.3,2.8,2.9
			s2.7,1,4.3,1C255.1,300.2,257.4,299.7,260.1,298.8z M245.3,288.4h13.1c0-0.9-0.1-1.6-0.2-2.1c-0.1-0.5-0.3-1-0.6-1.6
			c-0.3-0.5-0.7-1-1.1-1.4c-0.5-0.4-1-0.7-1.7-0.9c-0.7-0.2-1.4-0.3-2.2-0.3c-0.8,0-1.6,0.1-2.4,0.3c-0.8,0.2-1.4,0.6-2,1
			c-0.6,0.4-1.1,0.9-1.5,1.4c-0.4,0.5-0.7,1.1-0.9,1.6C245.7,286.8,245.5,287.5,245.3,288.4z"/>
		<path id="XMLID_142_" class="st5" d="M260.1,298.8c-0.2,0.8-0.4,1.8-0.5,3.1c-1.4,0.4-2.6,0.6-3.6,0.7s-2.1,0.2-3.1,0.2
			c-1.8,0-3.5-0.2-4.9-0.7c-1.5-0.4-2.7-1.2-3.7-2.3c-1-1.1-1.8-2.3-2.2-3.7c-0.5-1.4-0.7-2.9-0.7-4.4c0-2.2,0.4-4.2,1.2-6.1
			c0.8-1.9,2.1-3.3,3.8-4.4c1.7-1.1,3.8-1.6,6.4-1.6c1.3,0,2.6,0.2,3.8,0.6c1.2,0.4,2.2,1,3,1.8c0.8,0.8,1.4,1.8,1.9,2.9
			c0.4,1.2,0.7,2.4,0.7,3.8c0,0.5,0,1-0.1,1.5h-16.7c-0.1,0.8-0.1,1.4-0.1,1.8c0,1.5,0.3,2.9,1,4.2c0.6,1.3,1.6,2.3,2.8,2.9
			s2.7,1,4.3,1C255.1,300.2,257.4,299.7,260.1,298.8z M245.3,288.4h13.1c0-0.9-0.1-1.6-0.2-2.1c-0.1-0.5-0.3-1-0.6-1.6
			c-0.3-0.5-0.7-1-1.1-1.4c-0.5-0.4-1-0.7-1.7-0.9c-0.7-0.2-1.4-0.3-2.2-0.3c-0.8,0-1.6,0.1-2.4,0.3c-0.8,0.2-1.4,0.6-2,1
			c-0.6,0.4-1.1,0.9-1.5,1.4c-0.4,0.5-0.7,1.1-0.9,1.6C245.7,286.8,245.5,287.5,245.3,288.4z"/>
	</g>
</g>
</svg>
