<?xml version="1.0" encoding="utf-8"?>
<!-- Generator: Adobe Illustrator 27.3.1, SVG Export Plug-In . SVG Version: 6.00 Build 0)  -->
<svg version="1.1" xmlns="http://www.w3.org/2000/svg" xmlns:xlink="http://www.w3.org/1999/xlink" x="0px" y="0px"
	 viewBox="0 0 32 32" style="enable-background:new 0 0 32 32;" xml:space="preserve">
<style type="text/css">
	.st0{fill:#1572B6;}
	.st1{fill:#33A9DC;}
	.st2{fill:#FFFFFF;}
	.st3{fill:#EBEBEB;}
	.st4{fill:#CD6799;}
</style>
<g id="レイヤー_1">
	<polygon class="st0" points="5.9,27.2 3.7,2 28.3,2 26.1,27.2 16,30 	"/>
	<polygon class="st1" points="16,27.9 24.2,25.6 26.1,4.1 16,4.1 	"/>
	<polygon class="st2" points="16,13.2 20.1,13.2 20.4,10 16,10 16,6.9 16,6.9 23.8,6.9 23.7,7.8 22.9,16.3 16,16.3 	"/>
	<polygon class="st3" points="16,21.2 16,21.2 12.6,20.3 12.3,17.8 10.7,17.8 9.2,17.8 9.7,22.7 16,24.4 16,24.4 	"/>
	<polygon class="st2" points="19.8,16.2 19.5,20.3 16,21.2 16,24.4 22.3,22.7 22.4,22.2 22.9,16.2 	"/>
	<polygon class="st3" points="16,6.9 16,8.9 16,10 16,10 8.6,10 8.6,10 8.5,10 8.5,9.3 8.3,7.8 8.3,6.9 	"/>
	<polygon class="st3" points="16,13.2 16,15.1 16,16.3 16,16.3 12.6,16.3 12.6,16.3 12.6,16.3 12.5,15.6 12.4,14 12.3,13.2 	"/>
</g>
<g id="レイヤー_2">
	<path class="st4" d="M22.9,23.1c-0.4,0.2-0.7,0.4-1.5,0.8c-0.3,0.2-0.6,0.3-0.9,0.5c0,0,0,0-0.1-0.1c-1.5-1.6-4.4-2.8-4.2-5
		c0-0.8,0.3-2.9,5.4-5.5c4.2-2.1,7.6-1.5,8.2-0.2c0.8,1.8-1.8,5.2-6.2,5.7c-1,0.2-2-0.1-2.8-0.7c-0.2-0.3-0.3-0.3-0.4-0.2
		c-0.1,0.1,0,0.3,0,0.4c0.3,0.6,0.9,1.1,1.6,1.2c1.7,0.4,3.5,0.2,5.1-0.5c2.6-1,4.7-3.9,4.1-6.2c-0.6-2.4-4.6-3.2-8.4-1.9
		c-2.4,0.8-4.6,2.1-6.5,3.7c-2.1,2-2.4,3.7-2.3,4.4c0.5,2.5,4,4.2,5.4,5.4c-0.1,0-0.1,0.1-0.2,0.1c-0.7,0.3-3.4,1.7-4,3.2
		c-0.8,1.7,0.1,2.9,0.7,3c1.8,0.4,3.6-0.3,4.6-1.9c0.8-1.3,1-2.9,0.4-4.3c0.2-0.1,0.3-0.2,0.5-0.4c0.4-0.2,0.7-0.4,1-0.6l0,0
		c1-0.5,2.2-0.7,3.3-0.7c2.4,0.3,2.9,1.8,2.8,2.4c-0.1,0.4-0.4,0.8-0.8,1.1c-0.2,0.1-0.2,0.1-0.2,0.2c0,0.1,0.1,0.1,0.2,0.1
		c0.7-0.2,1.2-0.9,1.3-1.7c0.1-1.5-1.3-3.1-3.8-3.1c-0.7,0-1.5,0.1-2.2,0.4C23.1,23,23,23.1,22.9,23.1L22.9,23.1z M19.4,28.9
		c-0.8,0.9-1.9,1.2-2.4,0.9c-0.5-0.3-0.3-1.6,0.7-2.5c0.6-0.5,1.2-1,1.9-1.4c0.1-0.1,0.3-0.2,0.5-0.3c0,0,0.1,0,0.1,0l0.1-0.1
		C20.6,26.7,20.2,28,19.4,28.9z"/>
</g>
</svg>
