<!--?xml version="1.0" encoding="utf-8"?-->
<!-- Generator: Adobe Illustrator 18.1.1, SVG Export Plug-In . SVG Version: 6.00 Build 0)  -->

<svg version="1.1" id="_x32_" xmlns="http://www.w3.org/2000/svg" xmlns:xlink="http://www.w3.org/1999/xlink" x="0px" y="0px" viewBox="0 0 512 512" style="width: 256px; height: 256px; opacity: 1;" xml:space="preserve">
<style type="text/css">
	.st0{fill:#4B4B4B;}
</style>
<g>
	<path class="st0" d="M103.998,118.376c32.428,0,58.707-26.283,58.707-58.707c0-32.424-26.279-58.707-58.707-58.707
		c-32.429,0-58.707,26.283-58.707,58.707C45.291,92.093,71.569,118.376,103.998,118.376z" style="fill: rgb(255, 255, 255);"></path>
	<circle class="st0" cx="82.619" cy="372.564" r="50.573" style="fill: rgb(255, 255, 255);"></circle>
	<path class="st0" d="M82.856,447.762c-35.212-0.258-63.977,28.07-64.239,63.285L146.145,512
		C146.406,476.784,118.071,448.028,82.856,447.762z" style="fill: rgb(255, 255, 255);"></path>
	<circle class="st0" cx="249.966" cy="372.564" r="50.573" style="fill: rgb(255, 255, 255);"></circle>
	<path class="st0" d="M250.202,447.762c-35.211-0.258-63.976,28.07-64.238,63.285L313.491,512
		C313.754,476.784,285.418,448.028,250.202,447.762z" style="fill: rgb(255, 255, 255);"></path>
	<circle class="st0" cx="417.313" cy="372.564" r="50.573" style="fill: rgb(255, 255, 255);"></circle>
	<path class="st0" d="M417.55,447.762c-35.212-0.258-63.977,28.07-64.238,63.285L480.839,512
		C481.1,476.784,452.765,448.028,417.55,447.762z" style="fill: rgb(255, 255, 255);"></path>
	<path class="st0" d="M193.076,229.339c0.335-45.119-32.832-82.55-76.22-89v22.349H90.47v-22.34
		c-42.834,6.355-75.886,43.006-76.22,87.661v58.801h178.826V229.339z M116.856,225.371H90.47V181.12h26.386V225.371z" style="fill: rgb(255, 255, 255);"></path>
	<path class="st0" d="M437.304,0H303.176c-33.383,0-60.442,27.065-60.442,60.459v54.404l-45.338,41.253l50.212,6.519
		c9.242,21.55,30.633,36.659,55.568,36.659h134.128c33.382,0,60.446-27.064,60.446-60.45V60.459C497.75,27.065,470.686,0,437.304,0z
		 M305.77,115.937c-8.993,0-16.286-7.284-16.286-16.286s7.292-16.293,16.286-16.293c9.001,0,16.298,7.292,16.298,16.293
		S314.771,115.937,305.77,115.937z M370.236,115.937c-8.998,0-16.281-7.284-16.281-16.286s7.284-16.293,16.281-16.293
		c9.001,0,16.293,7.292,16.293,16.293S379.237,115.937,370.236,115.937z M434.706,115.937c-8.997,0-16.293-7.284-16.293-16.286
		s7.296-16.293,16.293-16.293c8.998,0,16.29,7.292,16.29,16.293S443.703,115.937,434.706,115.937z" style="fill: rgb(255, 255, 255);"></path>
</g>
</svg>
