<?xml version="1.0" encoding="utf-8"?>
<!-- Generator: Adobe Illustrator 27.3.1, SVG Export Plug-In . SVG Version: 6.00 Build 0)  -->
<svg version="1.1" id="レイヤー_1" xmlns="http://www.w3.org/2000/svg" xmlns:xlink="http://www.w3.org/1999/xlink" x="0px"
	 y="0px" viewBox="0 0 202.3 39.5" style="enable-background:new 0 0 202.3 39.5;" xml:space="preserve">
<style type="text/css">
	.st0{fill:#656BA4;stroke:#656BA4;stroke-width:0.75;}
	.st1{fill:#656BA4;stroke:#656BA4;stroke-width:0.5;}
	.st2{fill:#656BA4;}
	.st3{fill:#FFFFFF;}
</style>
<g>
	<path class="st0" d="M32.9,20.2c0,1.9-0.7,3.4-2.1,4.6c-1.2,1-2.7,1.5-4.4,1.5v-1.8c1,0,1.9-0.3,2.7-0.9c1.1-0.8,1.6-1.9,1.6-3.5
		v-2h15.1v8c0,3.3-1,6-3,7.9c-2.1,2-5,3-8.8,3h-4.3v-1.8H34c3.1,0,5.5-0.9,7.3-2.6c1.6-1.6,2.4-3.8,2.4-6.5V20H32.9V20.2z"/>
	<path class="st0" d="M72.4,19.9c0,3-0.8,5.4-2.5,7.3c-1.7,1.9-4.1,3.1-7.2,3.5c1.8,1.8,2.7,4,2.7,6.4h-2.1c0-2.1-0.8-3.9-2.4-5.4
		c-1.6-1.5-3.5-2.2-5.7-2.2v-1.8c1.9,0,3.7,0.5,5.4,1.4c3.1,0,5.5-0.9,7.3-2.6c1.6-1.7,2.4-3.8,2.4-6.5H51.9v-1.8h20.5V19.9z"/>
	<path class="st0" d="M96.7,26.7h-14v10.5h-2.1v-21h2.1v8.7h14V26.7z"/>
	<path class="st0" d="M111.9,24.8v1.8h-8.6v-1.8H111.9z M113.6,18.2V20H105v-1.8H113.6z M122.7,24.2v2c0,3.3-1,6-3,7.9
		c-2.1,2-5,3-8.8,3H106v-1.8h4.9c3.1,0,5.5-0.9,7.3-2.6c1.6-1.7,2.4-3.8,2.4-6.6v-2H122.7z"/>
	<path class="st0" d="M135.1,26.3c0,2.6-0.7,4.9-2.1,6.7c-1.6,2.1-3.7,3.2-6.4,3.2v-1.9c1.8,0,3.4-0.9,4.6-2.7
		c1.1-1.6,1.7-3.4,1.7-5.4v-3.2h-6.3v-1.8h8.5V26.3z M139.5,15.3v22.4h-2.1V15.3H139.5z M143.8,26.3c0,2.1,0.5,3.9,1.5,5.4
		c1.2,1.8,2.8,2.7,5,2.7v1.9c-2.9,0-5.1-1-6.6-3.1c-1.3-1.8-2-4.1-2-6.9v-3h2.1c1,0,1.9-0.3,2.7-0.9c1-0.8,1.5-1.9,1.5-3.5h2.1
		c0,1.8-0.6,3.2-1.8,4.4c-1.2,1.2-2.7,1.8-4.6,1.8V26.3z"/>
	<path class="st0" d="M162.1,37.7h-2V26.9h-3.4v0c0,2.9-0.2,4.9-0.5,6.1c-0.6,2.1-2,3.7-4.1,4.6v-1.9c1.2-0.6,2-1.9,2.3-3.7
		c0.2-0.9,0.3-2.6,0.3-5.1v-5.7c-1.7-0.7-2.6-2.1-2.6-4v-1.6h2v1.6c0,0.7,0.2,1.3,0.7,1.9c0.5,0.5,1.1,0.8,1.9,0.8h0.7v-4.2h2v4.2
		h2.6v1.7h-5.4v3.5h5.4V37.7z M165.4,22.2h-2.1v-6.5h2.1v3.3h10.3v1.7h-10.3V22.2z M172.4,34.4c1,1,2.1,1.5,3.3,1.5v1.7
		c-1.2,0-2.4-0.4-3.5-1c-1-0.6-1.9-1.5-2.5-2.5c-0.6,1.1-1.4,1.9-2.4,2.5c-1.1,0.7-2.2,1-3.4,1v-1.7c1.2,0,2.4-0.5,3.3-1.5
		c0.9-0.9,1.4-2,1.5-3.1h-4.8v-1.7h4.8v-3.4h-1.3c-0.9,1.1-2.1,1.6-3.5,1.6v-1.8c0.6,0,1.1-0.2,1.5-0.6c0.6-0.5,0.9-1.2,0.9-2.1v-1
		h2.2v1c0,0.4-0.1,0.8-0.2,1.2h6.3v1.7h-3.9v3.4h4.9v1.7h-4.9C171,32.4,171.5,33.5,172.4,34.4z"/>
	<path class="st0" d="M200.4,19.1c0.5,0.5,0.8,1.2,0.8,2v5.7h-1.9v-5.7c0-0.3-0.1-0.5-0.3-0.7c-0.2-0.2-0.4-0.3-0.7-0.3h-7.4
		c-0.3,0-0.5,0.1-0.7,0.3c-0.2,0.2-0.3,0.5-0.3,0.7v5.7h-1.9v-5c-0.7-0.1-1.4-0.4-2.2-0.9v1.6h-5.3v-1.5c-1.1,0.6-2,0.9-2.8,0.9
		v-1.8c0.8,0,1.7-0.4,2.7-1.3c1.1-1,1.7-1.9,1.7-3h2c0,1,0.5,1.9,1.4,2.8c0.9,0.8,1.7,1.3,2.6,1.5c0.5-1.2,1.4-1.7,2.8-1.7h2.7v-2.6
		h2v2.6h2.7C199.2,18.3,199.9,18.5,200.4,19.1z M187.9,37.2h-9.5V23.5h8.4v4.8c0,0.8-0.2,1.5-0.8,2.1c-0.5,0.6-1.2,0.9-2.1,0.9h-3.5
		v4.1h5.4v-3.3h2V37.2z M184.9,25.2h-4.5v1.5h4.5V25.2z M184.9,28.3h-4.5v1.4h3.5c0.6,0,1-0.3,1-1V28.3z M185.6,20.8
		c-1-0.6-1.9-1.4-2.5-2.3c-0.7,0.9-1.5,1.7-2.5,2.3H185.6z M190.9,37.7v-16h7.3v4.1c0,0.8-0.3,1.5-0.8,1.9c-0.6,0.5-1.3,0.7-2.1,0.7
		h-2.4v2h6.7V34c0,1-0.4,1.8-1.1,2.6c-0.7,0.7-1.7,1.1-2.7,1.1H190.9z M196.2,23.5h-3.4v3.3h2.4c0.3,0,0.5-0.1,0.7-0.3
		c0.2-0.2,0.3-0.4,0.3-0.6V23.5z M192.8,32.4v3.5h2.5c0.6,0,1.1-0.2,1.5-0.5c0.4-0.3,0.6-0.8,0.6-1.4v-1.6H192.8z"/>
</g>
<g>
	<path class="st1" d="M126.4,8.4l-0.6,1.6c-0.1,0.2-0.1,0.4-0.1,0.6c0,0.1,0.1,0.2,0.1,0.3c0.2,0.1,0.4,0.2,0.7,0.2h0.3v0.3h-2.9V11
		c0.3,0,0.6-0.1,0.9-0.2c0.3-0.2,0.5-0.5,0.6-0.8l3.2-7.6h0.4l3.1,7.7c0.1,0.2,0.2,0.4,0.4,0.6c0.2,0.2,0.4,0.3,0.7,0.3
		c0.1,0,0.3,0,0.4,0v0.3h-3.3V11h0.3c0.3,0,0.5,0,0.8-0.2c0-0.1,0.1-0.1,0.1-0.2c0-0.1,0-0.2-0.1-0.4l-0.7-1.8H126.4z M128.5,3.5
		l-1.9,4.6h3.7L128.5,3.5z"/>
	<path class="st1" d="M141.1,11.7c0.1,0.4,0.4,0.6,0.8,0.6c0.2,0,0.4-0.1,0.6-0.2c0.2-0.1,0.3-0.3,0.3-0.5c0-0.1,0-0.2,0.1-0.3h0.3
		c0,0.3-0.1,0.6-0.2,0.8c-0.2,0.5-0.6,0.7-1.1,0.7c-0.4,0-0.7-0.1-1-0.4c-0.2-0.3-0.4-0.6-0.5-1c0-0.1-0.1-0.2-0.1-0.3
		c-0.5,0.2-1,0.3-1.5,0.3c-0.8,0-1.5-0.2-2.1-0.6c-0.7-0.4-1.2-1-1.5-1.7c-0.4-0.7-0.6-1.5-0.6-2.3c0-0.8,0.2-1.6,0.6-2.3
		c0.3-0.7,0.9-1.2,1.5-1.7c0.6-0.4,1.3-0.6,2.1-0.6c0.8,0,1.4,0.2,2.1,0.6c0.7,0.4,1.2,1,1.5,1.7c0.4,0.7,0.6,1.5,0.6,2.3
		c0,0.8-0.2,1.6-0.6,2.3c-0.4,0.7-0.9,1.3-1.5,1.7C140.9,11.2,141,11.5,141.1,11.7z M137,10c0-0.3,0.1-0.6,0.3-0.9
		c0.2-0.3,0.4-0.5,0.7-0.7c0.2-0.1,0.5-0.2,0.8-0.2c0.4,0,0.7,0.2,1,0.4c0.3,0.3,0.6,0.6,0.8,1c0.1,0.2,0.1,0.5,0.2,0.7l0,0.1
		c0.3-0.2,0.5-0.5,0.7-0.8c0.2-0.4,0.4-0.9,0.5-1.4c0.1-0.4,0.1-0.9,0.1-1.3c0-0.7-0.1-1.5-0.4-2.2c-0.2-0.6-0.6-1.2-1.2-1.6
		c-0.5-0.3-1.1-0.5-1.7-0.6c-0.6,0-1.2,0.2-1.7,0.6c-0.6,0.4-1,0.9-1.2,1.6c-0.3,0.7-0.4,1.4-0.4,2.2c0,0.7,0.1,1.4,0.4,2.1
		c0.2,0.6,0.7,1.2,1.2,1.6c0.1,0,0.1,0.1,0.2,0.1C137.1,10.6,137,10.3,137,10z M140.1,10.8c-0.1-0.3-0.1-0.5-0.2-0.8
		c-0.1-0.3-0.3-0.7-0.5-0.9c-0.2-0.2-0.5-0.3-0.7-0.4c-0.4,0-0.7,0.2-1,0.5c-0.3,0.3-0.4,0.6-0.4,0.9c0,0.3,0.1,0.6,0.3,0.9
		c0,0,0.1,0.1,0.1,0.1c0.3,0.1,0.6,0.2,1,0.2C139.2,11.2,139.7,11.1,140.1,10.8L140.1,10.8z"/>
	<path class="st1" d="M150.1,2.6h2.9v0.3h-0.1c-0.2,0-0.4,0-0.6,0.1c-0.2,0.1-0.4,0.3-0.4,0.5c-0.1,0.2-0.1,0.4-0.1,0.6v4
		c0,0.5-0.1,1-0.2,1.5c-0.2,0.6-0.5,1-1,1.3c-0.5,0.4-1.2,0.6-1.8,0.6c-0.6,0-1.2-0.1-1.7-0.3c-0.6-0.2-1.1-0.6-1.4-1.2
		c-0.2-0.5-0.3-1-0.3-1.5V3.6c0-0.2-0.1-0.3-0.2-0.5C145.1,3.1,145,3,144.9,3c-0.2,0-0.4-0.1-0.6-0.1H144V2.6h3.4v0.3h-0.2
		c-0.3,0-0.5,0-0.7,0.1c-0.2,0.1-0.4,0.3-0.3,0.6v4.8c0,0.6,0.1,1.1,0.4,1.7c0.3,0.4,0.6,0.6,1.1,0.8c0.4,0.2,0.8,0.2,1.3,0.2
		c0.4,0,0.7-0.1,1.1-0.3c0.6-0.2,1-0.6,1.2-1.2c0.2-0.5,0.2-1,0.2-1.5v-4c0-0.2,0-0.5-0.1-0.7c-0.1-0.2-0.3-0.4-0.5-0.5
		c-0.2,0-0.4-0.1-0.6-0.1h-0.1V2.6z"/>
	<path class="st1" d="M156.4,8.4l-0.6,1.6c-0.1,0.2-0.1,0.4-0.1,0.6c0,0.1,0.1,0.2,0.1,0.3c0.2,0.1,0.4,0.2,0.7,0.2h0.3v0.3h-2.9V11
		c0.3,0,0.6-0.1,0.9-0.2c0.3-0.2,0.5-0.5,0.6-0.8l3.2-7.6h0.4l3.1,7.7c0.1,0.2,0.2,0.4,0.4,0.6c0.2,0.2,0.4,0.3,0.7,0.3
		c0.1,0,0.3,0,0.4,0v0.3h-3.3V11h0.3c0.3,0,0.5,0,0.8-0.2c0-0.1,0.1-0.1,0.1-0.2c0-0.1,0-0.2-0.1-0.4l-0.7-1.8H156.4z M158.5,3.5
		l-1.9,4.6h3.7L158.5,3.5z"/>
	<path class="st1" d="M168.5,2.6c0.7,0,1.3,0.1,1.9,0.3c1,0.3,1.4,1,1.4,1.9c0,0.7-0.3,1.3-0.9,1.7c-0.3,0.2-0.7,0.4-1.1,0.5
		c-0.2,0-0.5,0.1-0.7,0.1c0.5,0.1,0.9,0.3,1.2,0.6c0.2,0.2,0.4,0.4,0.5,0.7c0.1,0.5,0.2,0.9,0.2,1.4c0,0.3,0.1,0.6,0.3,0.9
		c0.1,0.2,0.2,0.2,0.5,0.2c0.3,0,0.5-0.2,0.6-0.5c0.1-0.2,0.2-0.4,0.3-0.7l0.3,0.1c-0.1,0.3-0.2,0.7-0.4,0.9
		c-0.1,0.3-0.3,0.4-0.5,0.6c-0.2,0.1-0.4,0.2-0.6,0.1c-0.4,0-0.8-0.2-1-0.5c-0.1-0.2-0.2-0.4-0.2-0.6c-0.1-0.3-0.1-0.7-0.1-1
		c-0.1-0.4-0.1-0.8-0.3-1.2c-0.1-0.3-0.4-0.6-0.7-0.7c-0.2-0.1-0.5-0.2-0.7-0.3c-0.3,0-0.5-0.1-0.8-0.1h-1.1v3.2
		c0,0.2,0.1,0.4,0.2,0.5c0.1,0.1,0.2,0.2,0.3,0.2c0.2,0,0.4,0.1,0.6,0.1h0.5v0.3h-3.7V11h0.3c0.2,0,0.5,0,0.7-0.1
		c0.2-0.2,0.3-0.3,0.3-0.6V3.6c0-0.2-0.1-0.3-0.2-0.5c-0.1-0.1-0.2-0.1-0.3-0.2c-0.2,0-0.4-0.1-0.6-0.1h-0.3V2.6H168.5z M168.1,6.8
		c0.5,0,0.9,0,1.3-0.1c0.5-0.1,0.9-0.4,1.2-0.7c0.3-0.3,0.4-0.7,0.4-1.2c0-0.5-0.2-0.9-0.5-1.2c-0.2-0.2-0.4-0.4-0.7-0.4
		c-0.5-0.1-1-0.2-1.4-0.2h-0.6c-0.2,0-0.5,0-0.7,0.1c-0.1,0.1-0.2,0.1-0.3,0.2c0,0.1-0.1,0.3-0.1,0.4v3.1H168.1z"/>
	<path class="st1" d="M173.8,2.6h4v0.3h-0.5c-0.3,0-0.5,0-0.7,0.1c-0.1,0-0.2,0.1-0.3,0.3c-0.1,0.1-0.1,0.2-0.1,0.3v6.7
		c0,0.2,0,0.4,0.2,0.5c0.1,0.1,0.2,0.2,0.3,0.2c0.2,0,0.4,0.1,0.6,0.1h0.5v0.3h-4V11h0.5c0.2,0,0.5,0,0.7-0.1
		c0.1-0.1,0.2-0.2,0.3-0.3c0-0.1,0.1-0.2,0.1-0.3V3.6c0-0.2-0.1-0.3-0.2-0.5C175.1,3.1,175,3,174.9,3c-0.2,0-0.4-0.1-0.6-0.1h-0.5
		V2.6z"/>
	<path class="st1" d="M185,2.6h2.9v0.3h-0.1c-0.2,0-0.4,0-0.6,0.1c-0.2,0.1-0.4,0.3-0.4,0.5c-0.1,0.2-0.1,0.4-0.1,0.6v4
		c0,0.5-0.1,1-0.2,1.5c-0.2,0.6-0.5,1-1,1.3c-0.5,0.4-1.2,0.6-1.8,0.6c-0.6,0-1.2-0.1-1.7-0.3c-0.6-0.2-1.1-0.6-1.4-1.2
		c-0.2-0.5-0.3-1-0.3-1.5V3.6c0-0.2-0.1-0.3-0.2-0.5c-0.1-0.1-0.2-0.1-0.3-0.1c-0.2,0-0.4-0.1-0.6-0.1h-0.2V2.6h3.4v0.3h-0.2
		c-0.3,0-0.5,0-0.7,0.1c-0.2,0.1-0.4,0.3-0.3,0.6v4.8c0,0.6,0.1,1.1,0.4,1.7c0.3,0.4,0.6,0.6,1.1,0.8c0.4,0.2,0.8,0.2,1.3,0.2
		c0.4,0,0.7-0.1,1.1-0.3c0.6-0.2,1-0.6,1.2-1.2c0.2-0.5,0.2-1,0.2-1.5v-4c0-0.2,0-0.5-0.1-0.7c-0.1-0.2-0.3-0.4-0.5-0.5
		c-0.2,0-0.4-0.1-0.6-0.1H185V2.6z"/>
	<path class="st1" d="M197.8,2.6h2.3v0.3h-0.2c-0.3,0-0.5,0-0.7,0.1c-0.2,0.1-0.3,0.3-0.3,0.6v6.7c0,0.2,0.1,0.4,0.2,0.5
		c0.1,0.1,0.2,0.1,0.3,0.2c0.2,0,0.4,0.1,0.6,0.1h0.2v0.3h-3.4V11h0.2c0.3,0,0.5,0,0.7-0.1c0.1-0.1,0.2-0.2,0.3-0.3
		c0-0.1,0.1-0.2,0.1-0.3V3.1l-3.7,8.4h-0.2L190.8,3v6.9c0,0.3,0,0.5,0.1,0.7c0.1,0.2,0.3,0.3,0.5,0.4c0.2,0,0.4,0.1,0.6,0.1h0.1v0.3
		h-3V11h0.2c0.2,0,0.4,0,0.6-0.1c0.2-0.1,0.4-0.3,0.5-0.5c0.1-0.2,0.1-0.4,0.1-0.6V4c0-0.3-0.1-0.6-0.3-0.9
		c-0.2-0.1-0.5-0.2-0.8-0.2h-0.3V2.6h2.4l2.9,7.7L197.8,2.6z"/>
</g>
<g>
	<path class="st1" d="M49.5,10.1c0.2,0.3,0.4,0.5,0.7,0.6c0.3,0.1,0.6,0.2,1,0.2v0.3h-3.8v-0.3h0.6c0.2,0,0.3,0,0.5,0
		c0.2,0,0.3-0.1,0.3-0.3c0-0.1-0.1-0.2-0.1-0.3L46,6.4l-1.6,1.8v2c0,0.2,0,0.4,0.2,0.5c0.1,0.1,0.2,0.1,0.3,0.2
		c0.2,0,0.4,0.1,0.6,0.1h0.4v0.3h-3.7v-0.3h0.4c0.3,0,0.5,0,0.7-0.1c0.2-0.2,0.3-0.3,0.3-0.6V3.5c0-0.2,0-0.3-0.2-0.5
		c-0.1-0.1-0.2-0.1-0.3-0.2c-0.2,0-0.4-0.1-0.6-0.1h-0.4V2.5h3.7v0.3h-0.4c-0.3,0-0.5,0-0.7,0.1c-0.1,0.1-0.2,0.1-0.3,0.3
		c-0.1,0.1-0.1,0.3-0.1,0.3v4.1l3.7-3.9c0.1-0.1,0.2-0.3,0.3-0.4c0-0.1,0.1-0.1,0.1-0.2c0-0.1-0.1-0.2-0.2-0.3
		c-0.1,0-0.3-0.1-0.4-0.1h-0.6V2.5h3.4v0.3c-0.4,0-0.8,0.1-1.2,0.3c-0.4,0.2-0.7,0.5-1,0.8l-1.9,1.9L49.5,10.1z"/>
	<path class="st1" d="M56.5,5.7l1.7-0.3v4.7c0,0.2,0.1,0.4,0.2,0.5c0.2,0.1,0.3,0.1,0.6,0.1h0.3v0.3l-1.8,0.2V10
		c-0.2,0.2-0.4,0.5-0.6,0.7c-0.3,0.3-0.6,0.4-0.9,0.6c-0.2,0.1-0.5,0.2-0.8,0.2c-0.4,0-0.7-0.1-1-0.3c-0.3-0.2-0.5-0.5-0.6-0.9
		c-0.1-0.3-0.1-0.6-0.1-0.9V6.7c0-0.2-0.1-0.3-0.2-0.5C53.2,6.1,53.1,6,52.9,6h-0.1l-0.1-0.3l1.7-0.3v4c0,0.4,0,0.7,0.2,1
		c0.2,0.3,0.5,0.5,0.9,0.5c0.5,0,0.9-0.2,1.3-0.6c0.3-0.3,0.5-0.6,0.8-1V6.7c0-0.2-0.1-0.3-0.2-0.5C57.1,6.1,56.9,6,56.8,6h-0.1
		L56.5,5.7z"/>
	<path class="st1" d="M63.6,5.8c0.3-0.3,0.8-0.4,1.2-0.4c0.4,0,0.7,0.1,1,0.3c0.4,0.3,0.6,0.7,0.6,1.1c0.3-0.4,0.6-0.7,0.9-1
		c0.4-0.3,0.8-0.4,1.3-0.5c0.4,0,0.7,0.1,1,0.3c0.3,0.2,0.5,0.5,0.6,0.9c0.1,0.3,0.1,0.6,0.1,0.9v2.9c0,0.2,0,0.3,0.1,0.4
		c0.1,0.1,0.2,0.2,0.3,0.2c0.1,0,0.3,0.1,0.4,0h0.3v0.3h-2.9v-0.3h0.3c0.2,0,0.4,0,0.6-0.1c0.1-0.1,0.1-0.1,0.2-0.2
		c0-0.1,0.1-0.2,0.1-0.3v-3c0-0.5-0.1-0.9-0.4-1.2c-0.2-0.2-0.5-0.3-0.8-0.3c-0.3,0-0.5,0.1-0.8,0.2c-0.5,0.3-0.9,0.8-1.2,1.2
		c0,0.1,0,0.1,0,0.2v2.9c0,0.2,0,0.3,0.1,0.4c0.1,0.1,0.2,0.2,0.3,0.2c0.1,0,0.3,0.1,0.4,0h0.3v0.3h-2.9v-0.3h0.3
		c0.2,0,0.4,0,0.6-0.1c0.1,0,0.1-0.1,0.2-0.2c0-0.1,0.1-0.2,0.1-0.3v-3c0-0.5-0.1-0.9-0.4-1.2c-0.2-0.2-0.5-0.3-0.7-0.3
		c-0.3,0-0.5,0.1-0.8,0.2c-0.5,0.3-0.9,0.7-1.1,1.2v3.1c0,0.2,0,0.3,0.1,0.4c0.1,0.1,0.2,0.2,0.3,0.2c0.1,0,0.3,0.1,0.4,0h0.3v0.3
		h-2.9v-0.3h0.3c0.2,0,0.4,0,0.6-0.1c0.1,0,0.1-0.1,0.1-0.2c0-0.1,0.1-0.2,0.1-0.3V6.5c0-0.2-0.1-0.4-0.2-0.5
		c-0.2-0.1-0.4-0.1-0.6-0.1h-0.3V5.6l1.8-0.3v1.4C62.9,6.4,63.2,6,63.6,5.8z"/>
	<path class="st1" d="M77.2,7.5c0-0.3,0-0.7-0.1-1C77.1,6.3,77,6.1,76.8,6c-0.3-0.2-0.6-0.3-1-0.3c-0.4,0-0.7,0.1-1,0.3
		c-0.1,0.1-0.2,0.2-0.3,0.3c-0.1,0.1-0.1,0.2-0.1,0.3c0,0.1,0.1,0.2,0.1,0.2c0.1,0.1,0.2,0.3,0.2,0.4c0,0.1,0,0.3-0.1,0.3
		c-0.1,0.1-0.2,0.1-0.4,0.1c-0.2,0-0.3-0.1-0.4-0.2c-0.1-0.1-0.2-0.3-0.2-0.4c0-0.3,0.2-0.6,0.4-0.9c0.3-0.3,0.6-0.5,1-0.6
		c0.3-0.1,0.6-0.1,0.9-0.2c0.7,0,1.2,0.2,1.7,0.6c0.3,0.4,0.4,0.9,0.4,1.4v2.8c0,0.2,0,0.4,0,0.5c0,0.2,0.2,0.3,0.4,0.3
		c0.3,0,0.5-0.2,0.7-0.4l0.3,0.2c-0.1,0.1-0.3,0.2-0.4,0.3c-0.2,0.2-0.5,0.3-0.7,0.3c-0.3,0-0.6-0.1-0.7-0.3
		c-0.1-0.2-0.2-0.4-0.2-0.6c-0.3,0.2-0.6,0.5-1,0.6c-0.4,0.2-0.9,0.3-1.3,0.3c-0.4,0-0.7-0.1-1.1-0.3c-0.2-0.1-0.4-0.3-0.5-0.5
		c-0.1-0.2-0.2-0.4-0.1-0.6c0-0.6,0.3-1.1,0.9-1.5c0.4-0.2,0.8-0.4,1.2-0.5C76,8,76.6,7.9,77.2,7.9V7.5z M75.2,8.6
		c-0.4,0.1-0.7,0.3-0.9,0.6C74.1,9.4,74,9.7,74,10c0,0.3,0.1,0.6,0.4,0.9c0.2,0.1,0.4,0.2,0.7,0.2c0.4,0,0.9-0.1,1.2-0.4
		c0.3-0.2,0.7-0.4,1-0.7V8.2C76.5,8.2,75.8,8.3,75.2,8.6z"/>
	<path class="st1" d="M81.1,5.6c0.2,0,0.3,0,0.5-0.1c0.4-0.1,0.7-0.4,0.8-0.8c0.1-0.4,0.2-0.8,0.2-1.2H83v2.1h2V6h-2v3.6
		c0,0.4,0,0.7,0.2,1.1c0.2,0.2,0.4,0.3,0.6,0.2c0.5,0,0.9-0.2,1.1-0.6c0.1-0.3,0.3-0.6,0.3-0.9l0.3,0.1c-0.1,0.4-0.2,0.8-0.4,1.1
		c-0.2,0.2-0.3,0.4-0.6,0.6c-0.3,0.2-0.6,0.3-0.9,0.2c-0.3,0-0.5-0.1-0.7-0.2c-0.3-0.2-0.5-0.4-0.5-0.7c-0.1-0.3-0.1-0.6-0.1-1V6
		h-1.1V5.6z"/>
	<path class="st1" d="M91.4,5.8c0.5,0.3,0.8,0.6,1,1.1c0.2,0.5,0.4,1,0.4,1.5c0,0.5-0.1,1-0.4,1.5c-0.2,0.4-0.6,0.8-1,1.1
		c-0.4,0.3-0.9,0.4-1.4,0.4c-0.5,0-1-0.1-1.4-0.4c-0.5-0.3-0.8-0.6-1-1.1c-0.3-0.5-0.4-1-0.4-1.5c0-0.5,0.1-1,0.4-1.5
		c0.2-0.4,0.6-0.8,1-1.1c0.5-0.3,1-0.4,1.5-0.4C90.6,5.4,91,5.6,91.4,5.8z M88.5,6.6C88.1,7.2,88,7.7,88,8.4c0,0.5,0.1,0.9,0.3,1.3
		c0.2,0.4,0.4,0.7,0.7,1c0.3,0.2,0.6,0.3,1,0.3c0.7,0,1.2-0.3,1.5-0.9c0.2-0.3,0.3-0.6,0.4-1C92,8.9,92,8.6,92,8.4
		c0-0.5-0.1-0.9-0.3-1.3c-0.2-0.4-0.4-0.7-0.7-1c-0.3-0.2-0.7-0.3-1.1-0.3C89.3,5.8,88.8,6.1,88.5,6.6z"/>
	<path class="st1" d="M95,9.1c0.1,0.4,0.2,0.7,0.5,1c0.2,0.3,0.4,0.5,0.7,0.6C96.6,11,97,11,97.4,11c0.3,0,0.7-0.1,1-0.3
		c0.3-0.2,0.5-0.5,0.5-0.9c0-0.3,0-0.5-0.2-0.7c-0.2-0.2-0.4-0.3-0.6-0.4c-0.3-0.1-0.7-0.2-1-0.2c-0.4-0.1-0.8-0.1-1.2-0.3
		c-0.7-0.2-1-0.7-1-1.3c0-0.5,0.2-0.9,0.6-1.2c0.4-0.3,0.9-0.5,1.4-0.5c0.3,0,0.6,0,0.9,0.2c0.2,0.1,0.4,0.2,0.5,0.2
		c0.1,0,0.1,0.1,0.2,0.1c0.2-0.1,0.3-0.2,0.3-0.4H99l0.2,1.8l-0.3,0.1c-0.1-0.4-0.2-0.7-0.4-1c-0.2-0.2-0.4-0.4-0.7-0.5
		c-0.3-0.1-0.6-0.2-0.9-0.2c-0.3,0-0.6,0.1-0.9,0.3c-0.4,0.2-0.6,0.6-0.6,1c0,0.4,0.2,0.6,0.6,0.8c0.4,0.2,0.9,0.3,1.3,0.3
		c0.5,0.1,0.9,0.2,1.3,0.3c0.2,0.1,0.4,0.3,0.6,0.5c0.1,0.3,0.2,0.6,0.2,0.9c0,0.3-0.1,0.7-0.3,0.9c-0.2,0.3-0.6,0.5-1,0.6
		c-0.2,0.1-0.5,0.1-0.7,0.1c-0.4,0-0.7-0.1-1.1-0.2c-0.3-0.1-0.5-0.2-0.7-0.3c-0.1,0-0.1,0-0.2,0c-0.2,0.1-0.4,0.2-0.5,0.4h-0.2
		l-0.1-2L95,9.1z"/>
	<path class="st1" d="M101.4,2.5l1.8-0.3v4.7c0.2-0.4,0.5-0.7,0.9-1s0.8-0.4,1.3-0.4c0.4,0,0.7,0.1,1,0.3c0.3,0.2,0.5,0.5,0.6,0.9
		c0.1,0.3,0.1,0.6,0.1,0.9v2.7c0,0.2,0,0.3,0.1,0.4c0.1,0.1,0.2,0.2,0.3,0.2c0.1,0,0.3,0.1,0.4,0h0.3v0.3h-2.9v-0.3h0.3
		c0.2,0,0.4,0,0.6-0.1c0.1,0,0.1-0.1,0.2-0.2c0-0.1,0.1-0.2,0.1-0.3V7.4c0-0.4-0.1-0.7-0.2-1c-0.2-0.3-0.5-0.5-0.9-0.5
		c-0.5,0-0.9,0.2-1.2,0.6c-0.3,0.3-0.5,0.6-0.7,1v2.8c0,0.2,0,0.3,0.1,0.4c0.1,0.1,0.2,0.2,0.3,0.2c0.1,0,0.3,0.1,0.4,0h0.3v0.3
		h-2.9v-0.3h0.3c0.2,0,0.4,0,0.6-0.1c0.1,0,0.1-0.1,0.1-0.2c0-0.1,0.1-0.2,0.1-0.3V3.4c0-0.2-0.1-0.4-0.2-0.5
		c-0.2-0.1-0.4-0.1-0.6-0.1h-0.2L101.4,2.5z"/>
	<path class="st1" d="M109.7,5.7l1.8-0.3v4.8c0,0.2,0,0.3,0.1,0.4c0.1,0.1,0.2,0.2,0.3,0.2c0.1,0,0.3,0.1,0.4,0h0.3v0.3h-3v-0.3h0.3
		c0.2,0,0.4,0,0.6-0.1c0.1,0,0.1-0.1,0.1-0.2c0-0.1,0.1-0.2,0.1-0.3V6.7c0-0.2-0.1-0.3-0.2-0.5c-0.2-0.1-0.4-0.1-0.6-0.1h-0.2
		L109.7,5.7z M111.5,2.4c0.1,0.1,0.2,0.2,0.2,0.4c0,0.2-0.1,0.3-0.2,0.4c-0.1,0.1-0.2,0.2-0.4,0.2c-0.2,0-0.3-0.1-0.4-0.2
		c-0.1-0.1-0.2-0.2-0.2-0.4c0-0.2,0.1-0.3,0.2-0.4c0.1-0.1,0.2-0.2,0.4-0.2S111.3,2.3,111.5,2.4z"/>
</g>
<g>
	<path class="st2" d="M3.7,38c-1.3,0-2.4-0.5-3.3-1.4l-0.2-0.2l0.2,0c4-0.7,4.1-1,4.2-1.2l0-1c-5.2-10.8-4.4-19.3,2.5-26
		C6.4,7.3,5.4,6.4,3.9,6.3C3.1,6,2.5,5.9,2,5.9C1.5,5.9,1,6,0.5,6.2l-0.1,0L0.3,6.2C0,5.6,0,5.2,1,4.3c0.8-0.7,2.3-1.6,3.9-2
		C5.5,2.2,6,2.2,6.6,2.2c2.4,0,4.2,0.6,5.7,1.8c3.2-2.5,6.3-3.7,9.2-3.7c0.5-0.1,1-0.1,1.4-0.1c2.7,0,5.1,1.3,6.5,3.5
		c0.6,0.8,0.7,1.8,0.8,3C31.8,6.6,32.8,7,33,7.6c0,0.4-0.2,0.8-1,0.9c-7,0.9-10.1,2-12,4.7c-0.5,5.2-1.2,5.9-1.7,5.9
		c0,0-0.1,0-0.1,0c-0.1,0.1-0.2,0.1-0.2,0.1c-0.4,0-0.9-0.5-1.2-4.4c-4.6,1.8-7.8,4.8-10.1,9.5c-1.4,2.9-1.3,5.9,0.1,9.4
		c1.8-0.2,3-0.8,3.6-1.8l0.2-0.3l0,0.3c0.1,1.6-0.5,2.9-1.9,4c-0.5,0.3-0.9,0.5-1.2,0.5c-0.2,0-0.3,0-0.4-0.1
		c-0.2,0.6-0.6,1.2-1,1.2C5.3,37.9,4.5,38,3.7,38z"/>
	<g>
		<path class="st3" d="M22.9,0.2c2.7,0,5.1,1.3,6.4,3.4c0.6,0.8,0.7,1.9,0.7,3c1.6,0,2.6,0.3,2.8,1c0,0.4-0.3,0.7-0.9,0.8
			c-7.5,0.9-10.2,2.2-12.1,4.7C19.5,16.8,19,19,18.2,19c-0.1,0-0.1,0-0.2,0c-0.1,0.1-0.1,0.1-0.2,0.1c-0.5,0-0.8-1.7-1-4.4
			c-5.3,2-8.3,5.5-10.3,9.6c-1.2,2.5-1.5,5.5,0.2,9.6c2-0.2,3.2-0.9,3.8-1.8c0.1,1.6-0.5,2.9-1.8,3.9c-0.5,0.3-0.9,0.4-1.2,0.4
			c-0.2,0-0.4-0.1-0.4-0.4c-0.2,0.7-0.6,1.4-1,1.4c-0.9,0.3-1.7,0.5-2.4,0.5c-1.3,0-2.3-0.5-3.2-1.4c4-0.7,4.2-1,4.3-1.3l0-1.1
			c-5.7-11.8-3.7-20,2.5-26c-0.9-1-2-1.8-3.5-2C3.3,5.9,2.6,5.8,2,5.8c-0.5,0-1,0.1-1.5,0.3C0.1,5.6,0.1,5.3,1.1,4.4
			c0.8-0.7,2.3-1.6,3.8-2C5.5,2.3,6,2.3,6.6,2.3c2.5,0,4.4,0.7,5.7,1.8c3.2-2.5,6.2-3.8,9.2-3.8c0,0,0,0,0.1,0
			C22,0.3,22.4,0.2,22.9,0.2 M22.9,0c-0.5,0-0.9,0-1.4,0.1l0,0c-2.9,0-6,1.2-9.2,3.7c-1.5-1.2-3.4-1.8-5.7-1.8c-0.5,0-1.1,0-1.7,0.1
			c-1.6,0.5-3.2,1.4-4,2.1C0,5-0.2,5.6,0.2,6.2l0.1,0.2l0.2-0.1C1,6.1,1.5,6,2,6c0.5,0,1.1,0.1,1.8,0.3l0,0l0,0
			c1.4,0.2,2.4,0.9,3.2,1.7c-6.8,6.8-7.6,15.3-2.4,26.1l0,1c-0.2,0.2-0.8,0.5-4.1,1.1l-0.5,0.1l0.3,0.3c0.9,1,2,1.4,3.3,1.4
			c0.7,0,1.6-0.2,2.4-0.5c0.4,0,0.8-0.5,1-1.1c0.1,0,0.2,0.1,0.3,0.1c0.3,0,0.7-0.2,1.3-0.5c1.4-1.1,2.1-2.5,1.9-4.1l-0.1-0.7
			l-0.4,0.5c-0.7,0.9-1.8,1.5-3.5,1.7c-1.4-3.5-1.4-6.4-0.1-9.2c2.3-4.6,5.4-7.6,9.9-9.4c0.3,3.6,0.7,4.3,1.3,4.3
			c0.1,0,0.2,0,0.3-0.1c0,0,0.1,0,0.1,0c0.6,0,1.3-0.7,1.9-6C22,10.7,25,9.5,32,8.7c1-0.1,1.1-0.7,1.1-1l0,0l0,0
			c-0.2-0.7-1.1-1.1-2.8-1.2c-0.1-1.1-0.2-2.1-0.8-2.9C28.1,1.3,25.6,0,22.9,0L22.9,0z"/>
	</g>
</g>
<g>
</g>
<g>
</g>
<g>
</g>
<g>
</g>
<g>
</g>
<g>
</g>
<g>
</g>
<g>
</g>
<g>
</g>
<g>
</g>
<g>
</g>
<g>
</g>
<g>
</g>
<g>
</g>
<g>
</g>
<g>
</g>
</svg>
