<?xml version="1.0" encoding="utf-8"?>
<!-- Generator: Adobe Illustrator 19.0.0, SVG Export Plug-In . SVG Version: 6.00 Build 0)  -->
<svg version="1.1" id="レイヤー_1" xmlns="http://www.w3.org/2000/svg" xmlns:xlink="http://www.w3.org/1999/xlink" x="0px"
	 y="0px" viewBox="0 0 208.1 206.1" style="enable-background:new 0 0 208.1 206.1;" xml:space="preserve">
<g id="XMLID_3_">
	<path id="XMLID_4_" d="M79.4,10.5c0.6-0.2,1.3-0.2,2-0.1c0.3,0.1,0.5,0.1,0.6,0c0.1,0,0.2-0.1,0.4-0.2c0.1,0,0.1-0.1,0.2-0.1
		c0.2-0.1,0.5,0,0.7,0.2c0.6,0.4,0.9,1,1.1,1.7c0.1,0.5,0.1,1-0.2,1.3c-0.2,0.2-0.4,0.3-0.6,0.4c-0.2,0.1-0.4,0.1-0.6,0
		c-0.2-0.1-0.3-0.2-0.5-0.4c-0.3-0.3-0.5-0.5-0.7-0.6s-0.3-0.2-0.5-0.3c-0.5-0.2-1-0.2-1.5-0.1c-0.5,0.1-0.8,0.4-1,0.8
		c-0.2,0.4-0.2,0.9-0.1,1.4c0.2,0.8,0.6,1.4,1.1,1.9c0.7,0.7,1.6,0.9,2.6,0.7c0.4-0.1,0.7-0.2,1-0.5s0.6-0.4,0.7-0.7
		c0.1-0.2,0.2-0.3,0.3-0.3c0.2,0,0.3,0,0.5,0.1c0.1,0.1,0.2,0.3,0.3,0.5c0.1,0.3,0.1,0.6,0,0.9c-0.1,0.4-0.2,0.7-0.4,0.9
		c-0.1,0.1-0.2,0.2-0.5,0.3c-0.2,0.1-0.4,0.2-0.6,0.4c-0.6,0.5-1.2,0.8-1.9,1c-0.7,0.2-1.5,0.2-2.3,0.1c-1-0.2-1.8-0.6-2.5-1.2
		c-0.7-0.6-1.1-1.4-1.4-2.2c-0.3-1-0.2-2,0.2-2.9c0.3-0.8,0.9-1.6,1.7-2.1C78.1,11,78.7,10.7,79.4,10.5z"/>
	<path id="XMLID_6_" d="M89,11.3c0.8-0.1,1.5,0,2.1,0.3c0.3,0.2,0.6,0.4,0.7,0.6s0.3,0.6,0.3,1.1l0.1,1c0.1,0.7,0.2,1.1,0.4,1.3
		c0.1,0.1,0.1,0.1,0.2,0.2s0.1,0,0.3,0c0.1,0,0.2,0.1,0.3,0.3c0,0.2,0,0.5-0.2,0.7s-0.3,0.5-0.6,0.7c-0.3,0.3-0.6,0.4-1,0.5
		c-0.5,0.1-0.9,0-1.2-0.3c-0.1-0.1-0.2-0.1-0.3-0.1c-0.1,0-0.2,0.1-0.3,0.2c-0.4,0.4-0.9,0.6-1.5,0.7c-0.6,0.1-1.1,0-1.5-0.2
		c-0.3-0.1-0.5-0.3-0.7-0.6c-0.2-0.2-0.3-0.5-0.3-0.8c-0.1-0.5,0.1-0.9,0.4-1.3c0.5-0.7,1.3-1.1,2.5-1.3c0.3,0,0.4-0.1,0.5-0.2
		c0.1-0.1,0.1-0.2,0-0.4c-0.1-0.5-0.2-0.8-0.3-1c-0.1-0.2-0.3-0.3-0.5-0.2c-0.1,0-0.2,0.1-0.3,0.2c-0.1,0.1-0.2,0.3-0.3,0.5
		c-0.3,0.6-0.7,1-1.1,1.1c-0.2,0-0.4,0-0.6-0.1c-0.2-0.1-0.3-0.3-0.3-0.5c0-0.2,0-0.4,0.2-0.7c0.1-0.2,0.3-0.5,0.6-0.7
		C87.3,11.8,88.1,11.4,89,11.3z M89.2,15.3c-0.2,0-0.4,0.1-0.5,0.3c-0.1,0.2-0.2,0.4-0.1,0.6c0,0.2,0.1,0.4,0.2,0.5
		c0.1,0.1,0.3,0.2,0.4,0.1c0.4-0.1,0.5-0.4,0.4-1c0-0.2-0.1-0.4-0.2-0.5S89.3,15.3,89.2,15.3z"/>
	<path id="XMLID_9_" d="M97.5,11.7l0.8-0.1c0.1,0,0.2,0,0.3,0c0.1,0,0.1,0.1,0.1,0.2l0,0.8c0,0.2,0,0.3-0.1,0.3s-0.1,0.1-0.3,0.1
		c0,0-0.1,0-0.2,0c-0.1,0-0.2,0-0.2,0c-0.2,0-0.3,0.1-0.4,0.2s-0.1,0.4,0,0.7c0,0.5,0.1,0.9,0.3,1.2c0.1,0.1,0.1,0.2,0.2,0.3
		c0.1,0.1,0.2,0.1,0.4,0.1c0.4,0.1,0.6,0.3,0.7,0.6c0,0.3-0.2,0.6-0.6,0.8s-1.2,0.3-2.3,0.4c-1.6,0.1-2.4-0.1-2.4-0.8
		c0-0.2,0-0.3,0.1-0.3c0.1-0.1,0.2-0.2,0.4-0.3c0.2-0.1,0.4-0.3,0.4-0.6c0-0.5,0-0.9,0-1.4c0-0.2-0.1-0.4-0.2-0.5s-0.2-0.1-0.4-0.1
		c-0.2,0-0.4,0-0.5,0c-0.1,0-0.1-0.1-0.1-0.2l0-0.9c0-0.1,0-0.2,0.1-0.3c0,0,0.1-0.1,0.3-0.1c0.2,0,0.2-0.1,0.2-0.3
		c0-0.1-0.1-0.2-0.2-0.4c-0.2-0.4-0.4-0.7-0.4-1.1c0-0.6,0.1-1,0.5-1.4c0.5-0.6,1.3-0.9,2.3-1c0.9-0.1,1.6,0.1,2.1,0.4
		c0.4,0.3,0.6,0.6,0.7,1c0,0.3-0.1,0.6-0.2,0.8s-0.4,0.3-0.7,0.4c-0.3,0-0.6-0.1-1-0.3c-0.1-0.1-0.3-0.2-0.6-0.5
		c-0.2-0.2-0.4-0.3-0.6-0.3c-0.1,0-0.2,0.1-0.3,0.2c-0.1,0.1-0.1,0.2-0.1,0.3c0,0.4,0.4,0.7,1.1,1.1c0.2,0.1,0.4,0.2,0.4,0.3
		s0.2,0.2,0.2,0.3C97.3,11.6,97.4,11.7,97.5,11.7z"/>
	<path id="XMLID_11_" d="M105.9,13.9l-3.2,0.1c-0.1,0-0.2,0.1-0.2,0.2c0,0.3,0.2,0.6,0.5,0.8c0.3,0.3,0.7,0.4,1,0.4
		c0.2,0,0.5,0,0.7-0.1c0.3-0.1,0.5-0.2,0.7-0.3c0.2-0.1,0.3-0.2,0.4-0.2c0.1,0,0.2,0.1,0.4,0.2s0.2,0.3,0.2,0.4c0,0.3-0.2,0.6-0.6,1
		c-0.7,0.6-1.5,0.8-2.5,0.9c-1,0-1.8-0.2-2.4-0.8c-0.3-0.3-0.6-0.6-0.8-1c-0.3-0.5-0.4-1.1-0.4-1.6c0-0.8,0.2-1.5,0.7-2.1
		c0.4-0.5,0.9-0.9,1.5-1.2c0.5-0.2,1-0.3,1.5-0.3c0.9,0,1.6,0.2,2.2,0.7c0.3,0.2,0.6,0.5,0.8,0.9c0.2,0.4,0.3,0.8,0.3,1.1
		c0,0.3-0.1,0.5-0.2,0.7C106.3,13.8,106.1,13.9,105.9,13.9z M102.9,12.7l0.7,0c0.3,0,0.4-0.1,0.4-0.4c0-0.2-0.1-0.4-0.2-0.6
		c-0.1-0.2-0.3-0.2-0.6-0.2c-0.3,0-0.5,0.1-0.6,0.3c-0.1,0.2-0.2,0.4-0.2,0.6c0,0.1,0,0.2,0.1,0.3S102.7,12.7,102.9,12.7z"/>
	<path id="XMLID_14_" d="M119.3,9.5l-0.8,6.2c0,0.4-0.1,0.6,0,0.7c0,0.1,0.1,0.2,0.2,0.3c0.1,0.1,0.2,0.2,0.3,0.3
		c0,0.1,0.1,0.2,0,0.3c0,0.4-0.4,0.6-1.2,0.7c-0.7,0.1-1.3,0.1-2,0c-0.1,0-0.2-0.1-0.3-0.1c0,0-0.1-0.2,0-0.3c0-0.2-0.1-0.4-0.2-0.4
		c-0.1,0-0.2,0-0.4,0.2c-0.5,0.3-1,0.4-1.6,0.4c-0.7-0.1-1.3-0.4-1.8-1c-0.3-0.4-0.5-0.7-0.7-1.2c-0.2-0.6-0.3-1.1-0.2-1.7
		c0.1-0.6,0.3-1.2,0.8-1.8c0.4-0.5,0.9-0.9,1.5-1.1c0.5-0.2,1-0.2,1.4-0.2c0.5,0.1,1,0.2,1.4,0.5c0.1,0,0.1,0.1,0.2,0.1
		c0.1,0,0.2-0.2,0.3-0.6c0-0.2,0-0.3-0.1-0.4c-0.1-0.1-0.2-0.2-0.4-0.3c-0.3-0.1-0.4-0.3-0.4-0.5c0-0.3,0.4-0.5,1.1-0.6
		c1.2-0.2,2-0.2,2.4-0.2C119.2,8.9,119.4,9.1,119.3,9.5z M115.2,12.4c-0.3,0-0.5,0.1-0.8,0.4c-0.3,0.4-0.5,0.9-0.6,1.6
		c-0.1,0.6,0,1.1,0.2,1.4c0.1,0.2,0.3,0.4,0.6,0.4c0.3,0,0.5-0.1,0.7-0.4c0.2-0.3,0.3-0.9,0.4-1.6c0.1-0.7,0.1-1.2-0.1-1.4
		C115.6,12.6,115.4,12.4,115.2,12.4z"/>
	<path id="XMLID_17_" d="M125.9,16.7l-3.1-0.7c-0.1,0-0.2,0-0.2,0.1c-0.1,0.3,0,0.6,0.3,0.9c0.3,0.3,0.6,0.5,0.9,0.6
		c0.2,0,0.5,0.1,0.7,0c0.3,0,0.5-0.1,0.7-0.2c0.2-0.1,0.3-0.1,0.4-0.1c0.1,0,0.2,0.1,0.3,0.3c0.1,0.2,0.1,0.3,0.1,0.5
		c-0.1,0.3-0.3,0.6-0.8,0.8c-0.8,0.4-1.7,0.5-2.6,0.3c-0.9-0.2-1.7-0.7-2.2-1.3c-0.2-0.3-0.4-0.7-0.5-1.1c-0.2-0.6-0.2-1.1,0-1.7
		c0.2-0.7,0.5-1.4,1.1-1.9c0.5-0.4,1.1-0.7,1.8-0.8c0.5-0.1,1-0.1,1.5,0c0.8,0.2,1.5,0.6,2,1.2c0.2,0.3,0.4,0.6,0.5,1
		c0.1,0.4,0.1,0.8,0.1,1.2c-0.1,0.3-0.2,0.5-0.3,0.7C126.3,16.7,126.1,16.8,125.9,16.7z M123.2,14.8l0.7,0.1c0.3,0.1,0.5,0,0.5-0.3
		c0.1-0.2,0-0.5-0.1-0.6c-0.1-0.2-0.3-0.3-0.5-0.3c-0.2-0.1-0.5,0-0.7,0.2c-0.2,0.2-0.3,0.3-0.3,0.5c0,0.1,0,0.2,0,0.3
		C123,14.7,123.1,14.8,123.2,14.8z"/>
	<path id="XMLID_20_" d="M135.7,16.4l-1.1,2.9c-0.2,0.7-0.3,1.1-0.3,1.3c0.1,0.3,0.3,0.5,0.8,0.7c0.5,0.2,0.9,0.2,1.3,0.1
		c0.4-0.1,0.7-0.4,1-0.8c0.2-0.3,0.4-0.3,0.6-0.3c0.2,0.1,0.4,0.3,0.4,0.5c0.1,0.3,0,0.5-0.1,0.9c-0.2,0.5-0.6,1-1.2,1.5
		c-0.2,0.1-0.4,0.2-0.5,0.3c-0.1,0-0.2,0-0.4,0l-1.4-0.7l-4.5-1.6c-0.3-0.1-0.5-0.2-0.6-0.3c-0.1-0.2-0.2-0.3-0.1-0.5
		c0-0.1,0.1-0.2,0.2-0.2s0.2-0.1,0.5-0.1c0.3,0,0.5-0.1,0.6-0.3c0.1-0.2,0.3-0.7,0.6-1.5c0.1-0.4,0.3-1,0.6-1.7
		c0.2-0.7,0.4-1.3,0.5-1.6c0.1-0.3,0.2-0.6,0.2-0.7c0-0.1-0.1-0.3-0.2-0.4c-0.2-0.2-0.4-0.3-0.5-0.4c-0.1-0.2-0.1-0.3-0.1-0.4
		c0.1-0.3,0.5-0.5,1-0.4c0.5,0,1.1,0.2,1.9,0.4c0.8,0.3,1.4,0.6,1.8,0.8c0.5,0.3,0.7,0.6,0.5,1c-0.1,0.1-0.1,0.2-0.2,0.3
		c-0.1,0-0.3,0.1-0.6,0.1c-0.2,0-0.3,0.1-0.4,0.3C136.1,15.4,135.9,15.8,135.7,16.4z"/>
	<path id="XMLID_22_" d="M144,19.3c0.7,0.3,1.2,0.8,1.6,1.4c0.2,0.3,0.3,0.6,0.2,0.9c0,0.3-0.1,0.7-0.3,1.1l-0.4,0.9
		c-0.3,0.6-0.5,1.1-0.5,1.3c0,0.1,0,0.2,0,0.2s0.1,0.1,0.2,0.2c0.1,0.1,0.1,0.2,0.1,0.4c-0.1,0.2-0.3,0.4-0.5,0.5
		c-0.3,0.1-0.6,0.2-0.9,0.2c-0.4,0-0.8,0-1.1-0.2c-0.4-0.2-0.7-0.5-0.8-0.9c0-0.1-0.1-0.2-0.2-0.3c-0.1,0-0.2,0-0.4,0
		c-0.6,0.1-1.1,0-1.6-0.2c-0.5-0.3-0.9-0.6-1.1-1c-0.1-0.3-0.2-0.5-0.2-0.8c0-0.3,0-0.6,0.2-0.9c0.2-0.4,0.6-0.7,1.1-0.9
		c0.8-0.3,1.7-0.1,2.8,0.4c0.2,0.1,0.4,0.2,0.5,0.1s0.2-0.1,0.3-0.3c0.2-0.4,0.3-0.8,0.3-1c0-0.2-0.1-0.4-0.3-0.5
		c-0.1-0.1-0.3-0.1-0.4,0s-0.3,0.1-0.6,0.2c-0.6,0.3-1.1,0.4-1.5,0.2c-0.2-0.1-0.3-0.2-0.4-0.4c-0.1-0.2-0.1-0.4,0-0.6
		c0.1-0.2,0.3-0.4,0.5-0.5c0.3-0.1,0.5-0.2,0.9-0.2C142.3,18.8,143.2,18.9,144,19.3z M141.9,22.7c-0.2-0.1-0.4-0.1-0.6,0
		c-0.2,0.1-0.4,0.2-0.5,0.4c-0.1,0.2-0.1,0.4-0.1,0.5c0,0.2,0.1,0.3,0.3,0.4c0.3,0.2,0.6,0,0.9-0.6c0.1-0.2,0.2-0.4,0.1-0.5
		C142.1,22.9,142,22.8,141.9,22.7z"/>
	<path id="XMLID_25_" d="M150.5,24.9l-1.2,2c-0.1,0.2-0.2,0.5-0.2,0.7c0,0.2,0.1,0.4,0.3,0.5c0.2,0.1,0.4,0.1,0.7,0.1
		c0.1,0,0.1,0,0.2,0c0.1,0.1,0.1,0.2,0.2,0.3c0,0.2,0,0.3-0.1,0.4c-0.1,0.2-0.4,0.4-0.8,0.5c-0.8,0.2-1.7,0-2.5-0.5
		c-0.6-0.4-1-0.8-1.2-1.4c-0.2-0.6-0.1-1.2,0.2-1.7l1.6-2.7c0.1-0.1,0.1-0.2,0.1-0.2c0,0-0.1-0.1-0.1-0.1l-0.6-0.4
		c-0.1-0.1-0.2-0.1-0.2-0.2c0-0.1,0-0.2,0.1-0.3l0.2-0.3c0.1-0.1,0.2-0.2,0.3-0.2l3.7-0.1c0.1,0,0.2,0,0.3,0.1l0.5,0.3
		c0.1,0.1,0.2,0.1,0.2,0.2c0,0.1,0,0.2-0.1,0.3l-0.5,0.8c-0.1,0.1-0.1,0.2-0.1,0.3c0,0.1,0.1,0.1,0.2,0.2l1.1,0.6
		c0.1,0.1,0.2,0.2,0.2,0.2c0,0.1,0,0.2-0.1,0.4l-0.2,0.3c-0.1,0.2-0.2,0.3-0.3,0.3c-0.1,0-0.2,0-0.4-0.1l-1.1-0.6
		c-0.1-0.1-0.2-0.1-0.3-0.1S150.6,24.7,150.5,24.9z"/>
	<path id="XMLID_27_" d="M156.1,28.5l-1.3,1.9c-0.2,0.2-0.2,0.4-0.2,0.7s0.1,0.4,0.3,0.5c0.1,0.1,0.4,0.2,0.7,0.2
		c0.1,0,0.1,0,0.2,0.1c0.1,0.1,0.1,0.2,0.1,0.3c0,0.2,0,0.3-0.1,0.4c-0.2,0.2-0.4,0.4-0.8,0.4c-0.8,0.1-1.6-0.1-2.4-0.6
		c-0.6-0.4-1-0.9-1.1-1.5c-0.1-0.6,0-1.2,0.4-1.7l1.8-2.6c0.1-0.1,0.1-0.1,0.1-0.2c0,0-0.1-0.1-0.1-0.1l-0.6-0.4
		c-0.1-0.1-0.2-0.1-0.2-0.2c0-0.1,0-0.2,0.1-0.3l0.2-0.2c0.1-0.1,0.2-0.2,0.3-0.2l3.7,0.1c0.1,0,0.2,0,0.3,0.1l0.5,0.3
		c0.1,0.1,0.1,0.1,0.1,0.2c0,0.1,0,0.2-0.1,0.3l-0.5,0.8c-0.1,0.1-0.1,0.2-0.1,0.3s0.1,0.1,0.2,0.2l1,0.7c0.1,0.1,0.2,0.2,0.2,0.3
		s0,0.2-0.2,0.4l-0.2,0.3c-0.1,0.2-0.2,0.3-0.3,0.3c-0.1,0-0.2,0-0.4-0.1l-1-0.7c-0.1-0.1-0.2-0.1-0.3-0.1
		C156.3,28.3,156.2,28.4,156.1,28.5z"/>
	<path id="XMLID_29_" d="M162,35.4l-2.5-2c-0.1-0.1-0.2-0.1-0.3,0c-0.2,0.2-0.2,0.5-0.1,1s0.3,0.7,0.6,1c0.2,0.1,0.4,0.3,0.6,0.4
		c0.3,0.1,0.5,0.2,0.7,0.2c0.2,0,0.3,0,0.4,0.1c0.1,0.1,0.1,0.2,0.1,0.4s-0.1,0.3-0.1,0.5c-0.2,0.3-0.6,0.4-1.1,0.4
		c-0.9,0-1.7-0.3-2.5-0.9c-0.7-0.6-1.2-1.3-1.4-2.2c-0.1-0.4-0.1-0.8,0-1.3c0.1-0.6,0.3-1.1,0.7-1.5c0.5-0.6,1.1-1,1.8-1.2
		c0.6-0.2,1.3-0.2,1.9,0c0.5,0.1,0.9,0.4,1.4,0.7c0.7,0.5,1.1,1.2,1.3,2c0.1,0.4,0.1,0.8,0,1.1c-0.1,0.4-0.2,0.8-0.4,1.1
		c-0.2,0.2-0.4,0.4-0.6,0.5C162.3,35.6,162.2,35.5,162,35.4z M160.4,32.5l0.5,0.4c0.2,0.2,0.4,0.2,0.6,0c0.2-0.2,0.2-0.4,0.2-0.6
		c0-0.2-0.1-0.4-0.3-0.5c-0.2-0.2-0.4-0.2-0.7-0.1c-0.2,0.1-0.4,0.2-0.5,0.3c-0.1,0.1-0.1,0.2-0.1,0.3
		C160.2,32.3,160.3,32.4,160.4,32.5z"/>
	<path id="XMLID_32_" d="M185.4,52.7c0.4,0.6,0.6,1.2,0.7,1.9c0,0.3,0.1,0.5,0.2,0.6c0,0.1,0.1,0.2,0.3,0.3c0,0,0.1,0.1,0.1,0.2
		c0.1,0.2,0.1,0.4,0.1,0.7c-0.2,0.7-0.6,1.2-1.3,1.6c-0.5,0.3-0.9,0.4-1.3,0.2c-0.2-0.1-0.4-0.3-0.5-0.5c-0.1-0.2-0.2-0.4-0.2-0.6
		s0.1-0.4,0.2-0.6c0.2-0.4,0.3-0.6,0.4-0.8c0.1-0.2,0.1-0.4,0.1-0.6c0-0.5-0.1-1-0.4-1.4c-0.3-0.4-0.6-0.6-1-0.7
		c-0.4,0-0.9,0.1-1.4,0.4c-0.7,0.4-1.2,1-1.5,1.7c-0.4,0.9-0.4,1.8,0.1,2.6c0.2,0.3,0.4,0.6,0.7,0.8c0.3,0.2,0.6,0.4,0.9,0.5
		c0.2,0.1,0.4,0.1,0.4,0.2c0.1,0.1,0.1,0.3,0,0.5c-0.1,0.2-0.2,0.3-0.4,0.4c-0.2,0.1-0.5,0.2-0.9,0.3s-0.7,0-1-0.1
		c-0.1,0-0.3-0.2-0.5-0.4c-0.1-0.1-0.3-0.3-0.6-0.4c-0.6-0.4-1.1-0.9-1.5-1.5c-0.4-0.6-0.7-1.4-0.8-2.2c-0.1-1,0-1.9,0.4-2.7
		c0.4-0.9,1-1.5,1.7-2c0.9-0.5,1.8-0.8,2.8-0.7c0.9,0.1,1.8,0.4,2.6,0.9C184.5,51.6,185,52.1,185.4,52.7z"/>
	<path id="XMLID_34_" d="M187.6,62.2c0.4,0.7,0.5,1.4,0.4,2.1c-0.1,0.4-0.2,0.6-0.4,0.9c-0.2,0.2-0.5,0.5-0.9,0.7l-0.9,0.4
		c-0.6,0.3-1,0.6-1.2,0.8c-0.1,0.1-0.1,0.2-0.1,0.2c0,0.1,0,0.1,0.1,0.3c0,0.1,0,0.2-0.2,0.3c-0.2,0.1-0.4,0.1-0.7,0.1
		c-0.3,0-0.6-0.2-0.8-0.3c-0.3-0.2-0.6-0.5-0.8-0.8c-0.2-0.4-0.2-0.8-0.1-1.2c0.1-0.1,0.1-0.2,0-0.3c0-0.1-0.1-0.2-0.3-0.2
		c-0.5-0.3-0.9-0.6-1.1-1.2c-0.3-0.5-0.4-1-0.3-1.5c0-0.3,0.2-0.6,0.3-0.8s0.4-0.4,0.7-0.6c0.4-0.2,0.9-0.2,1.4-0.1
		c0.8,0.3,1.4,0.9,2,2c0.1,0.2,0.2,0.4,0.3,0.4c0.1,0,0.2,0,0.4-0.1c0.4-0.2,0.7-0.4,0.9-0.6c0.1-0.2,0.2-0.4,0.1-0.6
		c-0.1-0.1-0.2-0.2-0.3-0.3c-0.1-0.1-0.3-0.1-0.6-0.2c-0.7-0.1-1.1-0.4-1.3-0.7c-0.1-0.2-0.1-0.4-0.1-0.6c0.1-0.2,0.2-0.3,0.4-0.4
		c0.2-0.1,0.4-0.1,0.7-0.1c0.3,0.1,0.6,0.2,0.8,0.4C186.7,60.7,187.2,61.4,187.6,62.2z M183.9,63.6c-0.1-0.2-0.2-0.3-0.5-0.4
		c-0.2-0.1-0.4,0-0.6,0.1c-0.2,0.1-0.3,0.2-0.4,0.4c-0.1,0.2-0.1,0.3,0,0.5c0.2,0.3,0.5,0.4,1.1,0.1c0.2-0.1,0.4-0.2,0.4-0.3
		C184,63.8,184,63.7,183.9,63.6z"/>
	<path id="XMLID_37_" d="M189.9,70.3l0.3,0.8c0.1,0.1,0.1,0.2,0.1,0.3s-0.1,0.1-0.2,0.2l-0.8,0.3c-0.2,0.1-0.3,0.1-0.3,0
		c-0.1,0-0.1-0.1-0.2-0.2c0,0,0-0.1-0.1-0.2c0-0.1-0.1-0.1-0.1-0.2c-0.1-0.2-0.2-0.3-0.3-0.3c-0.1,0-0.4,0-0.7,0.2
		c-0.4,0.2-0.8,0.4-1.1,0.6c-0.1,0.1-0.2,0.2-0.2,0.3c0,0.1,0,0.2,0,0.4c0,0.4-0.1,0.7-0.4,0.8c-0.3,0.1-0.6,0-0.9-0.4
		s-0.7-1.1-1.1-2c-0.6-1.5-0.6-2.3,0-2.6c0.1-0.1,0.3-0.1,0.4,0c0.1,0,0.2,0.1,0.4,0.3c0.2,0.2,0.4,0.2,0.7,0.2
		c0.4-0.1,0.9-0.2,1.4-0.4c0.2-0.1,0.3-0.2,0.4-0.3c0.1-0.1,0-0.3,0-0.4c-0.1-0.2-0.1-0.4-0.1-0.5s0-0.1,0.1-0.2l0.8-0.3
		c0.1,0,0.2-0.1,0.3,0s0.1,0.1,0.2,0.3c0.1,0.2,0.2,0.2,0.3,0.1c0.1,0,0.2-0.1,0.3-0.3c0.3-0.3,0.6-0.6,0.9-0.7c0.5-0.2,1-0.2,1.5,0
		c0.7,0.3,1.2,1,1.6,1.9c0.3,0.8,0.4,1.5,0.2,2.1c-0.1,0.5-0.4,0.8-0.8,1c-0.3,0.1-0.5,0.1-0.8,0c-0.3-0.1-0.4-0.3-0.6-0.6
		c-0.1-0.3-0.1-0.6,0-1c0-0.1,0.1-0.3,0.3-0.7c0.1-0.3,0.1-0.5,0.1-0.7c0-0.1-0.1-0.2-0.3-0.3c-0.1,0-0.2,0-0.4,0
		c-0.3,0.1-0.6,0.6-0.7,1.4c0,0.2-0.1,0.4-0.1,0.5c0,0.1-0.1,0.2-0.2,0.3C189.9,70.2,189.9,70.2,189.9,70.3z"/>
	<path id="XMLID_39_" d="M190.3,79.1l-1-3.1c0-0.1-0.1-0.2-0.2-0.1c-0.3,0.1-0.5,0.3-0.6,0.7c-0.1,0.4-0.2,0.8-0.1,1.1
		c0.1,0.2,0.2,0.4,0.3,0.7c0.2,0.2,0.3,0.4,0.5,0.5c0.2,0.1,0.2,0.2,0.3,0.3c0,0.1,0,0.2-0.1,0.4c-0.1,0.2-0.2,0.3-0.4,0.3
		c-0.3,0.1-0.7,0-1.1-0.3c-0.7-0.5-1.3-1.2-1.5-2.1c-0.3-0.9-0.3-1.8,0-2.5c0.2-0.4,0.4-0.7,0.7-1c0.4-0.4,0.9-0.7,1.4-0.9
		c0.7-0.2,1.5-0.2,2.2,0c0.6,0.2,1.2,0.6,1.6,1.1c0.3,0.4,0.6,0.8,0.7,1.3c0.3,0.8,0.3,1.6,0,2.3c-0.1,0.4-0.3,0.7-0.6,1
		c-0.3,0.3-0.6,0.5-1,0.7c-0.3,0.1-0.5,0.1-0.7,0C190.5,79.4,190.4,79.3,190.3,79.1z M190.6,75.8l0.2,0.7c0.1,0.3,0.3,0.4,0.5,0.3
		c0.2-0.1,0.4-0.2,0.5-0.4s0.1-0.4,0-0.6c-0.1-0.2-0.2-0.4-0.5-0.5c-0.2-0.1-0.4-0.1-0.6,0c-0.1,0-0.2,0.1-0.2,0.2
		S190.5,75.6,190.6,75.8z"/>
	<path id="XMLID_42_" d="M198.6,90.4l-6.1,1.1c-0.3,0.1-0.6,0.1-0.7,0.2c-0.1,0-0.2,0.1-0.2,0.3c-0.1,0.2-0.2,0.3-0.2,0.4
		s-0.2,0.1-0.3,0.1c-0.4,0.1-0.7-0.2-1-0.9c-0.3-0.6-0.5-1.3-0.6-1.9c0-0.1,0-0.2,0-0.3c0-0.1,0.1-0.1,0.3-0.1
		c0.2-0.1,0.3-0.2,0.3-0.3c0-0.1-0.1-0.2-0.3-0.3c-0.5-0.4-0.7-0.9-0.8-1.4c-0.1-0.7,0-1.4,0.4-2c0.2-0.4,0.6-0.7,0.9-1
		c0.5-0.4,1-0.6,1.5-0.7c0.6-0.1,1.3-0.1,1.9,0.2c0.6,0.2,1.1,0.6,1.5,1.1c0.3,0.4,0.5,0.9,0.6,1.3c0.1,0.5,0.1,1-0.1,1.5
		c0,0.1,0,0.1,0,0.2c0,0.1,0.2,0.2,0.6,0.1c0.2,0,0.3-0.1,0.4-0.2c0.1-0.1,0.1-0.2,0.1-0.5c0-0.3,0.2-0.5,0.4-0.5
		c0.3-0.1,0.6,0.2,0.9,0.8c0.5,1.1,0.8,1.8,0.9,2.2C199.1,90.1,199,90.4,198.6,90.4z M194.6,87.4c-0.1-0.3-0.3-0.5-0.6-0.6
		c-0.5-0.2-1-0.2-1.7,0c-0.6,0.1-1,0.3-1.3,0.6c-0.2,0.2-0.3,0.4-0.2,0.7c0.1,0.3,0.3,0.5,0.6,0.5c0.4,0.1,0.9,0,1.7-0.1
		c0.7-0.1,1.1-0.3,1.3-0.5C194.5,87.8,194.6,87.6,194.6,87.4z"/>
	<path id="XMLID_45_" d="M193.7,98.9l-0.3-3.2c0-0.1-0.1-0.2-0.2-0.2c-0.3,0-0.6,0.2-0.8,0.6c-0.2,0.3-0.3,0.7-0.3,1.1
		c0,0.2,0.1,0.5,0.2,0.7c0.1,0.3,0.2,0.5,0.4,0.6c0.1,0.1,0.2,0.3,0.2,0.4c0,0.1-0.1,0.2-0.2,0.4s-0.3,0.2-0.4,0.2
		c-0.3,0-0.7-0.1-1-0.5c-0.6-0.7-1-1.5-1-2.4c-0.1-1,0.1-1.8,0.6-2.5c0.2-0.3,0.5-0.6,0.9-0.9c0.5-0.3,1-0.5,1.6-0.5
		c0.8-0.1,1.5,0.1,2.1,0.5c0.6,0.4,1,0.8,1.3,1.4c0.2,0.4,0.4,0.9,0.4,1.5c0.1,0.9-0.1,1.6-0.5,2.3c-0.2,0.3-0.5,0.6-0.8,0.8
		c-0.4,0.2-0.7,0.4-1.1,0.4c-0.3,0-0.5,0-0.7-0.1S193.7,99.1,193.7,98.9z M194.7,95.8l0.1,0.7c0,0.3,0.2,0.4,0.4,0.4
		c0.2,0,0.4-0.1,0.6-0.3s0.2-0.3,0.2-0.6c0-0.3-0.1-0.4-0.4-0.6c-0.2-0.1-0.4-0.2-0.6-0.2c-0.1,0-0.2,0.1-0.3,0.1
		C194.7,95.5,194.7,95.6,194.7,95.8z"/>
	<path id="XMLID_48_" d="M197,108.2l-3.1-0.1c-0.7,0-1.2,0-1.4,0.1c-0.2,0.1-0.4,0.5-0.4,0.9c0,0.5,0.1,0.9,0.3,1.2
		c0.2,0.3,0.6,0.5,1,0.7c0.3,0.1,0.4,0.2,0.4,0.5c0,0.2-0.1,0.4-0.3,0.6c-0.2,0.1-0.5,0.2-0.9,0.2c-0.6,0-1.2-0.3-1.8-0.7
		c-0.2-0.1-0.3-0.3-0.4-0.4s-0.1-0.2-0.1-0.4l0.2-1.5l0.2-4.8c0-0.3,0.1-0.5,0.1-0.7c0.1-0.2,0.3-0.3,0.5-0.3c0.1,0,0.2,0,0.3,0.1
		c0.1,0.1,0.1,0.2,0.2,0.5c0.1,0.3,0.3,0.4,0.5,0.5c0.2,0.1,0.7,0.1,1.6,0.2c0.4,0,1,0,1.8,0c0.8,0,1.3,0,1.7,0c0.4,0,0.6,0,0.8-0.1
		s0.2-0.2,0.3-0.3c0.1-0.3,0.2-0.5,0.3-0.6c0.1-0.1,0.3-0.2,0.4-0.2c0.3,0,0.6,0.3,0.7,0.9c0.1,0.5,0.2,1.1,0.2,1.9
		c0,0.9-0.1,1.5-0.2,2c-0.1,0.6-0.4,0.8-0.8,0.8c-0.2,0-0.3,0-0.3-0.1c-0.1-0.1-0.2-0.3-0.3-0.6c-0.1-0.2-0.2-0.3-0.4-0.3
		C198.1,108.2,197.7,108.2,197,108.2z"/>
	<path id="XMLID_50_" d="M196.7,116.9c-0.1,0.8-0.4,1.4-0.9,1.9c-0.3,0.3-0.5,0.4-0.8,0.5c-0.3,0.1-0.7,0.1-1.2,0l-1-0.1
		c-0.7-0.1-1.2-0.1-1.4,0c-0.1,0-0.2,0.1-0.2,0.1s-0.1,0.1-0.1,0.3c0,0.1-0.1,0.2-0.3,0.2c-0.2,0-0.4-0.1-0.6-0.4
		c-0.2-0.2-0.4-0.5-0.5-0.8c-0.2-0.4-0.2-0.7-0.2-1.1c0.1-0.5,0.3-0.8,0.6-1.1c0.1-0.1,0.2-0.2,0.2-0.2c0-0.1,0-0.2-0.1-0.4
		c-0.3-0.5-0.4-1-0.3-1.6c0.1-0.6,0.3-1.1,0.6-1.4c0.2-0.2,0.4-0.4,0.7-0.5c0.3-0.1,0.6-0.1,0.9-0.1c0.5,0.1,0.9,0.3,1.2,0.7
		c0.5,0.7,0.7,1.6,0.5,2.8c0,0.3,0,0.4,0,0.5s0.2,0.1,0.3,0.1c0.5,0.1,0.8,0.1,1.1,0c0.2-0.1,0.4-0.2,0.4-0.4c0-0.1,0-0.3-0.1-0.4
		c-0.1-0.1-0.2-0.3-0.4-0.5c-0.5-0.5-0.8-0.9-0.7-1.4c0-0.2,0.1-0.4,0.3-0.5c0.1-0.1,0.3-0.2,0.5-0.1c0.2,0,0.4,0.1,0.6,0.3
		c0.2,0.2,0.4,0.5,0.5,0.8C196.8,115.2,196.9,116,196.7,116.9z M192.9,116c0-0.2,0-0.4-0.2-0.6c-0.1-0.2-0.3-0.3-0.6-0.3
		c-0.2,0-0.4,0-0.5,0.1c-0.1,0.1-0.2,0.2-0.3,0.4c0,0.4,0.2,0.6,0.8,0.7c0.2,0,0.4,0,0.5,0S192.9,116.1,192.9,116z"/>
	<path id="XMLID_53_" d="M193.5,124.9l-2.3-0.5c-0.3-0.1-0.5,0-0.7,0.1c-0.2,0.1-0.3,0.2-0.4,0.5c0,0.2,0,0.4,0.1,0.7
		c0,0.1,0,0.1,0,0.2c0,0.1-0.1,0.2-0.3,0.3s-0.3,0.1-0.5,0c-0.3-0.1-0.5-0.3-0.7-0.6c-0.4-0.7-0.5-1.6-0.3-2.5
		c0.2-0.7,0.5-1.2,1-1.6s1.1-0.4,1.7-0.3l3.1,0.7c0.1,0,0.2,0,0.2,0c0,0,0.1-0.1,0.1-0.2l0.1-0.7c0-0.1,0.1-0.2,0.1-0.2
		c0,0,0.2,0,0.3,0l0.3,0.1c0.1,0,0.2,0.1,0.3,0.2l1.3,3.5c0,0.1,0,0.2,0,0.3l-0.1,0.5c0,0.1-0.1,0.2-0.1,0.2c-0.1,0-0.2,0-0.3,0
		l-0.9-0.2c-0.1,0-0.2,0-0.3,0c0,0-0.1,0.1-0.1,0.3l-0.3,1.2c0,0.2-0.1,0.3-0.2,0.3c-0.1,0-0.2,0-0.4,0L194,127
		c-0.2,0-0.4-0.1-0.4-0.2c-0.1-0.1-0.1-0.2-0.1-0.4l0.3-1.2c0-0.1,0-0.2,0-0.3C193.7,124.9,193.6,124.9,193.5,124.9z"/>
	<path id="XMLID_55_" d="M191.8,131.3l-2.2-0.6c-0.3-0.1-0.5-0.1-0.7,0c-0.2,0.1-0.3,0.2-0.4,0.4c0,0.2,0,0.4,0,0.7
		c0,0.1,0,0.1,0,0.2c0,0.1-0.1,0.2-0.3,0.2s-0.3,0.1-0.5,0c-0.3-0.1-0.5-0.3-0.7-0.7c-0.3-0.8-0.4-1.6-0.1-2.5
		c0.2-0.7,0.6-1.2,1.1-1.5s1.1-0.4,1.8-0.2l3,0.9c0.1,0,0.2,0,0.2,0c0,0,0.1-0.1,0.1-0.2l0.2-0.7c0-0.1,0.1-0.2,0.1-0.2s0.2,0,0.3,0
		l0.3,0.1c0.1,0,0.2,0.1,0.2,0.2l1,3.6c0,0.1,0,0.2,0,0.3l-0.2,0.5c0,0.1-0.1,0.2-0.1,0.2c-0.1,0-0.2,0-0.3,0l-0.9-0.3
		c-0.1,0-0.2,0-0.3,0c-0.1,0-0.1,0.1-0.1,0.2l-0.4,1.2c0,0.2-0.1,0.3-0.2,0.3c-0.1,0-0.2,0-0.4,0l-0.4-0.1c-0.2-0.1-0.3-0.1-0.4-0.2
		c-0.1-0.1-0.1-0.2,0-0.4l0.3-1.2c0-0.1,0-0.2,0-0.3C192,131.4,191.9,131.3,191.8,131.3z"/>
	<path id="XMLID_57_" d="M187,139l1.1-3c0-0.1,0-0.2-0.1-0.3c-0.3-0.1-0.6-0.1-1,0.2c-0.4,0.2-0.6,0.5-0.7,0.8
		c-0.1,0.2-0.1,0.4-0.1,0.7c0,0.3,0,0.5,0.1,0.7c0,0.2,0.1,0.3,0,0.4c0,0.1-0.2,0.2-0.3,0.2s-0.3,0.1-0.5,0
		c-0.3-0.1-0.5-0.4-0.7-0.9c-0.3-0.9-0.2-1.7,0.1-2.6c0.3-0.9,0.9-1.5,1.6-2c0.4-0.2,0.8-0.3,1.2-0.4c0.6-0.1,1.1,0,1.7,0.2
		c0.7,0.3,1.3,0.7,1.7,1.4c0.4,0.6,0.5,1.2,0.6,1.9c0,0.5-0.1,1-0.3,1.5c-0.3,0.8-0.8,1.4-1.5,1.8c-0.3,0.2-0.7,0.3-1.1,0.4
		c-0.4,0.1-0.8,0-1.2-0.1c-0.3-0.1-0.5-0.2-0.6-0.4C186.9,139.4,186.9,139.2,187,139z M189.2,136.7l-0.2,0.6c-0.1,0.3,0,0.5,0.2,0.6
		c0.2,0.1,0.4,0.1,0.6,0c0.2-0.1,0.3-0.2,0.4-0.4c0.1-0.2,0.1-0.5-0.1-0.7c-0.1-0.2-0.3-0.3-0.5-0.4c-0.1,0-0.2-0.1-0.3,0
		C189.4,136.4,189.3,136.5,189.2,136.7z"/>
	<path id="XMLID_60_" d="M177.6,166.6c-0.4,0.5-0.9,0.9-1.6,1.2c-0.3,0.1-0.5,0.2-0.5,0.3c-0.1,0.1-0.1,0.2-0.2,0.3
		c0,0.1-0.1,0.1-0.1,0.2c-0.2,0.2-0.4,0.3-0.7,0.3c-0.7,0-1.3-0.3-1.9-0.8c-0.4-0.4-0.6-0.8-0.6-1.2c0-0.2,0.1-0.5,0.3-0.7
		c0.1-0.2,0.3-0.3,0.5-0.3c0.2,0,0.4,0,0.7,0c0.4,0.1,0.7,0.1,0.9,0.1c0.2,0,0.4,0,0.6-0.1c0.5-0.1,0.9-0.4,1.2-0.8
		c0.3-0.4,0.4-0.8,0.3-1.2c-0.1-0.4-0.3-0.8-0.8-1.2c-0.6-0.5-1.3-0.8-2-0.9c-1-0.1-1.8,0.2-2.5,0.9c-0.2,0.3-0.4,0.6-0.6,1
		s-0.2,0.7-0.2,1c0,0.2,0,0.4-0.1,0.5c-0.1,0.1-0.2,0.2-0.4,0.2c-0.2,0-0.4-0.1-0.5-0.2c-0.2-0.2-0.4-0.4-0.5-0.8
		c-0.2-0.3-0.2-0.6-0.2-0.9c0-0.1,0.1-0.3,0.2-0.6c0.1-0.2,0.2-0.4,0.2-0.7c0.2-0.7,0.5-1.4,1-1.9c0.5-0.6,1.1-1.1,1.9-1.4
		c0.9-0.4,1.8-0.6,2.7-0.4c0.9,0.1,1.7,0.5,2.4,1c0.8,0.6,1.3,1.5,1.5,2.5c0.2,0.9,0.2,1.8-0.1,2.7
		C178.4,165.4,178.1,166,177.6,166.6z"/>
	<path id="XMLID_62_" d="M169.3,171.6c-0.6,0.6-1.2,0.9-1.9,1c-0.4,0.1-0.7,0-1-0.1s-0.6-0.3-0.9-0.7l-0.7-0.7
		c-0.5-0.5-0.9-0.8-1.1-0.9c-0.1,0-0.2,0-0.2,0s-0.1,0.1-0.3,0.1s-0.2,0.1-0.4-0.1c-0.2-0.2-0.3-0.4-0.3-0.7s0-0.6,0.1-0.9
		c0.1-0.4,0.3-0.7,0.6-1c0.3-0.3,0.7-0.5,1.2-0.4c0.2,0,0.3,0,0.3-0.1c0.1-0.1,0.1-0.2,0.1-0.4c0.1-0.6,0.3-1,0.8-1.4
		c0.4-0.4,0.9-0.7,1.3-0.7c0.3,0,0.6,0,0.9,0.1s0.5,0.2,0.7,0.5c0.3,0.3,0.5,0.8,0.5,1.3c0,0.8-0.5,1.7-1.3,2.5
		c-0.2,0.2-0.3,0.3-0.3,0.4c0,0.1,0,0.2,0.2,0.3c0.3,0.3,0.6,0.6,0.8,0.6c0.2,0.1,0.4,0,0.6-0.1c0.1-0.1,0.2-0.2,0.2-0.3
		c0-0.1,0-0.3,0-0.6c-0.1-0.7,0-1.2,0.3-1.5c0.2-0.2,0.3-0.2,0.5-0.2s0.4,0.1,0.5,0.2c0.2,0.2,0.2,0.4,0.3,0.7c0,0.3,0,0.6-0.1,0.9
		C170.4,170.2,169.9,171,169.3,171.6z M166.8,168.5c0.1-0.1,0.2-0.3,0.2-0.5c0-0.2-0.1-0.4-0.3-0.6c-0.2-0.2-0.3-0.2-0.5-0.3
		s-0.3,0-0.4,0.1c-0.3,0.3-0.2,0.6,0.3,1c0.2,0.2,0.3,0.3,0.4,0.3C166.6,168.6,166.7,168.6,166.8,168.5z"/>
	<path id="XMLID_65_" d="M162.2,176.2l-0.6,0.5c-0.1,0.1-0.2,0.1-0.3,0.1s-0.1,0-0.2-0.1l-0.5-0.7c-0.1-0.1-0.1-0.2-0.1-0.3
		c0-0.1,0.1-0.1,0.2-0.2c0,0,0.1-0.1,0.2-0.1c0.1,0,0.1-0.1,0.2-0.1c0.1-0.1,0.2-0.3,0.2-0.4c0-0.1-0.2-0.3-0.4-0.6
		c-0.3-0.4-0.6-0.6-0.9-0.8c-0.1-0.1-0.2-0.1-0.3-0.1c-0.1,0-0.2,0-0.4,0.1c-0.4,0.2-0.7,0.1-0.9-0.1c-0.2-0.3-0.2-0.6,0.1-1
		s0.8-1,1.6-1.7c1.2-1,2-1.3,2.4-0.8c0.1,0.1,0.1,0.2,0.1,0.3c0,0.1-0.1,0.3-0.2,0.5c-0.1,0.2-0.1,0.5,0.1,0.7
		c0.2,0.4,0.5,0.8,0.8,1.2c0.1,0.2,0.3,0.3,0.4,0.3s0.3,0,0.4-0.2c0.2-0.2,0.3-0.3,0.4-0.3c0.1,0,0.1,0,0.2,0.1l0.5,0.7
		c0.1,0.1,0.1,0.2,0.1,0.2c0,0.1-0.1,0.1-0.2,0.3c-0.1,0.1-0.1,0.2,0,0.4c0,0,0.2,0.1,0.4,0.2c0.4,0.2,0.7,0.4,1,0.7
		c0.4,0.4,0.5,0.9,0.4,1.4c-0.1,0.8-0.5,1.5-1.3,2.1c-0.7,0.6-1.3,0.8-2,0.9c-0.5,0-0.9-0.1-1.2-0.4c-0.2-0.2-0.3-0.5-0.3-0.8
		s0.1-0.5,0.4-0.7c0.3-0.2,0.6-0.3,0.9-0.3c0.1,0,0.3,0,0.7,0.1c0.3,0,0.5,0,0.7-0.1c0.1-0.1,0.2-0.2,0.2-0.3c0-0.1,0-0.2-0.1-0.3
		c-0.2-0.3-0.7-0.3-1.5-0.2c-0.2,0-0.4,0.1-0.5,0c-0.1,0-0.2,0-0.4-0.1C162.4,176.1,162.3,176.2,162.2,176.2z"/>
	<path id="XMLID_67_" d="M154,179.3l2.6-1.9c0.1-0.1,0.1-0.2,0.1-0.3c-0.2-0.2-0.5-0.4-0.9-0.4c-0.4,0-0.8,0.1-1.1,0.3
		c-0.2,0.1-0.3,0.3-0.5,0.5s-0.3,0.4-0.4,0.6c-0.1,0.2-0.1,0.3-0.2,0.3c-0.1,0.1-0.2,0.1-0.4,0c-0.2-0.1-0.3-0.1-0.4-0.3
		c-0.2-0.3-0.2-0.6-0.1-1.1c0.3-0.9,0.8-1.6,1.6-2.1c0.8-0.6,1.6-0.8,2.4-0.7c0.4,0,0.8,0.2,1.2,0.3c0.5,0.3,0.9,0.6,1.3,1.1
		c0.4,0.6,0.7,1.3,0.6,2.1c0,0.7-0.2,1.3-0.5,1.9c-0.3,0.4-0.6,0.8-1.1,1.1c-0.7,0.5-1.4,0.7-2.2,0.7c-0.4,0-0.8-0.1-1.1-0.3
		c-0.4-0.2-0.7-0.4-0.9-0.7c-0.2-0.2-0.3-0.5-0.3-0.7S153.8,179.4,154,179.3z M157.2,178.6l-0.6,0.4c-0.2,0.2-0.3,0.4-0.1,0.6
		c0.1,0.2,0.3,0.3,0.5,0.4s0.4,0,0.6-0.1c0.2-0.1,0.3-0.3,0.3-0.6c0-0.2-0.1-0.4-0.2-0.6c-0.1-0.1-0.2-0.2-0.2-0.2
		C157.5,178.4,157.4,178.5,157.2,178.6z"/>
	<path id="XMLID_70_" d="M145.8,190.7l-3-5.5c-0.2-0.3-0.3-0.5-0.4-0.6c-0.1-0.1-0.2-0.1-0.4-0.1c-0.2,0-0.3-0.1-0.4-0.1
		c-0.1,0-0.2-0.1-0.2-0.2c-0.2-0.3,0-0.7,0.6-1.3c0.5-0.5,1-0.8,1.6-1.2c0.1-0.1,0.2-0.1,0.3-0.1s0.1,0.1,0.2,0.2
		c0.1,0.2,0.3,0.3,0.4,0.2c0.1,0,0.1-0.2,0.2-0.4c0.2-0.6,0.6-1,1.1-1.2c0.6-0.3,1.3-0.4,2.1-0.2c0.4,0.1,0.9,0.3,1.2,0.6
		c0.5,0.3,0.9,0.8,1.1,1.2c0.3,0.6,0.4,1.2,0.4,1.9c0,0.6-0.2,1.2-0.6,1.8c-0.3,0.4-0.7,0.8-1.1,1c-0.5,0.3-0.9,0.4-1.4,0.4
		c-0.1,0-0.1,0-0.2,0c-0.1,0.1-0.1,0.3,0.1,0.6c0.1,0.1,0.2,0.2,0.3,0.3c0.1,0,0.3,0,0.5,0c0.3-0.1,0.5,0,0.6,0.2
		c0.2,0.3,0,0.7-0.5,1.2c-0.9,0.8-1.5,1.4-1.8,1.5C146.2,191.1,145.9,191,145.8,190.7z M147.4,185.9c0.3-0.1,0.4-0.4,0.4-0.7
		c0-0.5-0.2-1-0.5-1.6c-0.3-0.5-0.6-0.9-1-1.1c-0.2-0.1-0.5-0.1-0.7,0c-0.3,0.1-0.4,0.4-0.3,0.8s0.2,0.9,0.6,1.6
		c0.3,0.6,0.6,1,0.9,1.1C147,186,147.2,186,147.4,185.9z"/>
	<path id="XMLID_73_" d="M136.2,188.6l3-1.3c0.1-0.1,0.2-0.1,0.1-0.3c-0.1-0.3-0.4-0.5-0.8-0.6s-0.8-0.1-1.1,0
		c-0.2,0.1-0.4,0.2-0.6,0.4c-0.2,0.2-0.4,0.4-0.5,0.5c-0.1,0.2-0.2,0.3-0.3,0.3c-0.1,0-0.2,0-0.4-0.1s-0.3-0.2-0.3-0.3
		c-0.1-0.3-0.1-0.7,0.2-1.1c0.5-0.8,1.1-1.4,2-1.7c0.9-0.4,1.7-0.4,2.5-0.2c0.4,0.1,0.8,0.3,1.1,0.6c0.4,0.4,0.8,0.8,1,1.3
		c0.3,0.7,0.4,1.4,0.2,2.2c-0.2,0.6-0.5,1.2-0.9,1.7c-0.4,0.4-0.8,0.6-1.3,0.9c-0.8,0.3-1.6,0.4-2.3,0.2c-0.4-0.1-0.7-0.3-1-0.5
		c-0.3-0.3-0.6-0.6-0.7-0.9c-0.1-0.3-0.2-0.5-0.1-0.7C135.9,188.9,136,188.7,136.2,188.6z M139.5,188.6l-0.6,0.3
		c-0.3,0.1-0.3,0.3-0.2,0.5c0.1,0.2,0.2,0.4,0.4,0.5c0.2,0.1,0.4,0.1,0.6,0c0.2-0.1,0.4-0.3,0.4-0.5c0.1-0.2,0-0.4,0-0.6
		c-0.1-0.1-0.1-0.2-0.2-0.2S139.6,188.6,139.5,188.6z"/>
	<path id="XMLID_76_" d="M128.4,194.6l-0.8-3c-0.2-0.7-0.4-1.1-0.5-1.3c-0.2-0.2-0.5-0.2-1-0.1c-0.5,0.1-0.9,0.4-1.1,0.7
		c-0.2,0.3-0.3,0.7-0.3,1.2c0,0.3-0.1,0.5-0.3,0.6c-0.2,0.1-0.5,0-0.7-0.2c-0.2-0.2-0.4-0.4-0.4-0.8c-0.2-0.5-0.1-1.2,0.1-1.9
		c0.1-0.2,0.1-0.4,0.2-0.5c0.1-0.1,0.2-0.2,0.3-0.2l1.5-0.2l4.6-1.3c0.3-0.1,0.5-0.1,0.7-0.1c0.2,0.1,0.3,0.2,0.4,0.4
		c0,0.1,0,0.2,0,0.3c0,0.1-0.2,0.2-0.4,0.4c-0.2,0.2-0.3,0.4-0.3,0.6c0,0.2,0.1,0.7,0.4,1.6c0.1,0.4,0.3,1,0.5,1.7
		c0.2,0.7,0.4,1.3,0.5,1.6c0.1,0.4,0.2,0.6,0.3,0.7s0.2,0.2,0.4,0.2c0.3,0,0.5,0,0.6,0.1c0.2,0.1,0.3,0.2,0.3,0.3
		c0.1,0.3-0.1,0.6-0.6,1c-0.4,0.3-1,0.5-1.8,0.7c-0.9,0.2-1.5,0.4-1.9,0.4c-0.6,0-0.9-0.1-1-0.5c0-0.1,0-0.3,0-0.4
		c0.1-0.1,0.2-0.2,0.5-0.4c0.1-0.1,0.2-0.3,0.2-0.5C128.6,195.6,128.5,195.2,128.4,194.6z"/>
	<path id="XMLID_78_" d="M120,197c-0.8,0.1-1.5,0.1-2.1-0.2c-0.3-0.2-0.6-0.4-0.7-0.6s-0.3-0.6-0.4-1.1l-0.2-1
		c-0.1-0.7-0.3-1.1-0.4-1.3c-0.1-0.1-0.1-0.1-0.2-0.2c0,0-0.1,0-0.3,0c-0.1,0-0.2-0.1-0.3-0.2c0-0.2,0-0.5,0.1-0.7
		c0.1-0.3,0.3-0.5,0.6-0.7c0.3-0.3,0.6-0.4,1-0.5c0.5-0.1,0.9,0,1.2,0.3c0.1,0.1,0.2,0.1,0.3,0.1c0.1,0,0.2-0.1,0.3-0.2
		c0.4-0.4,0.9-0.7,1.4-0.8c0.6-0.1,1.1-0.1,1.5,0.1c0.3,0.1,0.5,0.3,0.7,0.5c0.2,0.2,0.3,0.5,0.4,0.8c0.1,0.5,0,0.9-0.3,1.3
		c-0.5,0.7-1.3,1.1-2.5,1.3c-0.3,0-0.4,0.1-0.5,0.2c-0.1,0.1-0.1,0.2,0,0.4c0.1,0.5,0.2,0.8,0.3,1s0.3,0.3,0.5,0.2
		c0.1,0,0.2-0.1,0.3-0.2s0.2-0.3,0.3-0.5c0.3-0.6,0.7-1,1.1-1.1c0.2,0,0.4,0,0.6,0.1s0.3,0.3,0.3,0.5c0,0.2,0,0.4-0.1,0.7
		c-0.1,0.2-0.3,0.5-0.6,0.7C121.7,196.5,120.8,196.8,120,197z M119.7,193c0.2,0,0.4-0.1,0.5-0.3c0.1-0.2,0.2-0.4,0.1-0.6
		c0-0.2-0.1-0.4-0.2-0.5c-0.1-0.1-0.3-0.2-0.4-0.1c-0.4,0.1-0.5,0.4-0.4,1c0,0.2,0.1,0.4,0.2,0.5C119.5,193,119.6,193,119.7,193z"/>
	<path id="XMLID_81_" d="M111.4,196.3l-0.2-2.3c0-0.3-0.1-0.5-0.3-0.6c-0.2-0.2-0.3-0.2-0.5-0.2c-0.2,0-0.4,0.1-0.7,0.3
		c-0.1,0-0.1,0.1-0.2,0.1c-0.1,0-0.2,0-0.3-0.2c-0.1-0.1-0.2-0.3-0.2-0.4c0-0.3,0.1-0.6,0.4-0.9c0.6-0.6,1.3-1,2.3-1
		c0.7-0.1,1.3,0.1,1.8,0.4c0.5,0.4,0.8,0.9,0.8,1.6l0.3,3.1c0,0.1,0,0.2,0.1,0.2s0.1,0,0.2,0l0.7-0.1c0.1,0,0.2,0,0.3,0
		c0,0,0.1,0.1,0.1,0.3l0,0.3c0,0.1,0,0.2-0.1,0.3l-2.9,2.3c-0.1,0-0.2,0.1-0.3,0.1l-0.6,0.1c-0.1,0-0.2,0-0.2-0.1
		c0,0-0.1-0.2-0.1-0.3l-0.1-0.9c0-0.1,0-0.2-0.1-0.3c0,0-0.1,0-0.3,0l-1.3,0.1c-0.2,0-0.3,0-0.3-0.1c-0.1-0.1-0.1-0.2-0.1-0.4l0-0.4
		c0-0.2,0-0.4,0.1-0.5c0.1-0.1,0.2-0.1,0.3-0.2l1.2-0.1c0.1,0,0.2,0,0.3-0.1C111.4,196.5,111.4,196.4,111.4,196.3z"/>
	<path id="XMLID_83_" d="M104.7,196.6l-0.1-2.3c0-0.3-0.1-0.5-0.2-0.7s-0.3-0.3-0.5-0.2c-0.2,0-0.4,0.1-0.7,0.3
		c-0.1,0-0.1,0.1-0.2,0.1c-0.1,0-0.2-0.1-0.3-0.2c-0.1-0.1-0.1-0.3-0.1-0.4c0-0.3,0.1-0.6,0.4-0.8c0.6-0.6,1.4-0.9,2.3-0.9
		c0.7,0,1.3,0.2,1.8,0.6c0.5,0.4,0.7,0.9,0.7,1.6l0.1,3.2c0,0.1,0,0.2,0,0.2c0,0,0.1,0,0.2,0l0.7,0c0.1,0,0.2,0,0.3,0.1
		c0,0,0.1,0.1,0.1,0.3l0,0.3c0,0.1-0.1,0.2-0.1,0.3l-3.1,2c-0.1,0-0.2,0.1-0.3,0.1l-0.6,0c-0.1,0-0.2,0-0.2-0.1
		c0-0.1-0.1-0.2-0.1-0.3l0-0.9c0-0.1,0-0.2-0.1-0.3c0,0-0.1-0.1-0.3-0.1l-1.3,0c-0.2,0-0.3,0-0.3-0.1c-0.1-0.1-0.1-0.2-0.1-0.4
		l0-0.4c0-0.2,0-0.4,0.1-0.5c0.1-0.1,0.2-0.1,0.3-0.1l1.2,0c0.1,0,0.2,0,0.3-0.1C104.7,196.9,104.7,196.8,104.7,196.6z"/>
	<path id="XMLID_85_" d="M95.9,194.4l3.2,0.2c0.1,0,0.2-0.1,0.2-0.2c0-0.3-0.1-0.6-0.4-0.9c-0.3-0.3-0.6-0.4-1-0.4
		c-0.2,0-0.5,0-0.7,0.1s-0.5,0.2-0.7,0.3c-0.2,0.1-0.3,0.1-0.4,0.1c-0.1,0-0.2-0.1-0.3-0.2s-0.2-0.3-0.1-0.5c0-0.3,0.2-0.6,0.7-0.9
		c0.8-0.5,1.6-0.7,2.5-0.7c1,0,1.7,0.4,2.4,1c0.3,0.3,0.5,0.6,0.7,1c0.2,0.5,0.3,1.1,0.3,1.6c0,0.8-0.3,1.4-0.8,2
		c-0.4,0.5-1,0.9-1.6,1.1c-0.5,0.2-1,0.2-1.5,0.2c-0.9,0-1.6-0.3-2.2-0.8c-0.3-0.3-0.5-0.6-0.7-0.9c-0.2-0.4-0.3-0.8-0.3-1.1
		c0-0.3,0.1-0.5,0.2-0.7C95.6,194.5,95.7,194.4,95.9,194.4z M98.9,195.9l-0.7,0c-0.3,0-0.4,0.1-0.5,0.4c0,0.2,0,0.4,0.2,0.6
		c0.1,0.2,0.3,0.2,0.5,0.3c0.3,0,0.5-0.1,0.6-0.3c0.1-0.2,0.2-0.4,0.2-0.6c0-0.1,0-0.2-0.1-0.3C99.2,195.9,99,195.9,98.9,195.9z"/>
	<path id="XMLID_88_" d="M66.8,194c-0.6-0.2-1.2-0.6-1.6-1.1c-0.2-0.2-0.4-0.4-0.5-0.4c-0.1,0-0.2-0.1-0.4-0.1c-0.1,0-0.1,0-0.2-0.1
		c-0.2-0.1-0.4-0.3-0.5-0.5c-0.2-0.7-0.2-1.3,0.1-2.1c0.2-0.5,0.5-0.8,1-0.9c0.2,0,0.5,0,0.7,0.1c0.2,0.1,0.4,0.2,0.5,0.4
		s0.2,0.4,0.2,0.7c0,0.4,0.1,0.7,0.2,0.9c0.1,0.2,0.1,0.4,0.3,0.6c0.3,0.5,0.7,0.8,1.1,1c0.4,0.2,0.8,0.2,1.2-0.1
		c0.4-0.2,0.7-0.6,0.9-1.1c0.3-0.7,0.4-1.5,0.3-2.2c-0.2-1-0.7-1.7-1.7-2.1c-0.3-0.1-0.7-0.2-1.1-0.2c-0.4,0-0.7,0-1,0.1
		c-0.2,0.1-0.4,0.1-0.5,0.1c-0.1-0.1-0.2-0.2-0.3-0.4c0-0.2,0-0.4,0-0.6c0.1-0.2,0.3-0.5,0.6-0.7c0.3-0.2,0.5-0.4,0.8-0.5
		c0.1,0,0.3,0,0.6,0c0.2,0,0.4,0,0.7,0c0.7,0,1.5,0.1,2.1,0.3c0.7,0.3,1.3,0.7,1.9,1.3c0.7,0.7,1.1,1.5,1.3,2.5
		c0.2,0.9,0.1,1.8-0.2,2.6c-0.4,0.9-1,1.7-1.9,2.2c-0.8,0.5-1.6,0.7-2.6,0.7C68.2,194.4,67.5,194.2,66.8,194z"/>
	<path id="XMLID_90_" d="M59.5,187.6c-0.7-0.4-1.2-0.9-1.5-1.5c-0.2-0.3-0.2-0.6-0.2-0.9c0-0.3,0.2-0.7,0.4-1.1l0.5-0.9
		c0.3-0.6,0.5-1.1,0.5-1.3c0-0.1,0-0.2,0-0.2c0,0-0.1-0.1-0.2-0.2c-0.1-0.1-0.1-0.2-0.1-0.4c0.1-0.2,0.3-0.4,0.6-0.5
		c0.3-0.1,0.6-0.2,0.9-0.2c0.4,0,0.8,0.1,1.1,0.2c0.4,0.2,0.7,0.5,0.8,1c0,0.1,0.1,0.2,0.2,0.3c0.1,0,0.2,0,0.4,0
		c0.6-0.1,1.1,0,1.6,0.3c0.5,0.3,0.9,0.6,1.1,1c0.1,0.3,0.2,0.5,0.2,0.9s-0.1,0.6-0.2,0.9c-0.2,0.4-0.6,0.7-1.1,0.8
		c-0.8,0.2-1.7,0.1-2.8-0.5c-0.2-0.1-0.4-0.2-0.5-0.2s-0.2,0.1-0.3,0.3c-0.2,0.4-0.3,0.8-0.4,1c0,0.2,0.1,0.4,0.3,0.5
		c0.1,0.1,0.2,0.1,0.4,0.1c0.1,0,0.3-0.1,0.6-0.2c0.6-0.3,1.1-0.4,1.5-0.2c0.2,0.1,0.3,0.2,0.4,0.4c0.1,0.2,0,0.4-0.1,0.6
		c-0.1,0.2-0.3,0.3-0.5,0.5c-0.3,0.1-0.6,0.2-0.9,0.2C61.1,188.2,60.3,188,59.5,187.6z M61.7,184.3c0.2,0.1,0.4,0.1,0.6,0
		s0.4-0.2,0.5-0.4c0.1-0.2,0.1-0.4,0.1-0.5s-0.1-0.3-0.3-0.4c-0.3-0.2-0.6,0-0.9,0.6c-0.1,0.2-0.2,0.4-0.2,0.5
		C61.5,184.1,61.6,184.2,61.7,184.3z"/>
	<path id="XMLID_93_" d="M52.9,182.2l-0.7-0.5c-0.1-0.1-0.2-0.1-0.2-0.2c0-0.1,0-0.1,0-0.2l0.5-0.7c0.1-0.1,0.2-0.2,0.2-0.2
		s0.1,0,0.3,0.1c0,0,0.1,0.1,0.2,0.1c0.1,0,0.1,0.1,0.2,0.1c0.2,0.1,0.3,0.1,0.4,0c0.1-0.1,0.3-0.3,0.5-0.5c0.3-0.4,0.4-0.8,0.5-1.1
		c0-0.1,0-0.3,0-0.4c0-0.1-0.1-0.2-0.2-0.4c-0.3-0.3-0.3-0.6-0.2-0.9c0.2-0.3,0.5-0.4,1-0.3s1.2,0.5,2.1,1c1.3,0.8,1.8,1.5,1.5,2.1
		c-0.1,0.1-0.2,0.2-0.3,0.2s-0.3,0-0.5,0c-0.3,0-0.5,0.1-0.7,0.3c-0.3,0.3-0.6,0.7-0.9,1.2c-0.1,0.2-0.2,0.3-0.2,0.5
		c0,0.1,0.1,0.2,0.3,0.3c0.2,0.1,0.3,0.2,0.4,0.3c0,0.1,0,0.1,0,0.2l-0.5,0.7c-0.1,0.1-0.2,0.2-0.2,0.2s-0.2,0-0.3-0.1
		c-0.1-0.1-0.3-0.1-0.3,0.1c0,0.1-0.1,0.2-0.1,0.5c0,0.4-0.1,0.8-0.3,1.1c-0.3,0.5-0.7,0.8-1.2,0.8c-0.7,0.1-1.6-0.1-2.5-0.6
		c-0.7-0.5-1.2-1-1.4-1.6c-0.2-0.5-0.1-0.9,0.1-1.2c0.2-0.3,0.4-0.4,0.6-0.5c0.3-0.1,0.5,0,0.8,0.1c0.3,0.2,0.5,0.4,0.6,0.8
		c0,0.1,0.1,0.3,0.2,0.7c0.1,0.3,0.2,0.5,0.3,0.6c0.1,0.1,0.2,0.1,0.4,0.1c0.1,0,0.2-0.1,0.3-0.2c0.2-0.3,0.1-0.8-0.3-1.5
		c-0.1-0.2-0.2-0.4-0.2-0.5c0-0.1,0-0.2,0-0.4C53.1,182.4,53,182.3,52.9,182.2z"/>
	<path id="XMLID_95_" d="M47.5,175.3l2.6,1.9c0.1,0.1,0.2,0.1,0.3,0c0.2-0.2,0.2-0.6,0.1-1c-0.1-0.4-0.3-0.7-0.6-0.9
		c-0.2-0.1-0.4-0.2-0.7-0.3s-0.5-0.1-0.7-0.1c-0.2,0-0.3,0-0.4-0.1c-0.1-0.1-0.1-0.2-0.2-0.4c0-0.2,0-0.3,0.1-0.5
		c0.2-0.3,0.5-0.4,1.1-0.4c0.9,0,1.7,0.3,2.5,0.8c0.8,0.6,1.2,1.3,1.4,2.1c0.1,0.4,0.1,0.8,0,1.3c-0.1,0.6-0.3,1.1-0.6,1.5
		c-0.5,0.6-1.1,1-1.8,1.2c-0.6,0.2-1.3,0.2-1.9,0c-0.5-0.1-1-0.3-1.4-0.7c-0.7-0.5-1.1-1.1-1.3-1.9c-0.1-0.4-0.1-0.8-0.1-1.1
		c0.1-0.4,0.2-0.8,0.4-1.1c0.2-0.2,0.4-0.4,0.6-0.5C47.2,175.2,47.3,175.2,47.5,175.3z M49.2,178.2l-0.6-0.4
		c-0.2-0.2-0.4-0.2-0.6,0.1c-0.1,0.2-0.2,0.4-0.2,0.6c0,0.2,0.1,0.4,0.3,0.5c0.2,0.2,0.4,0.2,0.7,0.1c0.2-0.1,0.4-0.2,0.5-0.3
		c0.1-0.1,0.1-0.2,0.1-0.3S49.3,178.3,49.2,178.2z"/>
	<path id="XMLID_98_" d="M34.1,171l4.3-4.5c0.2-0.3,0.4-0.4,0.4-0.5c0-0.1,0.1-0.2,0-0.4c0-0.2,0-0.3,0-0.4c0-0.1,0.1-0.2,0.2-0.3
		c0.3-0.3,0.7-0.2,1.4,0.2c0.6,0.3,1.1,0.7,1.6,1.2c0.1,0.1,0.2,0.2,0.2,0.2c0,0.1-0.1,0.2-0.2,0.3c-0.1,0.2-0.2,0.3-0.1,0.4
		c0.1,0.1,0.2,0.1,0.4,0.1c0.6,0,1.1,0.3,1.5,0.7c0.5,0.5,0.8,1.1,0.8,1.9c0,0.5,0,0.9-0.2,1.3c-0.2,0.6-0.4,1.1-0.8,1.5
		c-0.4,0.5-1,0.8-1.7,1c-0.6,0.2-1.2,0.2-1.8,0c-0.5-0.2-0.9-0.4-1.3-0.7c-0.4-0.4-0.6-0.8-0.8-1.2c0-0.1-0.1-0.1-0.1-0.2
		c-0.1-0.1-0.3,0-0.6,0.3c-0.1,0.1-0.2,0.2-0.2,0.4s0,0.3,0.1,0.5c0.1,0.3,0.1,0.5,0,0.6c-0.2,0.2-0.6,0.2-1.3-0.1
		c-1.1-0.6-1.7-1-2-1.3C33.9,171.5,33.9,171.2,34.1,171z M39.2,171.1c0.2,0.2,0.5,0.3,0.8,0.1c0.5-0.1,0.9-0.5,1.4-1
		c0.4-0.4,0.7-0.9,0.7-1.2c0-0.3,0-0.5-0.2-0.7c-0.2-0.2-0.5-0.2-0.8-0.1s-0.8,0.5-1.3,1.1c-0.5,0.5-0.8,0.9-0.8,1.2
		C39,170.7,39,170.9,39.2,171.1z"/>
	<path id="XMLID_101_" d="M33.2,161.2l2.1,2.4c0.1,0.1,0.2,0.1,0.3,0c0.2-0.2,0.3-0.5,0.3-0.9s-0.1-0.8-0.4-1
		c-0.1-0.2-0.3-0.3-0.6-0.5s-0.5-0.2-0.7-0.3c-0.2,0-0.3-0.1-0.4-0.2c-0.1-0.1-0.1-0.2-0.1-0.4c0-0.2,0.1-0.3,0.2-0.4
		c0.2-0.2,0.6-0.3,1.1-0.2c0.9,0.2,1.6,0.6,2.3,1.4c0.6,0.7,0.9,1.5,0.9,2.4c0,0.4-0.1,0.8-0.2,1.2c-0.2,0.5-0.5,1-1,1.4
		c-0.6,0.5-1.3,0.8-2,0.8c-0.7,0-1.3-0.1-1.9-0.4c-0.5-0.2-0.9-0.5-1.2-1c-0.6-0.7-0.9-1.4-0.9-2.2c0-0.4,0-0.8,0.2-1.1
		c0.1-0.4,0.4-0.7,0.6-1c0.2-0.2,0.4-0.3,0.7-0.3C32.9,161,33,161,33.2,161.2z M34.2,164.3l-0.5-0.5c-0.2-0.2-0.4-0.2-0.6-0.1
		c-0.2,0.2-0.3,0.3-0.3,0.6s0,0.4,0.2,0.6c0.2,0.2,0.4,0.3,0.6,0.3c0.2,0,0.4-0.1,0.6-0.2c0.1-0.1,0.2-0.2,0.2-0.3
		C34.3,164.6,34.3,164.4,34.2,164.3z"/>
	<path id="XMLID_104_" d="M25.1,155.6l2.6-1.7c0.6-0.4,0.9-0.7,1-0.9c0.1-0.3,0-0.6-0.2-1c-0.3-0.4-0.6-0.7-1-0.8
		c-0.4-0.1-0.8-0.1-1.2,0.1c-0.3,0.1-0.5,0.1-0.6-0.1c-0.1-0.2-0.2-0.4-0.1-0.7c0.1-0.2,0.3-0.5,0.6-0.7c0.5-0.3,1.1-0.5,1.9-0.5
		c0.2,0,0.4,0,0.5,0.1c0.1,0,0.2,0.1,0.3,0.2l0.7,1.4l2.6,4c0.2,0.3,0.3,0.5,0.3,0.6c0,0.2-0.1,0.4-0.2,0.5
		c-0.1,0.1-0.2,0.1-0.3,0.1c-0.1,0-0.2-0.1-0.5-0.2c-0.2-0.1-0.5-0.2-0.7-0.1c-0.2,0.1-0.7,0.3-1.4,0.8c-0.4,0.2-0.8,0.6-1.5,1
		c-0.6,0.4-1.1,0.8-1.4,1c-0.3,0.2-0.5,0.4-0.6,0.5c-0.1,0.1-0.1,0.3,0,0.5c0.1,0.3,0.1,0.5,0.1,0.6c0,0.2-0.1,0.3-0.2,0.4
		c-0.3,0.2-0.6,0.1-1.1-0.3c-0.4-0.3-0.8-0.8-1.2-1.5c-0.5-0.7-0.8-1.3-1-1.7c-0.2-0.5-0.2-0.9,0.1-1.1c0.1-0.1,0.2-0.1,0.3-0.1
		c0.1,0,0.3,0.1,0.5,0.3c0.2,0.1,0.3,0.1,0.5,0.1C24.2,156.2,24.6,156,25.1,155.6z"/>
	<path id="XMLID_106_" d="M20.2,148.3c-0.4-0.7-0.5-1.4-0.4-2.1c0.1-0.4,0.2-0.7,0.4-0.9c0.2-0.2,0.5-0.5,0.9-0.7l0.9-0.5
		c0.6-0.3,1-0.6,1.1-0.8c0.1-0.1,0.1-0.2,0.1-0.2c0-0.1,0-0.1-0.1-0.3c0-0.1,0-0.2,0.2-0.3c0.2-0.1,0.4-0.1,0.7-0.1
		c0.3,0,0.6,0.2,0.8,0.3c0.3,0.2,0.6,0.5,0.8,0.8c0.2,0.4,0.3,0.8,0.1,1.2c-0.1,0.1-0.1,0.2,0,0.3c0,0.1,0.1,0.2,0.3,0.2
		c0.5,0.2,0.9,0.6,1.2,1.1c0.3,0.5,0.4,1,0.3,1.5c0,0.3-0.1,0.6-0.3,0.8c-0.2,0.3-0.4,0.4-0.7,0.6c-0.4,0.2-0.9,0.3-1.4,0.1
		c-0.8-0.3-1.5-0.9-2-2c-0.1-0.2-0.2-0.4-0.3-0.4c-0.1,0-0.2,0-0.4,0.1c-0.4,0.2-0.7,0.4-0.9,0.6c-0.1,0.2-0.2,0.4-0.1,0.6
		c0.1,0.1,0.2,0.2,0.3,0.3c0.1,0.1,0.3,0.1,0.6,0.1c0.7,0.1,1.2,0.3,1.4,0.7c0.1,0.2,0.1,0.4,0.1,0.6c0,0.2-0.2,0.3-0.4,0.4
		c-0.2,0.1-0.4,0.1-0.7,0.1c-0.3-0.1-0.6-0.2-0.8-0.4C21.3,149.8,20.7,149.1,20.2,148.3z M23.9,146.9c0.1,0.2,0.2,0.3,0.5,0.3
		c0.2,0.1,0.4,0,0.6-0.1c0.2-0.1,0.3-0.2,0.4-0.4c0.1-0.2,0.1-0.3,0-0.5c-0.2-0.3-0.5-0.3-1.1,0c-0.2,0.1-0.4,0.2-0.4,0.3
		S23.9,146.7,23.9,146.9z"/>
	<path id="XMLID_109_" d="M18.3,140l2.1-0.9c0.3-0.1,0.4-0.3,0.5-0.5c0.1-0.2,0.1-0.4,0-0.6c-0.1-0.2-0.2-0.3-0.5-0.5
		c-0.1,0-0.1-0.1-0.1-0.2c0-0.1,0-0.2,0.1-0.4c0.1-0.1,0.2-0.2,0.3-0.3c0.3-0.1,0.6-0.1,0.9,0.1c0.8,0.4,1.3,1,1.7,1.8
		c0.3,0.7,0.3,1.3,0.1,1.9c-0.2,0.6-0.6,1-1.2,1.3l-2.9,1.3c-0.1,0-0.2,0.1-0.2,0.1c0,0,0,0.1,0,0.2l0.3,0.6c0.1,0.1,0.1,0.2,0,0.3
		s-0.1,0.1-0.3,0.2l-0.3,0.1c-0.1,0-0.2,0-0.3,0l-3.1-2.1c-0.1-0.1-0.1-0.1-0.2-0.2l-0.2-0.5c0-0.1-0.1-0.2,0-0.2s0.1-0.1,0.3-0.2
		l0.8-0.4c0.1-0.1,0.2-0.1,0.2-0.2c0-0.1,0-0.1-0.1-0.3l-0.5-1.2c-0.1-0.2-0.1-0.3,0-0.3s0.1-0.1,0.3-0.2l0.4-0.2
		c0.2-0.1,0.4-0.1,0.5-0.1c0.1,0,0.2,0.1,0.3,0.3l0.5,1.1c0.1,0.1,0.1,0.2,0.2,0.2S18.2,140,18.3,140z"/>
	<path id="XMLID_111_" d="M15.9,133.7l2.2-0.8c0.3-0.1,0.4-0.2,0.6-0.4s0.1-0.4,0.1-0.6c-0.1-0.2-0.2-0.4-0.5-0.6
		c-0.1-0.1-0.1-0.1-0.1-0.2c0-0.1,0-0.2,0.1-0.3c0.1-0.1,0.2-0.2,0.4-0.3c0.3-0.1,0.6,0,0.9,0.2c0.7,0.4,1.3,1.1,1.6,1.9
		c0.2,0.7,0.2,1.3,0,1.9c-0.2,0.6-0.7,0.9-1.3,1.2l-3,1c-0.1,0-0.2,0.1-0.2,0.1c0,0,0,0.1,0,0.2l0.2,0.7c0,0.1,0.1,0.2,0,0.3
		s-0.1,0.1-0.3,0.2l-0.3,0.1c-0.1,0-0.2,0-0.3,0l-2.9-2.3c-0.1-0.1-0.1-0.1-0.2-0.3l-0.2-0.5c0-0.1,0-0.2,0-0.2
		c0-0.1,0.1-0.1,0.3-0.2l0.9-0.3c0.1,0,0.2-0.1,0.2-0.1s0-0.1,0-0.3l-0.4-1.2c-0.1-0.2-0.1-0.3,0-0.3c0-0.1,0.2-0.1,0.3-0.2l0.4-0.1
		c0.2-0.1,0.4-0.1,0.5-0.1c0.1,0,0.2,0.1,0.2,0.3l0.4,1.2c0,0.1,0.1,0.2,0.1,0.2C15.7,133.8,15.8,133.8,15.9,133.7z"/>
	<path id="XMLID_113_" d="M15.3,124.6l0.8,3.1c0,0.1,0.1,0.2,0.2,0.2c0.3-0.1,0.5-0.3,0.7-0.7c0.2-0.4,0.2-0.7,0.1-1.1
		c-0.1-0.2-0.2-0.4-0.3-0.7c-0.1-0.2-0.3-0.4-0.5-0.6c-0.1-0.1-0.2-0.2-0.3-0.3c0-0.1,0-0.2,0.1-0.4s0.2-0.2,0.4-0.3
		c0.3-0.1,0.7,0,1.1,0.4c0.7,0.6,1.2,1.3,1.4,2.2c0.2,0.9,0.2,1.8-0.2,2.5c-0.2,0.4-0.4,0.7-0.8,1c-0.4,0.4-0.9,0.7-1.5,0.8
		c-0.7,0.2-1.5,0.1-2.2-0.1c-0.6-0.3-1.1-0.6-1.5-1.2c-0.3-0.4-0.5-0.9-0.7-1.4c-0.2-0.8-0.2-1.6,0.2-2.3c0.2-0.4,0.4-0.7,0.7-0.9
		c0.3-0.3,0.6-0.5,1-0.6c0.3-0.1,0.5-0.1,0.8,0C15.2,124.3,15.3,124.5,15.3,124.6z M14.9,127.9l-0.2-0.7c-0.1-0.3-0.2-0.4-0.5-0.3
		c-0.2,0.1-0.4,0.2-0.5,0.4c-0.1,0.2-0.1,0.4-0.1,0.6c0.1,0.2,0.2,0.4,0.4,0.5c0.2,0.1,0.4,0.1,0.6,0.1c0.1,0,0.2-0.1,0.3-0.2
		C14.9,128.2,14.9,128.1,14.9,127.9z"/>
	<path id="XMLID_116_" d="M6.9,96.8c0-0.7,0.2-1.3,0.6-1.9c0.2-0.3,0.2-0.5,0.2-0.6c0-0.1,0-0.2,0-0.4c0-0.1,0-0.1,0-0.2
		c0-0.2,0.1-0.4,0.4-0.6c0.6-0.4,1.2-0.6,2-0.5c0.6,0,0.9,0.3,1.2,0.7c0.1,0.2,0.2,0.4,0.2,0.7c0,0.2-0.1,0.4-0.2,0.6
		c-0.1,0.1-0.3,0.3-0.6,0.4c-0.4,0.2-0.6,0.3-0.8,0.4c-0.2,0.1-0.3,0.3-0.5,0.4c-0.3,0.4-0.5,0.9-0.6,1.4c0,0.5,0.1,0.9,0.4,1.2
		c0.3,0.3,0.8,0.5,1.3,0.5c0.8,0.1,1.5-0.1,2.2-0.4c0.9-0.5,1.4-1.2,1.5-2.2c0-0.4,0-0.7-0.1-1.1c-0.1-0.4-0.2-0.7-0.4-0.9
		c-0.2-0.2-0.2-0.3-0.2-0.4c0-0.2,0.1-0.3,0.3-0.4c0.2-0.1,0.3-0.1,0.5-0.1c0.3,0,0.6,0.1,0.9,0.3c0.3,0.2,0.6,0.4,0.7,0.6
		c0.1,0.1,0.1,0.3,0.2,0.6c0,0.2,0.1,0.4,0.2,0.7c0.3,0.7,0.4,1.4,0.3,2.1c-0.1,0.8-0.3,1.5-0.7,2.2c-0.5,0.8-1.1,1.5-2,1.9
		c-0.8,0.4-1.7,0.6-2.5,0.6c-1-0.1-1.9-0.5-2.7-1.1c-0.7-0.6-1.2-1.3-1.5-2.3C7,98.2,6.9,97.5,6.9,96.8z"/>
	<path id="XMLID_118_" d="M10.8,87.9c0.1-0.8,0.4-1.4,0.9-1.9c0.3-0.3,0.5-0.4,0.8-0.5c0.3-0.1,0.7-0.1,1.2,0l1,0.2
		c0.7,0.1,1.2,0.2,1.4,0.1c0.1,0,0.2-0.1,0.2-0.1s0.1-0.1,0.1-0.3c0-0.1,0.2-0.2,0.3-0.2c0.2,0,0.4,0.2,0.6,0.4
		c0.2,0.2,0.4,0.5,0.5,0.8c0.1,0.4,0.2,0.7,0.1,1.1c-0.1,0.5-0.3,0.8-0.7,1c-0.1,0.1-0.2,0.2-0.2,0.2c0,0.1,0,0.2,0.1,0.4
		c0.2,0.5,0.3,1,0.2,1.6c-0.1,0.6-0.3,1-0.6,1.4c-0.2,0.2-0.5,0.4-0.7,0.5c-0.3,0.1-0.6,0.1-0.9,0.1c-0.5-0.1-0.8-0.3-1.1-0.8
		c-0.5-0.7-0.6-1.6-0.4-2.8c0-0.3,0-0.4,0-0.5c0-0.1-0.2-0.1-0.3-0.2c-0.5-0.1-0.8-0.1-1.1,0s-0.4,0.2-0.4,0.4c0,0.1,0,0.3,0.1,0.4
		c0.1,0.1,0.2,0.3,0.4,0.5c0.5,0.5,0.7,1,0.6,1.4c0,0.2-0.1,0.4-0.3,0.5c-0.2,0.1-0.3,0.2-0.5,0.1c-0.2,0-0.4-0.2-0.6-0.4
		c-0.2-0.2-0.3-0.5-0.4-0.8C10.7,89.6,10.6,88.8,10.8,87.9z M14.6,89c0,0.2,0,0.4,0.2,0.6c0.1,0.2,0.3,0.3,0.5,0.3
		c0.2,0,0.4,0,0.5-0.1s0.2-0.2,0.3-0.4c0.1-0.4-0.2-0.6-0.8-0.7c-0.2,0-0.4,0-0.5,0C14.7,88.8,14.6,88.9,14.6,89z"/>
	<path id="XMLID_121_" d="M13.8,80l0.2-0.8c0-0.1,0.1-0.2,0.1-0.3c0.1,0,0.1-0.1,0.2,0l0.8,0.3c0.2,0,0.3,0.1,0.3,0.1
		c0,0.1,0,0.1,0,0.3c0,0,0,0.1-0.1,0.2c0,0.1,0,0.1-0.1,0.2c0,0.2,0,0.3,0.1,0.4s0.3,0.2,0.7,0.3c0.5,0.1,0.9,0.2,1.2,0.1
		c0.1,0,0.3,0,0.3-0.1c0.1-0.1,0.2-0.2,0.3-0.3c0.2-0.4,0.5-0.5,0.8-0.4c0.3,0.1,0.5,0.4,0.5,0.9c0,0.5-0.1,1.3-0.4,2.3
		c-0.4,1.5-0.9,2.2-1.5,2.1c-0.1,0-0.3-0.1-0.3-0.2s-0.1-0.2-0.1-0.5c0-0.3-0.2-0.5-0.5-0.6c-0.4-0.2-0.9-0.3-1.4-0.5
		c-0.2-0.1-0.4-0.1-0.5,0s-0.2,0.2-0.2,0.4c-0.1,0.2-0.1,0.4-0.2,0.4c0,0.1-0.1,0.1-0.2,0l-0.8-0.3C13.1,84,13,84,13,84s0-0.2,0-0.3
		c0-0.2,0-0.3-0.2-0.3c-0.1,0-0.2,0-0.5,0.1c-0.4,0.1-0.8,0.1-1.2,0c-0.5-0.1-0.9-0.4-1.2-0.9C9.6,81.8,9.6,81,9.8,80
		c0.2-0.8,0.6-1.5,1.1-1.8c0.4-0.3,0.8-0.4,1.2-0.3c0.3,0.1,0.5,0.2,0.7,0.5c0.1,0.2,0.2,0.5,0.1,0.8c-0.1,0.3-0.3,0.6-0.6,0.8
		c-0.1,0.1-0.3,0.2-0.7,0.4c-0.3,0.1-0.4,0.3-0.5,0.5c0,0.1,0,0.2,0.1,0.4c0.1,0.1,0.2,0.2,0.3,0.2c0.3,0.1,0.8-0.1,1.4-0.7
		c0.2-0.2,0.3-0.3,0.4-0.3c0.1-0.1,0.2-0.1,0.3-0.1C13.8,80.2,13.8,80.1,13.8,80z"/>
	<path id="XMLID_123_" d="M18.7,72.7l-1,3c0,0.1,0,0.2,0.1,0.3c0.3,0.1,0.6,0,0.9-0.2s0.6-0.5,0.7-0.9c0.1-0.2,0.1-0.5,0.1-0.7
		c0-0.3,0-0.5-0.1-0.7c-0.1-0.2-0.1-0.3,0-0.4c0-0.1,0.1-0.2,0.3-0.3c0.2-0.1,0.3-0.1,0.5,0c0.3,0.1,0.5,0.4,0.7,0.9
		c0.3,0.9,0.3,1.7,0,2.6c-0.3,0.9-0.8,1.6-1.6,2c-0.4,0.2-0.8,0.4-1.2,0.4c-0.6,0.1-1.1,0-1.7-0.1c-0.7-0.2-1.3-0.7-1.7-1.3
		c-0.4-0.5-0.6-1.2-0.6-1.8c0-0.5,0-1,0.2-1.5c0.3-0.8,0.7-1.4,1.4-1.9c0.3-0.2,0.7-0.4,1.1-0.4c0.4-0.1,0.8-0.1,1.2,0.1
		c0.3,0.1,0.5,0.2,0.6,0.4C18.7,72.4,18.8,72.5,18.7,72.7z M16.5,75.2l0.2-0.7c0.1-0.3,0-0.5-0.2-0.5c-0.2-0.1-0.4-0.1-0.6,0
		c-0.2,0.1-0.3,0.2-0.4,0.5c-0.1,0.2-0.1,0.5,0.1,0.7c0.1,0.2,0.3,0.3,0.5,0.4c0.1,0,0.2,0,0.3,0C16.4,75.4,16.5,75.3,16.5,75.2z"/>
	<path id="XMLID_126_" d="M18.8,58.6l5.6,2.8c0.3,0.2,0.5,0.2,0.6,0.3s0.2,0,0.4-0.1c0.2-0.1,0.3-0.2,0.4-0.2c0.1,0,0.2,0,0.3,0.1
		c0.3,0.2,0.4,0.6,0.3,1.4c-0.1,0.7-0.4,1.3-0.6,1.9c-0.1,0.1-0.1,0.2-0.2,0.2c-0.1,0-0.2,0-0.3-0.1c-0.2-0.1-0.4-0.1-0.4,0.1
		c0,0.1,0,0.2,0,0.4c0.1,0.6,0.1,1.1-0.2,1.6c-0.3,0.6-0.8,1.1-1.5,1.4c-0.4,0.2-0.9,0.2-1.3,0.2c-0.6,0-1.1-0.1-1.6-0.3
		c-0.6-0.3-1.1-0.7-1.4-1.3c-0.4-0.5-0.5-1.1-0.5-1.8c0-0.5,0.1-1,0.3-1.4c0.2-0.5,0.5-0.8,0.9-1.1c0.1,0,0.1-0.1,0.1-0.1
		c0.1-0.1-0.1-0.3-0.4-0.5C19,62,18.8,62,18.7,62c-0.1,0-0.2,0.1-0.4,0.3c-0.2,0.2-0.4,0.3-0.6,0.2c-0.3-0.1-0.4-0.6-0.3-1.2
		c0.2-1.2,0.4-2,0.6-2.3C18.2,58.6,18.5,58.5,18.8,58.6z M20.3,63.5c-0.1,0.3-0.1,0.5,0.1,0.8c0.3,0.4,0.7,0.7,1.3,1
		c0.6,0.3,1,0.4,1.4,0.3c0.3,0,0.5-0.2,0.6-0.4c0.1-0.3,0.1-0.5-0.2-0.8s-0.7-0.6-1.4-0.9c-0.6-0.3-1.1-0.4-1.4-0.4
		C20.5,63.2,20.4,63.3,20.3,63.5z"/>
	<path id="XMLID_129_" d="M27.8,54.8l-1.7,2.7c-0.1,0.1-0.1,0.2,0,0.3c0.3,0.2,0.6,0.2,1,0c0.4-0.1,0.7-0.4,0.9-0.7
		c0.1-0.2,0.2-0.4,0.3-0.7c0.1-0.3,0.1-0.5,0.1-0.7c0-0.2,0-0.3,0.1-0.4c0.1-0.1,0.2-0.2,0.4-0.2c0.2,0,0.3,0,0.5,0.1
		c0.3,0.2,0.4,0.5,0.5,1c0.1,0.9-0.1,1.8-0.6,2.6c-0.5,0.8-1.2,1.4-2,1.6c-0.4,0.1-0.8,0.2-1.3,0.1c-0.6,0-1.1-0.2-1.6-0.5
		c-0.7-0.4-1.1-1-1.4-1.7c-0.2-0.6-0.3-1.3-0.2-1.9c0.1-0.5,0.3-1,0.5-1.4c0.5-0.7,1-1.2,1.8-1.5c0.4-0.1,0.7-0.2,1.1-0.2
		c0.4,0,0.8,0.1,1.1,0.3c0.3,0.2,0.4,0.3,0.5,0.5S27.9,54.6,27.8,54.8z M25.2,56.7l0.4-0.6c0.2-0.2,0.1-0.4-0.1-0.6
		c-0.2-0.1-0.4-0.2-0.6-0.1c-0.2,0-0.4,0.2-0.5,0.4c-0.1,0.2-0.2,0.4-0.1,0.7c0.1,0.2,0.2,0.4,0.4,0.5c0.1,0.1,0.2,0.1,0.3,0.1
		C25,56.9,25.1,56.8,25.2,56.7z"/>
	<path id="XMLID_132_" d="M30.7,45.4l2.4,2c0.5,0.4,0.9,0.7,1.2,0.7c0.3,0,0.6-0.1,0.9-0.5c0.3-0.4,0.5-0.8,0.5-1.2
		c0-0.4-0.1-0.8-0.4-1.2c-0.2-0.2-0.2-0.5-0.1-0.6s0.4-0.3,0.6-0.3s0.5,0.1,0.8,0.4c0.4,0.4,0.8,0.9,1,1.6c0.1,0.2,0.1,0.4,0.1,0.5
		c0,0.1-0.1,0.2-0.1,0.4l-1.1,1.1l-3,3.7c-0.2,0.2-0.4,0.4-0.5,0.4c-0.2,0.1-0.4,0.1-0.5-0.1c-0.1-0.1-0.2-0.2-0.2-0.2
		c0-0.1,0-0.3,0.1-0.5c0.1-0.3,0-0.5-0.1-0.7c-0.1-0.2-0.5-0.5-1.2-1.1c-0.3-0.3-0.8-0.6-1.4-1.1c-0.6-0.5-1.1-0.8-1.4-1
		c-0.3-0.2-0.5-0.4-0.6-0.4c-0.1,0-0.3,0-0.5,0.1c-0.3,0.2-0.5,0.3-0.6,0.3c-0.2,0-0.3,0-0.4-0.1c-0.3-0.2-0.3-0.6-0.1-1.1
		c0.2-0.5,0.5-1,1-1.6c0.6-0.7,1-1.2,1.4-1.5c0.5-0.4,0.8-0.4,1.1-0.2c0.1,0.1,0.2,0.2,0.2,0.3c0,0.1,0,0.3-0.1,0.6
		c0,0.2,0,0.4,0.1,0.5C29.9,44.7,30.2,45,30.7,45.4z"/>
	<path id="XMLID_134_" d="M36.1,38.5c0.6-0.6,1.2-0.9,1.8-1c0.4-0.1,0.7,0,1,0.1c0.3,0.1,0.6,0.3,0.9,0.7l0.7,0.7
		c0.5,0.5,0.9,0.8,1.1,0.9c0.1,0,0.2,0,0.2,0c0.1,0,0.1-0.1,0.3-0.2c0.1-0.1,0.2-0.1,0.4,0c0.2,0.2,0.3,0.4,0.3,0.7s0,0.6,0,0.9
		c-0.1,0.4-0.3,0.7-0.5,1c-0.3,0.3-0.7,0.5-1.1,0.5c-0.2,0-0.3,0-0.3,0.1c-0.1,0.1-0.1,0.2-0.1,0.4c-0.1,0.6-0.3,1-0.7,1.5
		c-0.4,0.4-0.8,0.7-1.3,0.8c-0.3,0.1-0.6,0-0.9,0c-0.3-0.1-0.5-0.2-0.8-0.4c-0.3-0.3-0.5-0.8-0.5-1.3c0-0.8,0.4-1.7,1.2-2.5
		c0.2-0.2,0.3-0.3,0.3-0.4s-0.1-0.2-0.2-0.3c-0.3-0.3-0.6-0.5-0.9-0.6s-0.4,0-0.6,0.1c-0.1,0.1-0.2,0.2-0.2,0.3c0,0.1,0,0.3,0,0.6
		c0.1,0.7,0,1.2-0.3,1.5c-0.2,0.2-0.3,0.2-0.5,0.3c-0.2,0-0.4-0.1-0.5-0.2c-0.2-0.2-0.3-0.4-0.3-0.6c0-0.3,0-0.6,0.1-0.9
		C35.1,39.9,35.5,39.2,36.1,38.5z M38.7,41.6c-0.1,0.1-0.2,0.3-0.2,0.5s0.1,0.4,0.3,0.6c0.2,0.2,0.3,0.2,0.5,0.3s0.3,0,0.4-0.2
		c0.3-0.3,0.2-0.6-0.3-1c-0.2-0.2-0.3-0.3-0.4-0.3C38.9,41.5,38.8,41.5,38.7,41.6z"/>
	<path id="XMLID_137_" d="M43.5,34.1l1.5,1.7c0.2,0.2,0.4,0.3,0.6,0.4s0.4,0,0.6-0.1c0.1-0.1,0.3-0.3,0.4-0.6c0-0.1,0.1-0.1,0.1-0.2
		c0.1-0.1,0.2-0.1,0.4,0c0.2,0,0.3,0.1,0.4,0.2c0.2,0.2,0.2,0.5,0.2,0.9c-0.1,0.8-0.5,1.6-1.2,2.2c-0.5,0.5-1.1,0.7-1.7,0.7
		c-0.6,0-1.1-0.3-1.6-0.8L41,36.1c-0.1-0.1-0.1-0.1-0.2-0.1c0,0-0.1,0-0.2,0.1l-0.5,0.5c-0.1,0.1-0.2,0.1-0.2,0.1
		c-0.1,0-0.1-0.1-0.2-0.2l-0.2-0.2c-0.1-0.1-0.1-0.2-0.1-0.3l1.1-3.5c0-0.1,0.1-0.2,0.2-0.2l0.4-0.4c0.1-0.1,0.2-0.1,0.2-0.1
		c0.1,0,0.1,0.1,0.2,0.2l0.6,0.7c0.1,0.1,0.2,0.2,0.2,0.2c0.1,0,0.1,0,0.2-0.1l1-0.8c0.1-0.1,0.2-0.2,0.3-0.1s0.2,0.1,0.3,0.2
		l0.3,0.3c0.1,0.2,0.2,0.3,0.2,0.4c0,0.1-0.1,0.2-0.2,0.3l-0.9,0.8c-0.1,0.1-0.1,0.2-0.2,0.2C43.4,33.9,43.4,34,43.5,34.1z"/>
	<path id="XMLID_139_" d="M48.7,30l1.4,1.8c0.2,0.2,0.4,0.4,0.6,0.4c0.2,0.1,0.4,0,0.6-0.1c0.1-0.1,0.3-0.3,0.4-0.6
		c0-0.1,0.1-0.1,0.1-0.2c0.1-0.1,0.2-0.1,0.4,0c0.2,0.1,0.3,0.1,0.4,0.3c0.2,0.2,0.2,0.5,0.1,0.9c-0.2,0.8-0.6,1.5-1.4,2.1
		c-0.6,0.4-1.2,0.6-1.8,0.6c-0.6-0.1-1.1-0.4-1.5-0.9l-1.9-2.5c-0.1-0.1-0.1-0.1-0.1-0.1s-0.1,0-0.2,0.1l-0.6,0.4
		c-0.1,0.1-0.2,0.1-0.2,0.1c-0.1,0-0.1-0.1-0.2-0.2l-0.2-0.2c-0.1-0.1-0.1-0.2-0.1-0.3l1.3-3.5c0-0.1,0.1-0.2,0.2-0.2l0.4-0.3
		c0.1-0.1,0.2-0.1,0.2-0.1s0.1,0.1,0.2,0.2l0.6,0.7c0.1,0.1,0.2,0.2,0.2,0.2c0.1,0,0.1,0,0.3-0.1l1-0.8c0.1-0.1,0.2-0.1,0.3-0.1
		s0.2,0.1,0.3,0.3l0.2,0.3c0.1,0.2,0.2,0.3,0.2,0.4c0,0.1-0.1,0.2-0.2,0.3l-1,0.7c-0.1,0.1-0.2,0.1-0.2,0.2
		C48.6,29.8,48.6,29.9,48.7,30z"/>
	<path id="XMLID_141_" d="M57.2,26.6l-2.7,1.7c-0.1,0.1-0.1,0.2-0.1,0.3c0.2,0.2,0.4,0.4,0.9,0.4c0.4,0,0.8,0,1.1-0.2
		c0.2-0.1,0.4-0.3,0.5-0.5c0.2-0.2,0.3-0.4,0.4-0.6c0.1-0.2,0.1-0.3,0.2-0.3c0.1-0.1,0.2-0.1,0.4,0c0.2,0.1,0.3,0.2,0.4,0.3
		c0.2,0.3,0.2,0.7,0,1.1c-0.3,0.8-0.9,1.5-1.7,2c-0.8,0.5-1.6,0.7-2.5,0.6c-0.4-0.1-0.8-0.2-1.2-0.4c-0.5-0.3-0.9-0.7-1.2-1.2
		c-0.4-0.6-0.6-1.3-0.5-2.1c0.1-0.7,0.3-1.3,0.7-1.8c0.3-0.4,0.7-0.8,1.1-1.1c0.7-0.5,1.5-0.7,2.3-0.6c0.4,0,0.8,0.2,1.1,0.3
		c0.4,0.2,0.7,0.5,0.9,0.8c0.2,0.2,0.2,0.5,0.2,0.7C57.4,26.4,57.4,26.5,57.2,26.6z M53.9,27.2l0.6-0.4c0.2-0.2,0.3-0.3,0.2-0.6
		c-0.1-0.2-0.3-0.3-0.5-0.4s-0.4,0-0.6,0.1c-0.2,0.1-0.3,0.3-0.3,0.6c0,0.2,0,0.4,0.1,0.6c0.1,0.1,0.2,0.2,0.2,0.2
		C53.7,27.3,53.8,27.3,53.9,27.2z"/>
</g>
</svg>
