<?xml version="1.0" encoding="utf-8"?>
<!-- Generator: Adobe Illustrator 19.0.0, SVG Export Plug-In . SVG Version: 6.00 Build 0)  -->
<svg version="1.1" xmlns="http://www.w3.org/2000/svg" xmlns:xlink="http://www.w3.org/1999/xlink" x="0px" y="0px"
	 viewBox="0 0 400 400" style="enable-background:new 0 0 400 400;" xml:space="preserve">
<style type="text/css">
	.st0{display:none;}
	.st1{fill:#1D9BF0;}
</style>
<g id="見本" class="st0">
	
		<image style="display:inline;overflow:visible;" width="247" height="204" xlink:href="../../../toi_2022_11/23.01.11/0111/images.png"  transform="matrix(1 0 0 1 77 98)">
	</image>
</g>
<g id="Twitter">
	<path class="st1" d="M315.7,103.3c-9.3,4.5-18.9,8-31.3,11.3c-43.8-37.1-93.8-0.3-86,46.3c-50.8-3.1-76-23-103-52
		c-1.2,1-4.9,9.8-6.7,19c0.3,20.4,4.3,38.2,21,47.3c-7.4,0.8-14.3-2.2-21-5.7c-1.3,29.1,22.9,49.4,38,50c0,2.7-9.4,2.5-21,1.7
		c9.3,22.2,25.3,31.8,45.3,34c-18.2,19.3-46.4,23.2-72,21.7c81.6,51,163.9,7.2,191.3-37c15.4-20.3,30-49.1,28-92
		c10.7-7.2,20.3-14.9,24.5-24.5c-13.3,4.1-24.2,7.2-27.8,7.2C305.2,123.9,314.1,115.6,315.7,103.3z"/>
</g>
</svg>
