<?xml version="1.0" encoding="utf-8"?>
<!-- Generator: Adobe Illustrator 19.0.0, SVG Export Plug-In . SVG Version: 6.00 Build 0)  -->
<svg version="1.1" id="レイヤー_2" xmlns="http://www.w3.org/2000/svg" xmlns:xlink="http://www.w3.org/1999/xlink" x="0px"
	 y="0px" viewBox="0 0 600 600" style="enable-background:new 0 0 600 600;" xml:space="preserve">
<style type="text/css">
	.st0{stroke:#000000;stroke-miterlimit:10;}
</style>
<path id="XMLID_3_" class="st0" d="M300,217.7c-19.7,3.2-33-12-72.3-12C109.3,230,155.9,435,237,464.3c12.7,3.3,34.5-3.2,60-11.3
	c-6.3-6.3,56,12.9,60.7,11.3c26.6,10.3,56.9-31.1,80.7-89.3c-62.7-33.3-58.7-99.2-10-137.3C384.6,174.7,319.7,220.3,300,217.7z"/>
<path id="XMLID_1_" class="st0" d="M361.7,127c4,45.7-27.1,80-66.7,82C297,162,320.9,136.3,361.7,127z"/>
</svg>
