<?xml version="1.0" encoding="utf-8"?>
<!-- Generator: Adobe Illustrator 19.0.0, SVG Export Plug-In . SVG Version: 6.00 Build 0)  -->
<svg version="1.1" id="タケダ" xmlns="http://www.w3.org/2000/svg" xmlns:xlink="http://www.w3.org/1999/xlink" x="0px" y="0px"
	 viewBox="0 0 400 400" style="enable-background:new 0 0 400 400;" xml:space="preserve">
<style type="text/css">
	.st0{fill:#FF0509;}
	.st1{fill:none;}
	.st2{fill:none;stroke:#FF0509;stroke-width:4;stroke-miterlimit:10;}
</style>
<path class="st0" d="M201.3,202.3l-0.9-0.1c4.5-0.8-3.7-7.6-9.4-12.2h-27.3c0.6-0.7,1.2-1.5,1.8-2.3l-18.5-6.3
	c-9.1,13.5-23.8,24.7-40.5,35l15.8,9c11.1-7.2,21.1-14.9,29.7-23.1l25.4,0.6c-1.7,4.2-6.3,9.4-12.6,14.7l-15.8-8l-12.9,9.8
	c5.2,2.5,10.6,5,15.7,7.4c-11.1,6.9-24.2,12.7-35.7,14.6l14.5,10c17.2-5.5,29.1-10.5,38.1-16c5.3,3,9.6,5.8,11.9,8.3l15-10.5
	l-14.3-7.2C188.4,219.5,194.1,211.9,201.3,202.3z"/>
<g>
	<path class="st0" d="M378.5,200l-9.6-9.6h-28.5c0.8-0.9,1.6-1.7,2.3-2.6l-18-6.3c-10.8,13.2-25.3,24.7-42.3,35l16.8,8.5
		c10.8-6.7,20.7-14.3,29.8-22.9l24.2,1.1c-3.7,5.3-7.8,9.9-12.2,13.9l-15-7.7l-13.4,10.3c5.2,2.4,10.4,4.8,15.5,7.1
		c-10.9,6.7-23.1,11.1-35.9,14.4c-0.5-0.5,13.4,13.3,14.5,12.5c1.4-1,38.3-17.8,38.3-17.8c0.2-0.2,0.5-0.4,0.7-0.6
		c6,3.2,10.6,6,12.8,8.4L372,233l-15-7.7C366.4,216.7,374.6,208.2,378.5,200z"/>
	<polygon class="st0" points="366.5,181.5 376,194 383.8,189.3 373,178.5 	"/>
	<polygon class="st0" points="384.6,172.7 377.3,176.5 386.5,189.3 394.8,182.9 	"/>
</g>
<path class="st1" d="M288.8,210.3"/>
<path class="st0" d="M288.8,196.6h-47l6-8.8c-6.2-1.9-12.8-4.1-19.8-6.3c3.3,4.2-31.8,40.2-34.5,39l16.4,8.3l22.6-18.5H246v1.5
	c1.7,14.3-14.4,28.1-32.3,30.3l16,9.5c22.5-7.2,37.3-19.1,38-39.8v-1.5h21V196.6z"/>
<ellipse class="st2" cx="54.1" cy="218.2" rx="43" ry="43.5"/>
<polyline class="st0" points="53.9,177.2 18.1,239.1 89.5,239.1 53.8,176.1 "/>
</svg>
