<?xml version="1.0" encoding="utf-8"?>
<!-- Generator: Adobe Illustrator 19.0.0, SVG Export Plug-In . SVG Version: 6.00 Build 0)  -->
<svg version="1.1" id="レイヤー_1" xmlns="http://www.w3.org/2000/svg" xmlns:xlink="http://www.w3.org/1999/xlink" x="0px"
	 y="0px" viewBox="0 0 638 84" style="enable-background:new 0 0 638 84;" xml:space="preserve">
<path id="XMLID_3_" d="M44.4,57.9c-0.4,1.1-0.8,2.2-1.1,3.4c-0.4,1.2-0.6,2-0.6,2.3c0,0.9,0.5,1.5,1.5,1.8c1,0.3,3.2,0.4,6.5,0.4
	v1.2H15.1v-1.2l4-0.3c1.8-0.2,3.1-0.8,4-1.8c0.9-1,2.1-3.3,3.6-7.1c1.6-3.8,3-7.2,4.2-10.4c1.2-3.2,2.7-6.9,4.2-11.1
	c1.6-4.2,2.8-7.6,3.8-10.3c1-2.7,1.6-4.5,1.9-5.6c0.3-1,0.4-1.8,0.4-2.2c0-0.9-0.5-1.6-1.5-1.9c-1-0.4-3-0.6-6-0.6v-1.2h57.9
	L81,40.8h-1.4l0.1-4.7c0-5.1-0.7-9.7-2.1-13.9c-1.4-4.1-3.3-6.4-5.7-6.7c-2.4-0.3-4.2-0.5-5.4-0.5C65.3,15,64,15,62.8,15h-1.7
	l-9.5,24l4-0.2c3.3-0.5,6.3-1.8,9.1-3.9c2.8-2,4.9-4.6,6.5-7.7h1.5L61.6,54.8h-1.5c0.2-0.8,0.4-1.9,0.6-3.3c0.2-1.3,0.3-2.5,0.3-3.4
	c0-2.5-0.5-4.4-1.4-5.7c-0.9-1.3-2.5-1.9-4.6-1.9l-3.9-0.1L44.4,57.9z"/>
<path id="XMLID_5_" d="M90.4,67.8c-2.3,0-4.3-0.7-5.9-2.1c-1.6-1.4-2.5-3.6-2.5-6.5c0-1.3,0.3-2.8,0.9-4.4c0.6-1.6,1.4-3.5,2.4-5.7
	c1-2.2,2.4-4.9,4.2-8.2c1.8-3.3,2.6-5.3,2.6-5.9c0-0.4-0.1-0.8-0.3-1c-0.2-0.2-0.5-0.3-0.8-0.3c-0.5,0-1.1,0.3-1.9,0.9
	c-0.8,0.6-1.6,1.3-2.4,2.2c-0.8,0.9-1.7,2.1-2.8,3.7c-1.1,1.6-2,3.1-2.8,4.6l-1-0.4c2.4-4.2,4.6-7.4,6.7-9.7c2-2.3,4.9-3.5,8.5-3.5
	c2.5,0,4.5,0.8,5.8,2.4c1.3,1.6,2,3.5,2,5.8c0,2-0.4,3.9-1.2,5.7c-0.7,1.5-1.5,3.1-2.2,4.6c-0.7,1.6-1.9,4-3.7,7.3
	c-1.8,3.3-2.6,5.6-2.6,6.8c0,0.5,0.1,0.9,0.3,1.1c0.2,0.2,0.5,0.4,0.9,0.4c1.2,0,2.4-0.8,3.7-2.5c1.3-1.6,2.4-3.2,3.3-4.6
	s1.7-2.8,2.4-4.2l10.7-22.1H129l-12.5,27.9c-0.2,0.6-0.5,1.4-0.9,2.3c-0.3,0.9-0.5,1.5-0.5,1.9c0,0.3,0.1,0.6,0.2,0.8
	c0.1,0.2,0.4,0.3,0.7,0.3c1.4,0,2.7-0.7,3.9-2.1c1.2-1.4,2.3-2.9,3.4-4.4c1.1-1.6,2.2-3.5,3.5-5.6l0.9,0.5c-2.7,4.6-5.1,8-7.2,10.4
	c-2.1,2.4-4.9,3.6-8.4,3.6c-2.4,0-4.2-0.7-5.6-2.2c-1.3-1.4-2-3.5-2-6.1c0-1.1,0.1-2.1,0.4-3.2c0.2-1,0.4-1.8,0.6-2.4
	c-2.7,4.7-5,8.1-6.9,10.4C96.6,66.7,93.9,67.8,90.4,67.8z"/>
<path id="XMLID_7_" d="M171.9,38.3c0,2.2-0.7,4-2,5.5c-1.3,1.5-3,2.3-5,2.3c-1.8,0-3.3-0.5-4.6-1.5c-1.3-1-1.9-2.4-1.9-4.2
	c0-0.9,0.2-1.7,0.6-2.4c0.4-0.7,0.9-1.5,1.4-2.4c0-0.4-0.2-0.7-0.7-0.7c-0.7,0-1.7,0.9-3,2.8c-1.3,1.9-2.6,4.3-3.9,7.2L142,67.1
	h-14.3l12.6-27.9c0.2-0.5,0.5-1.1,0.7-1.7c0.2-0.7,0.3-1.3,0.3-1.8c0-0.4-0.1-0.8-0.2-1c-0.1-0.2-0.4-0.3-0.7-0.3
	c-0.6,0-1.3,0.3-2.1,1c-0.8,0.6-1.5,1.4-2.2,2.3c-0.7,0.9-1.6,2.2-2.7,3.9c-1.1,1.7-1.9,3.2-2.6,4.4l-1-0.4c3.1-5.9,5.8-9.8,8-11.5
	c2.3-1.7,4.8-2.6,7.6-2.6c2.4,0,4.1,0.7,5.3,2.2c1.2,1.5,1.7,3.5,1.7,6c0,1-0.1,2-0.4,2.9c-0.2,1-0.5,1.7-0.7,2.2l0.2,0.1
	c2.3-4.7,4.3-8.1,6-10.2c1.7-2.2,4.2-3.2,7.4-3.2c2.3,0,4,0.7,5.2,2.1C171.3,35.1,171.9,36.6,171.9,38.3z"/>
<path id="XMLID_9_" d="M207.1,31.5c2.3,0,4.3,0.7,5.9,2.2c1.6,1.4,2.5,3.6,2.5,6.5c0,1.3-0.3,2.7-0.8,4.2c-0.5,1.5-1.2,3.1-2,4.8
	c-0.8,1.7-2.2,4.5-4.2,8.4c-2,3.9-3,6.2-3,6.8c0,0.4,0.1,0.7,0.3,0.9c0.2,0.2,0.5,0.3,0.9,0.3c0.5,0,1.2-0.3,2-0.9
	c0.8-0.6,2-1.7,3.4-3.3c1.4-1.6,3-4,4.6-7.3l1,0.5c-2.3,4-4.4,7.2-6.5,9.6c-2.1,2.4-5,3.6-8.8,3.6c-2.6,0-4.6-0.8-5.9-2.4
	c-1.3-1.6-2-3.5-2-5.8c0-1.6,0.2-2.8,0.5-3.8c0.3-1,1.4-3.2,3.1-6.8c1.7-3.5,3.2-6.4,4.3-8.7c1.1-2.3,1.7-4,1.7-5.3
	c0-0.5-0.1-0.8-0.3-1.1c-0.2-0.2-0.5-0.3-1-0.3c-0.6,0-1.3,0.4-2.2,1.1c-0.9,0.7-2,1.9-3.2,3.5c-1.2,1.6-2.5,3.8-3.8,6.6L183,67.1
	h-14.3l12.5-27.9c0.3-0.7,0.6-1.6,1-2.5c0.4-0.9,0.6-1.6,0.6-1.9c0-0.3-0.1-0.6-0.2-0.7c-0.1-0.1-0.4-0.2-0.7-0.2
	c-0.7,0-1.5,0.3-2.4,0.9c-0.9,0.6-1.8,1.4-2.6,2.4c-0.9,1-1.8,2.2-2.8,3.7c-1,1.5-2,3-3,4.7l-1-0.4c2.4-4.1,4.7-7.4,6.9-9.9
	c2.3-2.5,5.1-3.7,8.4-3.7c2.4,0,4.2,0.7,5.6,2.2c1.3,1.4,2,3.5,2,6.1c0,1.2-0.1,2.2-0.3,3.2c-0.2,1-0.4,1.7-0.6,2.3
	c2.2-4.4,4.3-7.8,6.4-10.2C200.6,32.7,203.5,31.5,207.1,31.5z"/>
<path id="XMLID_11_" d="M220.8,43.4c2.7-4.9,5.1-8.1,7.2-9.6c2-1.5,4.3-2.3,6.7-2.3c2.2,0,4,0.7,5.6,2.2c1.6,1.4,2.4,3.6,2.4,6.5
	c0,1.3-0.3,2.7-0.9,4.3c-0.6,1.6-1.4,3.5-2.4,5.6s-2.5,4.8-4.3,8c-1.8,3.2-2.7,5.3-2.7,6.2c0,0.4,0.1,0.8,0.3,1
	c0.2,0.2,0.6,0.3,1,0.3c0.5,0,1.3-0.3,2.1-0.9c0.9-0.6,1.7-1.4,2.6-2.5c0.8-1,1.7-2.2,2.6-3.6c0.9-1.3,1.7-2.6,2.2-3.6l1,0.5
	c-2.6,4.3-4.9,7.4-6.7,9.3c-1.8,1.9-4.5,2.9-8.1,2.9c-2.6,0-4.7-0.8-6-2.3c-1.4-1.5-2.1-3.5-2.1-5.8c0-1.6,0.2-3,0.7-4.2
	s1.4-3.3,2.9-6.3c1.5-2.9,2.8-5.6,3.9-7.9c1.1-2.3,1.9-3.9,2.2-4.7c0.3-0.8,0.5-1.4,0.5-1.8c0-0.3-0.1-0.6-0.3-0.8
	c-0.2-0.2-0.4-0.3-0.8-0.3c-0.3,0-0.9,0.3-1.7,0.9c-0.8,0.6-1.9,1.7-3.2,3.2s-2.6,3.5-3.9,6L220.8,43.4z M235.8,19.5
	c0-2,0.7-3.7,2.1-4.9c1.4-1.3,3-1.9,4.9-1.9c2,0,3.6,0.6,5,1.9c1.4,1.3,2.1,2.9,2.1,4.9c0,2-0.7,3.6-2.1,4.9c-1.4,1.3-3.1,1.9-5,1.9
	c-2,0-3.6-0.6-5-1.9C236.5,23.1,235.8,21.5,235.8,19.5z"/>
<path id="XMLID_14_" d="M279.3,32.3l-1,2.4h-8.2L259,61.4c-0.3,0.8-0.6,1.4-0.7,1.8c-0.1,0.4-0.1,0.8-0.1,1.2c0,0.4,0.1,0.8,0.3,1
	c0.2,0.2,0.5,0.3,0.8,0.3c0.6,0,1.4-0.3,2.2-0.8c0.9-0.6,1.8-1.3,2.7-2.3c0.9-1,1.9-2.1,2.9-3.6c1-1.4,1.8-2.7,2.5-4l1,0.5
	c-2.4,4-4.7,7.1-6.9,9.1c-2.2,2.1-5,3.1-8.3,3.1c-2.8,0-5-0.8-6.4-2.5c-1.4-1.7-2.1-3.7-2.1-6.1c0-1.1,0.1-2,0.4-2.8
	c0.2-0.8,0.7-2,1.3-3.5l7.6-18.3h-6.3l1-2.4h6.3l5.9-14.2h14.2l-6,14.2H279.3z"/>
<path id="XMLID_16_" d="M283.5,67.8c-2.3,0-4.3-0.7-5.9-2.1c-1.6-1.4-2.5-3.6-2.5-6.5c0-1.3,0.3-2.8,0.9-4.4
	c0.6-1.6,1.4-3.5,2.4-5.7c1-2.2,2.4-4.9,4.2-8.2c1.8-3.3,2.6-5.3,2.6-5.9c0-0.4-0.1-0.8-0.3-1c-0.2-0.2-0.5-0.3-0.8-0.3
	c-0.5,0-1.1,0.3-1.9,0.9c-0.8,0.6-1.6,1.3-2.4,2.2c-0.8,0.9-1.7,2.1-2.8,3.7c-1.1,1.6-2,3.1-2.8,4.6l-1-0.4c2.4-4.2,4.6-7.4,6.7-9.7
	c2-2.3,4.9-3.5,8.5-3.5c2.5,0,4.5,0.8,5.8,2.4c1.3,1.6,2,3.5,2,5.8c0,2-0.4,3.9-1.2,5.7c-0.7,1.5-1.5,3.1-2.2,4.6
	c-0.7,1.6-1.9,4-3.7,7.3c-1.8,3.3-2.6,5.6-2.6,6.8c0,0.5,0.1,0.9,0.3,1.1c0.2,0.2,0.5,0.4,0.9,0.4c1.2,0,2.4-0.8,3.8-2.5
	c1.3-1.6,2.4-3.2,3.3-4.6s1.7-2.8,2.4-4.2l10.7-22.1h14.3l-12.5,27.9c-0.2,0.6-0.5,1.4-0.9,2.3s-0.5,1.5-0.5,1.9
	c0,0.3,0.1,0.6,0.2,0.8c0.1,0.2,0.4,0.3,0.7,0.3c1.4,0,2.7-0.7,3.9-2.1c1.2-1.4,2.3-2.9,3.4-4.4c1.1-1.6,2.2-3.5,3.5-5.6l0.9,0.5
	c-2.7,4.6-5.1,8-7.2,10.4c-2.1,2.4-4.9,3.6-8.4,3.6c-2.4,0-4.2-0.7-5.6-2.2c-1.3-1.4-2-3.5-2-6.1c0-1.1,0.1-2.1,0.4-3.2
	c0.2-1,0.4-1.8,0.6-2.4c-2.7,4.7-5,8.1-6.9,10.4C289.6,66.7,286.9,67.8,283.5,67.8z"/>
<path id="XMLID_18_" d="M364.9,38.3c0,2.2-0.7,4-2,5.5c-1.3,1.5-3,2.3-5,2.3c-1.8,0-3.3-0.5-4.6-1.5c-1.3-1-1.9-2.4-1.9-4.2
	c0-0.9,0.2-1.7,0.6-2.4c0.4-0.7,0.9-1.5,1.4-2.4c0-0.4-0.2-0.7-0.7-0.7c-0.7,0-1.7,0.9-3,2.8c-1.3,1.9-2.6,4.3-3.9,7.2l-10.7,22.1
	h-14.3l12.6-27.9c0.2-0.5,0.5-1.1,0.7-1.7c0.2-0.7,0.3-1.3,0.3-1.8c0-0.4-0.1-0.8-0.2-1c-0.1-0.2-0.4-0.3-0.7-0.3
	c-0.6,0-1.3,0.3-2.1,1c-0.8,0.6-1.5,1.4-2.2,2.3c-0.7,0.9-1.6,2.2-2.7,3.9c-1.1,1.7-1.9,3.2-2.6,4.4l-1-0.4c3.1-5.9,5.8-9.8,8-11.5
	c2.3-1.7,4.8-2.6,7.6-2.6c2.4,0,4.1,0.7,5.3,2.2c1.2,1.5,1.7,3.5,1.7,6c0,1-0.1,2-0.4,2.9c-0.2,1-0.5,1.7-0.7,2.2l0.2,0.1
	c2.3-4.7,4.3-8.1,6-10.2c1.7-2.2,4.2-3.2,7.4-3.2c2.3,0,4,0.7,5.2,2.1C364.3,35.1,364.9,36.6,364.9,38.3z"/>
<path id="XMLID_20_" d="M378.3,50.8c-0.3,0.9-0.6,2.1-0.8,3.6c-0.2,1.5-0.4,2.7-0.4,3.7c0,2.7,0.4,4.7,1.1,5.8
	c0.8,1.1,1.9,1.7,3.4,1.7c1.1,0,2.1-0.1,3-0.4c0.9-0.3,1.9-0.7,3.1-1.4c1.2-0.7,2.4-1.7,3.7-3c1.3-1.3,2.3-2.6,3.1-3.9l1,0.7
	c-2.1,2.9-4.5,5.3-7.3,7.3c-2.8,2-6.2,2.9-10.2,2.9c-3.6,0-7-1.1-10.2-3.3c-3.2-2.2-4.7-5.4-4.7-9.6c0-5.9,2.7-11.3,8-16.1
	c5.3-4.9,11.6-7.3,18.8-7.3c3.4,0,6.2,0.8,8.3,2.3s3.2,3.3,3.2,5.3c0,3.9-2.3,6.8-6.8,8.7C390.3,49.8,384.8,50.8,378.3,50.8z
	 M378.5,49.9c3.4-0.4,6.5-2.3,9.3-5.7c2.8-3.4,4.2-6.5,4.2-9.1c0-0.7-0.1-1.3-0.3-1.7c-0.2-0.4-0.6-0.6-1.3-0.6
	c-1.1,0-2.2,0.6-3.2,1.8s-2.2,2.8-3.5,4.9c-1.2,2.1-2.3,4-3.1,5.7S379.1,48.5,378.5,49.9z"/>
<path id="XMLID_23_" d="M403.4,44.9h19.3l-4.3,10.7h-19.3L403.4,44.9z"/>
<path id="XMLID_25_" d="M448.1,68c-3.1,0-6.3-0.8-9.4-2.3c-3.1-1.5-6.2-3.1-9.3-4.7c-1,0-2.2,0.7-3.8,2.2c-1.5,1.5-2.7,3.1-3.6,4.7
	h-1.3l10.9-26.8h1.3c0,0.7-0.1,1.7-0.1,3.1c0,1.3-0.1,2.3-0.1,2.9c0,2.4,0.2,4.4,0.5,6.1c0.3,1.7,1,3.7,2,5.9c1,2.2,2.7,4,5.1,5.4
	c2.4,1.3,5.2,2,8.4,2c2.9,0,5.3-0.9,7.1-2.6c1.8-1.7,2.7-3.7,2.7-5.9c0-1.5-0.5-2.8-1.5-4.1c-1-1.3-3-2.7-5.9-4.4
	c-3-1.6-6.5-3.6-10.6-5.9c-4.8-3.4-7.2-7.6-7.2-12.6c0-5,2.3-9.3,6.8-12.9s10-5.5,16.4-5.5c3.3,0,6.3,0.5,9,1.5
	c2.4,1.1,4.8,2.2,7.3,3.2c1.2,0,2.2-0.4,2.9-1.2c0.8-0.8,1.6-2,2.6-3.5h1.4l-9,22.4h-1.3c0.1-0.6,0.2-1.4,0.2-2.3
	c0-0.9,0.1-1.9,0.1-3.2c0-2-0.1-3.6-0.3-5c-0.2-1.4-0.6-2.9-1.3-4.6c-0.7-1.6-1.9-3-3.7-4.2c-1.8-1.2-4.3-1.7-7.5-1.7
	c-2.5,0-4.8,0.7-6.9,2.1s-3.2,3.3-3.2,5.6c0,1.5,0.5,2.9,1.4,4.3c1,1.3,2.1,2.4,3.3,3.1c1.3,0.7,3.5,1.9,6.5,3.6s5.6,3.1,7.5,4.3
	c1.9,1.2,3.6,2.9,5,5.1c1.4,2.2,2.1,4.6,2.1,7.3c0,5.3-2.3,9.8-7,13.2C461.1,66.2,455.2,68,448.1,68z"/>
<path id="XMLID_27_" d="M508.1,32.3l-1,2.4h-8.2l-11.1,26.8c-0.3,0.8-0.6,1.4-0.7,1.8c-0.1,0.4-0.1,0.8-0.1,1.2c0,0.4,0.1,0.8,0.3,1
	c0.2,0.2,0.5,0.3,0.8,0.3c0.6,0,1.4-0.3,2.2-0.8c0.9-0.6,1.8-1.3,2.7-2.3c0.9-1,1.9-2.1,2.9-3.6c1-1.4,1.8-2.7,2.5-4l1,0.5
	c-2.4,4-4.7,7.1-6.9,9.1c-2.2,2.1-5,3.1-8.3,3.1c-2.8,0-5-0.8-6.4-2.5c-1.4-1.7-2.1-3.7-2.1-6.1c0-1.1,0.1-2,0.4-2.8
	c0.2-0.8,0.7-2,1.3-3.5l7.6-18.3h-6.3l1-2.4h6.3l5.9-14.2h14.2l-6,14.2H508.1z"/>
<path id="XMLID_29_" d="M540.4,46.1c0,5.5-2.4,10.6-7.1,15c-4.7,4.5-10.5,6.7-17.3,6.7c-2.1,0-3.9-0.4-5.6-1.2
	c-1.7-0.8-3.4-2.2-5.3-4.2c-1.9-2-2.8-5.1-2.8-9.2c0-5.4,2.3-10.4,7-15c4.7-4.5,10.5-6.8,17.4-6.8c2.2,0,4,0.4,5.6,1.1
	c1.6,0.8,3.1,1.9,4.5,3.4c1.4,1.5,2.4,3.1,2.9,4.8S540.4,44.3,540.4,46.1z M530.3,35.3c0-0.8-0.2-1.4-0.6-1.8
	c-0.4-0.4-1-0.7-1.8-0.7c-0.9,0-1.8,0.6-2.9,1.8c-1,1.2-2.5,3.7-4.4,7.6c-1.9,3.8-3.8,8-5.6,12.4c-1.8,4.4-2.6,7.6-2.6,9.4
	c0,0.9,0.2,1.6,0.6,2.1c0.4,0.5,1,0.7,1.8,0.7c0.8,0,1.7-0.5,2.6-1.6c0.9-1.1,2.3-3.3,4.1-6.8c1.8-3.4,3.7-7.6,5.7-12.6
	C529.2,40.8,530.3,37.3,530.3,35.3z"/>
<path id="XMLID_32_" d="M585,38.3c0,2.2-0.7,4-2,5.5c-1.3,1.5-3,2.3-5,2.3c-1.8,0-3.3-0.5-4.6-1.5c-1.3-1-1.9-2.4-1.9-4.2
	c0-0.9,0.2-1.7,0.6-2.4c0.4-0.7,0.9-1.5,1.4-2.4c0-0.4-0.2-0.7-0.7-0.7c-0.7,0-1.7,0.9-3,2.8c-1.3,1.9-2.6,4.3-3.9,7.2l-10.7,22.1
	h-14.3l12.6-27.9c0.2-0.5,0.5-1.1,0.7-1.7c0.2-0.7,0.3-1.3,0.3-1.8c0-0.4-0.1-0.8-0.2-1c-0.1-0.2-0.4-0.3-0.7-0.3
	c-0.6,0-1.3,0.3-2.1,1c-0.8,0.6-1.5,1.4-2.2,2.3c-0.7,0.9-1.6,2.2-2.7,3.9c-1.1,1.7-1.9,3.2-2.6,4.4l-1-0.4c3.1-5.9,5.8-9.8,8-11.5
	c2.3-1.7,4.8-2.6,7.6-2.6c2.4,0,4.1,0.7,5.3,2.2c1.2,1.5,1.7,3.5,1.7,6c0,1-0.1,2-0.4,2.9c-0.2,1-0.5,1.7-0.7,2.2l0.2,0.1
	c2.3-4.7,4.3-8.1,6-10.2c1.7-2.2,4.2-3.2,7.4-3.2c2.3,0,4,0.7,5.2,2.1C584.5,35.1,585,36.6,585,38.3z"/>
<path id="XMLID_34_" d="M598.4,50.8c-0.3,0.9-0.6,2.1-0.8,3.6c-0.2,1.5-0.4,2.7-0.4,3.7c0,2.7,0.4,4.7,1.1,5.8
	c0.8,1.1,1.9,1.7,3.4,1.7c1.1,0,2.1-0.1,3-0.4c0.9-0.3,1.9-0.7,3.1-1.4c1.2-0.7,2.4-1.7,3.7-3c1.3-1.3,2.3-2.6,3.1-3.9l1,0.7
	c-2.1,2.9-4.5,5.3-7.3,7.3c-2.8,2-6.2,2.9-10.2,2.9c-3.6,0-7-1.1-10.2-3.3c-3.2-2.2-4.7-5.4-4.7-9.6c0-5.9,2.7-11.3,8-16.1
	c5.3-4.9,11.6-7.3,18.8-7.3c3.4,0,6.2,0.8,8.3,2.3s3.2,3.3,3.2,5.3c0,3.9-2.3,6.8-6.8,8.7C610.4,49.8,604.9,50.8,598.4,50.8z
	 M598.6,49.9c3.4-0.4,6.5-2.3,9.3-5.7c2.8-3.4,4.2-6.5,4.2-9.1c0-0.7-0.1-1.3-0.3-1.7c-0.2-0.4-0.6-0.6-1.3-0.6
	c-1.1,0-2.2,0.6-3.2,1.8s-2.2,2.8-3.5,4.9c-1.2,2.1-2.3,4-3.1,5.7S599.2,48.5,598.6,49.9z"/>
</svg>
